<svg width="64" height="65" viewBox="0 0 64 65" fill="none" xmlns="http://www.w3.org/2000/svg">
<path d="M49.7123 25.8441C49.5823 25.6491 49.3248 25.5216 49.0023 25.3266C48.9373 26.2316 48.9373 26.9416 48.8723 27.6541C48.6774 30.0466 46.8048 31.7266 44.4123 31.5967C42.2149 31.4667 40.6624 29.6567 40.6624 27.2642C40.6624 24.4842 40.8574 21.6391 40.5324 18.9244C39.4999 10.717 34.3276 5.60924 27.0225 1.85938C27.345 3.47436 27.605 4.63937 27.7325 5.86689C28.185 10.6519 26.505 14.852 23.9175 18.6669C21.2025 22.6094 18.2274 26.3597 15.4503 30.1741C11.6353 35.3466 10.5378 41.0989 11.8303 47.3069C13.3828 54.8045 19.3306 60.8167 26.6356 62.5618C26.1181 62.0443 25.6656 61.4618 25.2131 60.8168C22.1756 56.0968 22.3032 51.1843 24.8256 46.2717C24.8906 46.1417 25.0206 46.1417 25.1481 46.0142C25.1481 46.4667 25.2131 46.8542 25.2131 47.1768C25.3431 48.4043 26.3131 49.2443 27.4756 49.1818C28.6381 49.1168 29.3506 48.2117 29.3506 46.9843C29.3506 45.5618 29.2206 44.1393 29.4156 42.7168C29.9331 38.5142 32.5831 35.9296 36.3335 34.0544C36.2035 34.8944 36.011 35.4769 35.946 36.1219C35.6885 38.5794 36.5935 40.7118 37.886 42.652C39.2435 44.657 40.796 46.5945 42.2185 48.5347C44.1585 51.1847 44.7385 54.0947 44.0285 57.2621C43.771 58.4246 43.3185 59.4596 42.736 60.4946C45.0635 59.0071 47.131 57.0046 48.8134 54.4823C54.951 45.1074 54.6283 35.4749 49.7134 25.845L49.7123 25.8441Z" fill="url(#paint0_linear_4011_75)" style=""/>
<defs>
<linearGradient id="paint0_linear_4011_75" x1="32.3616" y1="1.85937" x2="32.3616" y2="62.5618" gradientUnits="userSpaceOnUse">
<stop stop-color="#FFC400" style="stop-color:#FFC400;stop-color:color(display-p3 1.0000 0.7667 0.0000);stop-opacity:1;"/>
<stop offset="1" stop-color="#FF0000" style="stop-color:#FF0000;stop-color:color(display-p3 1.0000 0.0000 0.0000);stop-opacity:1;"/>
</linearGradient>
</defs>
</svg>
