<svg width="565" height="35" viewBox="0 0 565 35" fill="none" xmlns="http://www.w3.org/2000/svg">
<path d="M-106.961 -5.193C-99.1857 -6.88372 -88.6007 -8.06179 -76.8238 -8.54718L-36.0524 -10.2276C-25.6343 -10.657 -14.7599 -10.5245 -4.74425 -9.84622L23.172 -7.95562C34.3731 -7.19704 46.6149 -7.12324 58.0642 -7.74526L96.6912 -9.84378C108.132 -10.4653 120.458 -9.67094 127.25 -7.87442C133.855 -6.12773 145.717 -5.3232 156.942 -5.86074L212 -8.4974C222.474 -8.99897 233.521 -8.92625 243.771 -8.28825L304.815 -4.48868C309.442 -4.20068 314.257 -4.02633 319.134 -3.97018L395.32 -3.09308C401.124 -3.02626 406.95 -3.1276 412.581 -3.39337L477.708 -6.46683C482.214 -6.67947 486.848 -6.78706 491.501 -6.78706L505.82 -6.78706C515.212 -6.78706 524.449 -6.34878 532.66 -5.51359L538.71 -4.89813C550.763 -3.67201 559.878 -1.66517 564.265 0.728375L581.657 10.2177C583.032 10.9681 579.381 11.7042 575.17 11.5255L565.631 11.1208C563.509 11.0307 561.296 11.1773 559.98 11.495L550.787 13.7139C550.26 13.8412 549.905 13.9894 549.75 14.1466L539.552 24.539C538.693 25.4143 532.528 25.6756 529.656 24.9584L489.676 14.9759C480.854 12.7731 462.438 13.0527 455.718 15.4914C455.399 15.6073 454.768 15.6835 454.061 15.6918L439.544 15.8619C427.304 16.0053 415.673 16.8902 406.481 18.3771L400.124 19.4055C394.888 20.2525 390.577 21.2737 387.418 22.4149L371.474 28.1761L364.941 30.1314C359.81 31.6672 352.534 32.9246 343.863 33.7738L337.676 34.3798C335.203 34.6219 332.133 34.4867 330.532 34.0653L324.497 32.4769L291.228 21.3422C290.948 21.2482 290.45 21.1826 289.874 21.1638C281.281 20.8828 272.727 21.6925 269.01 23.1387L265.046 24.6813C264.559 24.8708 263.548 24.997 262.407 25.0108L262.002 25.0157C243.847 25.2355 229.034 27.7611 226.545 31.0614L225.289 32.7274C224.598 33.6434 217.748 33.807 215.797 32.9541L200 26.0474C191.437 22.3038 164.896 21.3265 148.978 24.1509C147.681 24.381 145.572 24.3545 144.469 24.0928L135.222 21.9004C129.656 20.5807 119.186 20.3845 112.276 21.4705C102.67 22.9801 87.7507 21.9297 86.1423 19.6307L84.907 17.8649C83.1156 15.3044 68.2712 13.7862 55.3489 14.8182L35.2398 16.0001C33.7887 16.0854 32.5944 16.2767 31.9391 16.5286L-1.33389 29.3228C-1.80863 29.5053 -3.29077 29.4616 -3.42855 29.261L-17.6858 8.50273C-18.7482 6.95586 -28.5945 6.20724 -35.3284 7.16136C-39.8398 7.80056 -46.2713 7.70211 -50.1404 6.93462L-54.1323 6.14278C-55.7379 5.82429 -57.6812 5.56906 -59.8435 5.39269L-86.9626 3.18073L-120.335 -0.45968C-123.264 -0.779194 -123.93 -1.50337 -121.734 -1.98089L-106.961 -5.193Z" fill="#98C4E7" fill-opacity="0.5" style="fill:#98C4E7;fill:color(display-p3 0.5961 0.7686 0.9059);fill-opacity:0.5;"/>
<path d="M-106.961 -5.193C-99.1857 -6.88372 -88.6006 -8.06179 -76.8238 -8.54718L-36.0524 -10.2276C-25.6342 -10.657 -14.7598 -10.5245 -4.74417 -9.84622L23.1721 -7.95562C34.3732 -7.19704 46.6149 -7.12324 58.0643 -7.74526L96.6913 -9.84378C108.132 -10.4653 120.458 -9.67094 127.251 -7.87442C133.855 -6.12773 145.717 -5.3232 156.942 -5.86074L212 -8.4974C222.474 -8.99897 233.521 -8.92625 243.771 -8.28825L304.815 -4.48868C309.442 -4.20068 314.257 -4.02633 319.134 -3.97018L394.681 -3.10044C400.903 -3.02881 407.146 -3.15046 413.147 -3.46025L470.23 -6.40731C475.111 -6.65928 480.157 -6.78706 485.228 -6.78706L502.75 -6.78706C511.281 -6.78706 519.695 -6.4255 527.335 -5.73068L537.152 -4.83789C550.156 -3.65522 560.096 -1.58299 564.823 0.930833L585.689 12.0276C587.16 12.8098 583.163 13.5671 578.844 13.3246L568.937 12.7683C568.647 12.752 568.345 12.7437 568.042 12.7437C554.941 12.7437 543.301 14.2751 539.122 16.5487L532.108 20.3644C530.438 21.273 523.447 21.2866 521.671 20.3848L513.886 16.4312C512.9 15.9304 511.666 15.4472 510.199 14.9875L501.934 12.398C493.846 9.86411 476.377 8.92279 462.083 10.2507C454.367 10.9675 448.694 12.2543 446.495 13.7864L419.419 32.6492C418.012 33.629 410.487 33.6644 408.807 32.699L390.308 22.0637C389.486 21.5912 386.915 21.2973 384.236 21.3697L356.035 22.1316C355.49 22.1463 355.012 22.2065 354.741 22.2945C347.907 24.5167 330.423 24.5122 323.623 22.2865L309.505 17.6655C308.617 17.3746 306.636 17.263 305.008 17.4121L303.506 17.5496C294.832 18.3437 285.112 18.6747 275.459 18.5048L262.492 18.2765C261.875 18.2656 261.336 18.195 261.081 18.0914L260.169 17.721C257.256 16.5385 250.139 15.9072 243.266 16.2219C242.492 16.2573 241.706 16.1729 241.497 16.0321L231.164 9.07448C229.619 8.03366 221.439 8.09879 220.393 9.16025L212.509 17.1575C211.877 17.7988 207.455 18.0164 205.152 17.5196C192.253 14.7367 170.467 13.9905 152.946 15.7313L150.56 15.9684C148.79 16.1443 146.577 16.0271 145.593 15.7054L135.478 12.3996C128.566 10.1405 111.755 9.72511 101.82 11.5679C101.021 11.7161 99.7263 11.7228 98.8828 11.5831L73.8641 7.43831C68.8773 6.61217 61.6145 6.43919 55.6394 7.00426L48.9693 7.63505C44.3361 8.07322 38.6443 7.70638 36.5314 6.83344C33.5954 5.62037 24.455 5.49834 20.589 6.62059L14.7753 8.30825C11.3483 9.30306 3.30515 9.23334 0.406746 8.18371L-1.54503 7.47689C-3.36267 6.81865 -8.29794 6.72854 -10.7897 7.3081C-13.1583 7.85902 -17.7982 7.81033 -19.8076 7.21347L-24.6152 5.78546C-26.7833 5.14145 -30.6197 4.74926 -34.7515 4.74926L-71.655 4.74926C-86.5659 4.74926 -100.844 3.64604 -111.247 1.69012L-122.433 -0.412797C-124.415 -0.785507 -124.531 -1.37272 -122.701 -1.77068L-106.961 -5.193Z" fill="#D1E6F7" style="fill:#D1E6F7;fill:color(display-p3 0.8196 0.9020 0.9686);fill-opacity:1;"/>
<path d="M-106.961 -5.19252C-99.1857 -6.88324 -88.6006 -8.06131 -76.8238 -8.5467L-36.0524 -10.2271C-29.2852 -10.506 -22.3255 -10.5479 -15.5337 -10.3571C-8.25079 -10.1524 -0.95224 -9.87656 6.40863 -9.93641L31.0095 -10.1364C38.3704 -10.1963 45.9333 -10.0019 53.2289 -10.1906C67.964 -10.5719 90.6047 -12.0622 101.838 -12.7388C104.366 -12.891 106.854 -13.0621 109.27 -13.2665L189.335 -20.0399C191.75 -20.2442 194.235 -20.4318 196.885 -20.4758C209.902 -20.6918 233.553 -19.4331 239.663 -17.8169C246.267 -16.0702 314.931 -12.422 326.155 -12.9595C315.905 -13.5975 336.629 -13.4611 326.155 -12.9595L410.437 -12.2006L463.735 -7.09017C455.876 -6.4853 472.243 -6.99222 463.735 -7.09017C456.38 -7.09017 470.515 -7.61201 463.735 -7.09017L492.837 -8.29681C496.842 -8.46289 500.938 -8.55689 505.04 -8.51906C519.14 -8.38902 534.115 -7.76398 543.249 -5.89576L550.002 -4.51442C554.915 -3.50944 558.681 -2.33476 561.079 -1.05943L581.887 10.0059C583.768 11.0066 577.057 11.7979 572.861 11.0701L542.679 5.8357C529.739 3.59159 510.633 3.01951 494.464 4.39203C484.835 5.20937 473.906 5.35403 463.735 4.79877L397.19 1.16583C382.871 0.384092 367.433 0.697334 354.395 2.03415L276.342 10.0377C273.544 10.3245 270.005 10.1166 268.64 9.58527L258.795 5.75101C246.233 0.858313 214.885 -1.36209 187.61 0.708891L129.269 5.1388C115.897 6.15421 100.882 6.16829 87.4529 5.17803L42.1624 1.83821C32.5415 1.12875 22.0244 0.929321 11.8136 1.26273L-66.1269 3.80773C-84.17 4.39689 -102.635 3.30989 -115.422 0.905756L-122.433 -0.412315C-124.415 -0.785027 -124.531 -1.37224 -122.701 -1.7702L-106.961 -5.19252Z" fill="white" style="fill:white;fill-opacity:1;"/>
</svg>
