<svg width="49" height="49" viewBox="0 0 49 49" fill="none" xmlns="http://www.w3.org/2000/svg" style="transform: scale(-1, 1);">
<path d="M20.2339 11.9093C20.3014 11.9018 20.3689 11.9018 20.4364 11.9018C24.1789 11.9018 27.854 12.6368 31.1688 13.9943C31.3713 11.5568 31.6113 9.07428 31.6113 9.07428C31.6113 9.07428 24.6813 8.49676 20.2337 11.9093L20.2339 11.9093Z" fill="black" fill-opacity="0.85"/>
<path d="M23.1889 36.1041C26.7439 38.8266 31.6113 38.3241 31.6113 38.3241C31.6113 38.3241 31.4538 36.2916 31.3038 34.1017C28.7763 35.1517 26.0238 35.8417 23.1886 36.1042L23.1889 36.1041Z" fill="black" fill-opacity="0.85"/>
<path d="M16.9338 13.6941C18.0363 13.5066 19.1988 13.4016 20.4363 13.4016C28.4163 13.4016 34.7387 16.7916 38.3011 20.4892C41.0535 17.1592 44.9835 15.6892 44.9835 15.6892C44.9835 15.6892 45.921 19.4917 42.5985 24.074C45.3585 26.8715 44.9835 32.4588 44.9835 32.4588C44.9835 32.4588 41.0459 30.9888 38.3011 27.6588C34.7386 31.3638 28.4163 34.7464 20.4363 34.7464C19.1013 34.7464 17.8187 34.5589 16.5887 34.2514C20.0463 27.0666 18.7187 17.429 16.9412 13.6938L16.9338 13.6941ZM25.9186 28.3941H26.0011C26.3761 28.3941 26.6986 28.1091 26.7436 27.7266C27.0511 25.0491 27.0586 22.3418 26.7661 19.6942C26.7211 19.2817 26.3385 18.9892 25.9411 19.0267C25.5286 19.0717 25.2286 19.4392 25.2735 19.8517C25.5435 22.3567 25.536 25.0193 25.251 27.5541C25.206 27.9666 25.4985 28.3341 25.911 28.3866L25.9186 28.3941ZM22.8436 28.6641H22.9486C23.3161 28.6641 23.6386 28.3941 23.6911 28.0116C24.0661 25.2216 24.0811 22.244 23.7211 19.4092C23.6686 18.9968 23.2861 18.7117 22.8811 18.7568C22.4686 18.8093 22.1761 19.1843 22.2286 19.5968C22.5736 22.3043 22.5586 25.1468 22.1986 27.8092C22.1461 28.2216 22.4311 28.5967 22.8436 28.6492V28.6641Z" fill="black" fill-opacity="0.85"/>
<path d="M3.68711 22.0789C5.48711 19.6039 9.27471 15.5237 15.4171 14.0013C17.1271 17.0913 18.5671 26.9613 15.1321 33.8313C9.96451 32.0763 5.92211 28.1689 3.88211 25.8665C2.93711 24.8015 2.84711 23.2341 3.68711 22.079V22.0789ZM12.1095 22.5739C12.9345 22.5739 13.6095 21.8989 13.6095 21.0739C13.6095 20.2489 12.9345 19.5739 12.1095 19.5739C11.2845 19.5739 10.6095 20.2489 10.6095 21.0739C10.6095 21.8989 11.2845 22.5739 12.1095 22.5739Z" fill="black" fill-opacity="0.85"/>
</svg>
