<svg width="49" height="49" viewBox="0 0 49 49" fill="none" xmlns="http://www.w3.org/2000/svg">
<path d="M27.9897 11.9093C27.9222 11.9018 27.8547 11.9018 27.7872 11.9018C24.0447 11.9018 20.3696 12.6368 17.0548 13.9943C16.8523 11.5568 16.6123 9.07428 16.6123 9.07428C16.6123 9.07428 23.5423 8.49676 27.9899 11.9093L27.9897 11.9093Z" fill="black" fill-opacity="0.85"/>
<path d="M25.0328 36.1041C21.4778 38.8266 16.6104 38.3241 16.6104 38.3241C16.6104 38.3241 16.7679 36.2916 16.9179 34.1017C19.4454 35.1517 22.1979 35.8417 25.0331 36.1042L25.0328 36.1041Z" fill="black" fill-opacity="0.85"/>
<path d="M31.2889 13.6941C30.1864 13.5066 29.0239 13.4016 27.7864 13.4016C19.8064 13.4016 13.484 16.7916 9.9216 20.4892C7.16912 17.1592 3.2392 15.6892 3.2392 15.6892C3.2392 15.6892 2.30168 19.4917 5.6242 24.074C2.8642 26.8715 3.2392 32.4588 3.2392 32.4588C3.2392 32.4588 7.17672 30.9888 9.9216 27.6588C13.4841 31.3638 19.8064 34.7464 27.7864 34.7464C29.1214 34.7464 30.4039 34.5589 31.6339 34.2514C28.1764 27.0666 29.5039 17.429 31.2814 13.6938L31.2889 13.6941ZM22.3041 28.3941H22.2216C21.8466 28.3941 21.5241 28.1091 21.4791 27.7266C21.1716 25.0491 21.1641 22.3418 21.4566 19.6942C21.5016 19.2817 21.8841 18.9892 22.2816 19.0267C22.6941 19.0717 22.9941 19.4392 22.9491 19.8517C22.6791 22.3567 22.6866 25.0193 22.9716 27.5541C23.0166 27.9666 22.7241 28.3341 22.3116 28.3866L22.3041 28.3941ZM25.3791 28.6641H25.2741C24.9066 28.6641 24.5841 28.3941 24.5316 28.0116C24.1566 25.2216 24.1416 22.244 24.5016 19.4092C24.5541 18.9968 24.9366 18.7117 25.3416 18.7568C25.7541 18.8093 26.0466 19.1843 25.9941 19.5968C25.6491 22.3043 25.6641 25.1468 26.0241 27.8092C26.0766 28.2216 25.7916 28.5967 25.3791 28.6492V28.6641Z" fill="black" fill-opacity="0.85"/>
<path d="M44.5355 22.0789C42.7355 19.6039 38.9479 15.5237 32.8055 14.0013C31.0955 17.0913 29.6555 26.9613 33.0905 33.8313C38.2581 32.0763 42.3005 28.1689 44.3405 25.8665C45.2855 24.8015 45.3755 23.2341 44.5355 22.079V22.0789ZM36.1131 22.5739C35.2881 22.5739 34.6131 21.8989 34.6131 21.0739C34.6131 20.2489 35.2881 19.5739 36.1131 19.5739C36.9381 19.5739 37.6131 20.2489 37.6131 21.0739C37.6131 21.8989 36.9381 22.5739 36.1131 22.5739Z" fill="black" fill-opacity="0.85"/>
</svg>
