<svg width="33" height="32" viewBox="0 0 33 32" fill="none" xmlns="http://www.w3.org/2000/svg">
<path d="M5.74196 1.60413H28.142V4.80413H5.74196V1.60413Z" fill="#5C7DB8" style="fill:#5C7DB8;fill:color(display-p3 0.3604 0.4895 0.7208);fill-opacity:1;"/>
<path d="M15.3448 20.8042V27.204H12.1448V17.6044L5.74481 17.6042V20.8042H8.94481V30.404H15.3448V27.204L18.5448 27.2043V20.8042H15.3448Z" fill="#5C7DB8" style="fill:#5C7DB8;fill:color(display-p3 0.3604 0.4895 0.7208);fill-opacity:1;"/>
<path d="M28.1452 4.84729H31.3452V17.6044H28.1452V4.84729Z" fill="#5C7DB8" style="fill:#5C7DB8;fill:color(display-p3 0.3604 0.4895 0.7208);fill-opacity:1;"/>
<path d="M5.74525 4.84717H2.54525C2.5483 9.09986 2.54221 13.3453 2.54525 17.5981H5.74525C5.74221 13.3453 5.7483 9.09986 5.74525 4.84717Z" fill="#5C7DB8" style="fill:#5C7DB8;fill:color(display-p3 0.3604 0.4895 0.7208);fill-opacity:1;"/>
<path d="M12.142 8.04736H15.342V14.4454H12.142V8.04736Z" fill="#5C7DB8" style="fill:#5C7DB8;fill:color(display-p3 0.3604 0.4895 0.7208);fill-opacity:1;"/>
<path d="M21.7448 17.6042V27.2043H18.5448V30.4043H24.9448V20.8042H28.1448V17.6042H21.7448Z" fill="#5C7DB8" style="fill:#5C7DB8;fill:color(display-p3 0.3604 0.4895 0.7208);fill-opacity:1;"/>
<path d="M18.5419 8.04932H21.7419V14.4474H18.5419V8.04932Z" fill="#5C7DB8" style="fill:#5C7DB8;fill:color(display-p3 0.3604 0.4895 0.7208);fill-opacity:1;"/>
</svg>
