<svg width="48" height="49" viewBox="0 0 48 49" fill="none" xmlns="http://www.w3.org/2000/svg">
<g clip-path="url(#clip0_4040_814)">
<path d="M42.3534 8.97028H45.1762V17.4415H42.3534V8.97028Z" fill="black" style="fill:black;fill-opacity:1;"/>
<path d="M39.5297 17.4415H42.3534V20.2643H39.5297V17.4415Z" fill="black" style="fill:black;fill-opacity:1;"/>
<path d="M39.5297 6.14752H42.3534V8.97033H39.5297V6.14752Z" fill="black" style="fill:black;fill-opacity:1;"/>
<path d="M36.7059 3.32373H39.5297V6.14748H36.7059V3.32373Z" fill="black" style="fill:black;fill-opacity:1;"/>
<path d="M33.8822 34.3822H36.7059V42.8525H33.8822V34.3822Z" fill="black" style="fill:black;fill-opacity:1;"/>
<path d="M31.0594 20.2644H39.5297V23.0882H31.0594V20.2644Z" fill="black" style="fill:black;fill-opacity:1;"/>
<path d="M33.8822 0.5H36.7059V3.32375H33.8822V0.5Z" fill="black" style="fill:black;fill-opacity:1;"/>
<path d="M31.0594 42.8525H33.8822V45.6763H31.0594V42.8525Z" fill="black" style="fill:black;fill-opacity:1;"/>
<path d="M31.0594 31.5585H33.8822V34.3822H31.0594V31.5585Z" fill="black" style="fill:black;fill-opacity:1;"/>
<path d="M31.0594 3.32373H33.8822V6.14748H31.0594V3.32373Z" fill="black" style="fill:black;fill-opacity:1;"/>
<path d="M28.2356 28.7356H31.0594V31.5584H28.2356V28.7356Z" fill="black" style="fill:black;fill-opacity:1;"/>
<path d="M28.2356 17.4415H31.0594V20.2643H28.2356V17.4415Z" fill="black" style="fill:black;fill-opacity:1;"/>
<path d="M28.2356 6.14752H31.0594V8.97033H28.2356V6.14752Z" fill="black" style="fill:black;fill-opacity:1;"/>
<path d="M22.5881 45.6761H31.0594V48.4999H22.5881V45.6761Z" fill="black" style="fill:black;fill-opacity:1;"/>
<path d="M25.4119 25.9119H28.2356V28.7356H25.4119V25.9119Z" fill="black" style="fill:black;fill-opacity:1;"/>
<path d="M25.4119 8.97028H28.2356V17.4415H25.4119V8.97028Z" fill="black" style="fill:black;fill-opacity:1;"/>
<path d="M22.5881 28.7356H25.4119V31.5584H22.5881V28.7356Z" fill="black" style="fill:black;fill-opacity:1;"/>
<path d="M19.7653 42.8525H22.5881V45.6763H19.7653V42.8525Z" fill="black" style="fill:black;fill-opacity:1;"/>
<path d="M19.7653 31.5585H22.5881V34.3822H19.7653V31.5585Z" fill="black" style="fill:black;fill-opacity:1;"/>
<path d="M19.7653 17.4415H22.5881V25.9118H19.7653V17.4415Z" fill="black" style="fill:black;fill-opacity:1;"/>
<path d="M16.9416 34.3822H19.7653V42.8525H16.9416V34.3822Z" fill="black" style="fill:black;fill-opacity:1;"/>
<path d="M16.9416 25.9119H19.7653V28.7356H16.9416V25.9119Z" fill="black" style="fill:black;fill-opacity:1;"/>
<path d="M16.9416 14.6177H19.7653V17.4414H16.9416V14.6177Z" fill="black" style="fill:black;fill-opacity:1;"/>
<path d="M8.47125 28.7356H16.9416V31.5584H8.47125V28.7356Z" fill="black" style="fill:black;fill-opacity:1;"/>
<path d="M14.1178 11.7941H16.9415V14.6178H14.1178V11.7941Z" fill="black" style="fill:black;fill-opacity:1;"/>
<path d="M11.2941 8.97028H14.1178V11.794H11.2941V8.97028Z" fill="black" style="fill:black;fill-opacity:1;"/>
<path d="M8.47125 11.7941H11.2941V14.6178H8.47125V11.7941Z" fill="black" style="fill:black;fill-opacity:1;"/>
<path d="M5.64752 25.9119H8.47127V28.7356H5.64752V25.9119Z" fill="black" style="fill:black;fill-opacity:1;"/>
<path d="M5.64752 14.6177H8.47127V17.4414H5.64752V14.6177Z" fill="black" style="fill:black;fill-opacity:1;"/>
<path d="M2.82376 17.4415H5.64751V25.9118H2.82376V17.4415Z" fill="black" style="fill:black;fill-opacity:1;"/>
</g>
<defs>
<clipPath id="clip0_4040_814">
<rect width="48" height="48" fill="white" style="fill:white;fill-opacity:1;" transform="translate(0 0.5)"/>
</clipPath>
</defs>
</svg>
