<svg width="49" height="49" viewBox="0 0 49 49" fill="none" xmlns="http://www.w3.org/2000/svg">
<path d="M7.66284 35H6.16284V33.5H7.66284V35ZM9.16284 32H7.66284V33.5H9.16284V32ZM10.6628 30.5H9.16284V32H10.6628V30.5ZM12.1628 29H10.6628V30.5H12.1628V29ZM25.6628 27.5H21.1628V26H19.6628V27.5H12.1628V29H25.6628V27.5ZM27.1628 29H25.6628V32H27.1628H31.6628V30.5H27.1628V29ZM16.6628 33.5H25.6628V32H16.6628V33.5ZM16.6628 38H28.6628V36.5H16.6628V38ZM15.1628 39.5H16.6628V38H15.1628V39.5ZM13.6628 41H15.1628V39.5H13.6628V41ZM12.1628 42.5H13.6628V41H12.1628V42.5ZM10.6628 44H12.1628V42.5H10.6628V44ZM28.6628 36.5H31.6628V35H28.6628V36.5ZM31.6628 35H34.6628V33.5H31.6628V35ZM34.6628 33.5H37.6628V32H34.6628V33.5ZM37.6628 32H40.6628V30.5H37.6628V32ZM42.1628 30.5V27.5H40.6628V30.5H42.1628ZM40.6628 26H37.6628V27.5H40.6628V26ZM37.6628 27.5H34.6628V29H37.6628V27.5ZM34.6628 30.5V29H31.6628V30.5H34.6628ZM31.6628 29V27.5H30.1628V29H31.6628ZM30.1628 27.5V26H28.6628V27.5H30.1628ZM28.6628 26V24.5H27.1628V26H28.6628ZM27.1628 23H25.6628V18.5H33.1628V17H25.6628V12.5H27.1628V11H25.6628V8H24.1628V12.5H16.6628V14H24.1628V23H22.6628V24.5H27.1628V23ZM22.6628 24.5H21.1628V26H22.6628V24.5ZM24.1628 8V6.5H22.6628V8H24.1628ZM15.1628 11V12.5H16.6628V11H15.1628ZM22.6628 6.5V5H21.1628V6.5H22.6628ZM13.6628 9.5V11H15.1628V9.5H13.6628ZM21.1628 5V3.5H12.1628V5V9.5H13.6628V5H21.1628ZM33.1628 17H34.6628V15.5H33.1628V17ZM28.6628 9.5H27.1628V11H28.6628V9.5ZM34.6628 15.5H36.1628V14H34.6628V15.5ZM36.1628 14H37.6628V9.5V8H28.6628V9.5H36.1628V14Z" fill="black" style="fill:black;fill-opacity:1;"/>
</svg>
