<svg width="33" height="25" viewBox="0 0 33 25" fill="none" xmlns="http://www.w3.org/2000/svg">
<rect x="0.873047" y="10.4897" width="27.2412" height="14.5286" rx="2" transform="rotate(-21.591 0.873047 10.4897)" fill="#BD5800"/>
<rect x="1.24072" y="8.46692" width="27.2412" height="14.5286" rx="2" transform="rotate(-13.9548 1.24072 8.46692)" fill="#FFD64E"/>
<path d="M10.1677 14.3999L10.4102 15.305L12.8776 14.6439L13.2731 16.1202L9.17601 17.218L7.52783 11.0669L11.5794 9.98128L11.9726 11.4488L9.55078 12.0977L9.77917 12.95L11.9734 12.3621L12.3619 13.812L10.1677 14.3999Z" fill="#5B4300"/>
<path d="M16.497 11.9035L19.2472 14.5194L17.4263 15.0073L15.9868 13.6413L15.4232 15.544L13.5932 16.0344L14.6737 12.3826L12.0179 9.8638L13.8479 9.37344L15.1839 10.6448L15.7053 8.87576L17.5353 8.3854L16.497 11.9035Z" fill="#5B4300"/>
<path d="M18.1529 8.21991L20.6294 7.55634C21.2728 7.38395 21.8672 7.4413 22.4125 7.72842C22.9578 8.01553 23.3145 8.4725 23.4824 9.09933C23.6504 9.72615 23.57 10.3002 23.2413 10.8215C22.9126 11.3429 22.4265 11.6897 21.7831 11.8621L20.9364 12.089L21.4308 13.9343L19.8011 14.371L18.1529 8.21991ZM20.5361 10.5952L21.3828 10.3683C21.5649 10.3195 21.7002 10.2173 21.7886 10.0618C21.8831 9.90458 21.9045 9.72933 21.8527 9.53601C21.8009 9.34269 21.6956 9.20453 21.5367 9.12152C21.3823 9.03103 21.2141 9.01017 21.032 9.05897L20.1853 9.28585L20.5361 10.5952Z" fill="#5B4300"/>
</svg>
