<svg width="33" height="25" viewBox="0 0 33 25" fill="none" xmlns="http://www.w3.org/2000/svg">
<rect x="0.873047" y="10.4897" width="27.2412" height="14.5286" rx="2" transform="rotate(-21.591 0.873047 10.4897)" fill="#2B4A01"/>
<rect x="1.24072" y="8.46692" width="27.2412" height="14.5286" rx="2" transform="rotate(-13.9548 1.24072 8.46692)" fill="#AFDF6B"/>
<path d="M19.2357 13.1232C19.3703 13.665 19.2877 14.1638 18.988 14.6194C18.6866 15.0686 18.2242 15.4087 17.601 15.6398L17.8175 16.5113L17.1152 16.6858L16.9011 15.8242C16.2951 15.9401 15.7472 15.9203 15.2573 15.7648C14.7674 15.6093 14.3728 15.3296 14.0736 14.9257L15.0047 14.1018C15.3907 14.6089 15.9312 14.8142 16.6261 14.7177L16.1201 12.6811C15.447 12.6196 14.9129 12.5167 14.5175 12.3723C13.9931 12.17 13.657 11.7718 13.5094 11.1778C13.3748 10.636 13.4662 10.142 13.7836 9.69578C14.0954 9.25789 14.5474 8.93766 15.1395 8.73508L14.9254 7.87343L15.6277 7.6989L15.8443 8.57035C16.8315 8.44978 17.6126 8.73047 18.1874 9.41239L17.2755 10.2212C16.9828 9.8434 16.5982 9.66521 16.1217 9.68659L16.6034 11.6253C16.9015 11.6552 17.0898 11.6743 17.1683 11.6825C17.6394 11.7317 17.9925 11.8138 18.2275 11.9287C18.8026 12.1808 19.1387 12.579 19.2357 13.1232ZM14.752 10.869C14.8007 11.0649 14.906 11.2119 15.0681 11.3103C15.2303 11.4086 15.4868 11.4869 15.8378 11.5453L15.4145 9.84153C15.1577 9.94692 14.9679 10.0911 14.8451 10.2741C14.7295 10.4553 14.6985 10.6536 14.752 10.869ZM16.8832 12.7513L17.326 14.5334C17.594 14.4114 17.7841 14.2532 17.8965 14.059C18.016 13.8629 18.049 13.6572 17.9955 13.4418C17.9436 13.2329 17.8322 13.0769 17.6613 12.9739C17.4903 12.8708 17.231 12.7966 16.8832 12.7513Z" fill="#175217"/>
</svg>
