<svg width="49" height="48" viewBox="0 0 49 48" fill="none" xmlns="http://www.w3.org/2000/svg">
<g clip-path="url(#clip0_4040_847)">
<path d="M13.1846 18.7826H10.0542V25.0435H13.1846V18.7826Z" fill="black" style="fill:black;fill-opacity:1;"/>
<path d="M16.315 12.5217H13.1846V18.7826H16.315V12.5217Z" fill="black" style="fill:black;fill-opacity:1;"/>
<path d="M19.4455 6.26086H16.3151V12.5218H19.4455V6.26086Z" fill="black" style="fill:black;fill-opacity:1;"/>
<path d="M22.5759 3.13037H19.4455V6.26078H22.5759V3.13037Z" fill="black" style="fill:black;fill-opacity:1;"/>
<path d="M26.7498 0H22.5759V3.13041H26.7498V0Z" fill="black" style="fill:black;fill-opacity:1;"/>
<path d="M39.2715 18.7826H36.1411V25.0435H39.2715V18.7826Z" fill="black" style="fill:black;fill-opacity:1;"/>
<path d="M36.141 12.5217H33.0106V18.7826H36.141V12.5217Z" fill="black" style="fill:black;fill-opacity:1;"/>
<path d="M33.0106 6.26086H29.8802V12.5218H33.0106V6.26086Z" fill="black" style="fill:black;fill-opacity:1;"/>
<path d="M29.8802 3.13037H26.7498V6.26078H29.8802V3.13037Z" fill="black" style="fill:black;fill-opacity:1;"/>
<path d="M36.141 41.7391H33.0106V44.8695H36.141V41.7391Z" fill="black" style="fill:black;fill-opacity:1;"/>
<path d="M39.2715 38.6086H36.1411V41.7391H39.2715V38.6086Z" fill="black" style="fill:black;fill-opacity:1;"/>
<path d="M33.0107 44.8696H16.3151V48H33.0107V44.8696Z" fill="black" style="fill:black;fill-opacity:1;"/>
<path d="M42.4019 25.0434H39.2715V38.6086H42.4019V25.0434Z" fill="black" style="fill:black;fill-opacity:1;"/>
<path d="M16.315 41.7391H13.1846V44.8695H16.315V41.7391Z" fill="black" style="fill:black;fill-opacity:1;"/>
<path d="M13.1846 38.6086H10.0542V41.7391H13.1846V38.6086Z" fill="black" style="fill:black;fill-opacity:1;"/>
<path d="M10.0541 25.0434H6.92374V38.6086H10.0541V25.0434Z" fill="black" style="fill:black;fill-opacity:1;"/>
</g>
<defs>
<clipPath id="clip0_4040_847">
<rect width="48" height="48" fill="white" style="fill:white;fill-opacity:1;" transform="translate(0.662842)"/>
</clipPath>
</defs>
</svg>
