<svg width="33" height="32" viewBox="0 0 33 32" fill="none" xmlns="http://www.w3.org/2000/svg">
<g clip-path="url(#clip0_4040_994)">
<path d="M30.5303 26.353H32.4128V28.2349H30.5303V26.353Z" fill="black" style="fill:black;fill-opacity:1;"/>
<path d="M30.5303 22.5881H32.4128V24.4706H30.5303V22.5881Z" fill="black" style="fill:black;fill-opacity:1;"/>
<path d="M28.6478 24.4706H30.5303V26.3531H28.6478V24.4706Z" fill="black" style="fill:black;fill-opacity:1;"/>
<path d="M28.6478 26.3531H26.766V24.4706H24.8835V26.3531H23.001V28.235H19.2366V26.3531H17.3541V24.4706H15.4716V26.3531H13.5891V28.235H9.82472V26.3531H7.94222V24.4706H6.05972V26.3531H4.17784V28.235H2.29534V30.1175H0.412842V32H32.4128V30.1175H30.5303V28.235H28.6478V26.3531Z" fill="black" style="fill:black;fill-opacity:1;"/>
<path d="M26.766 22.5881H28.6478V24.4706H26.766V22.5881Z" fill="black" style="fill:black;fill-opacity:1;"/>
<path d="M24.8835 20.7056H26.766V22.5881H24.8835V20.7056Z" fill="black" style="fill:black;fill-opacity:1;"/>
<path d="M23.001 22.5881H24.8835V24.4706H23.001V22.5881Z" fill="black" style="fill:black;fill-opacity:1;"/>
<path d="M23.001 7.5293H24.8835V9.4118H23.001V7.5293Z" fill="black" style="fill:black;fill-opacity:1;"/>
<path d="M21.1185 5.64685H23.001V7.52935H21.1185V5.64685Z" fill="black" style="fill:black;fill-opacity:1;"/>
<path d="M19.2366 24.4706H23.001V26.3531H19.2366V24.4706Z" fill="black" style="fill:black;fill-opacity:1;"/>
<path d="M17.3541 9.41187V16.9412H19.2366V11.2944H23.001V9.41187H17.3541Z" fill="black" style="fill:black;fill-opacity:1;"/>
<path d="M19.2366 3.76489H21.1185V5.64677H19.2366V3.76489Z" fill="black" style="fill:black;fill-opacity:1;"/>
<path d="M17.3541 22.5881H19.2366V24.4706H17.3541V22.5881Z" fill="black" style="fill:black;fill-opacity:1;"/>
<path d="M17.3541 1.88245H19.2366V3.76495H17.3541V1.88245Z" fill="black" style="fill:black;fill-opacity:1;"/>
<path d="M15.4716 20.7056H17.3541V22.5881H15.4716V20.7056Z" fill="black" style="fill:black;fill-opacity:1;"/>
<path d="M15.4716 16.9412H17.3541V18.8237H15.4716V16.9412Z" fill="black" style="fill:black;fill-opacity:1;"/>
<path d="M15.4716 0H17.3541V1.8825H15.4716V0Z" fill="black" style="fill:black;fill-opacity:1;"/>
<path d="M13.5891 22.5881H15.4716V24.4706H13.5891V22.5881Z" fill="black" style="fill:black;fill-opacity:1;"/>
<path d="M15.4716 9.41187H9.82472V11.2944H13.5891V16.9412H15.4716V9.41187Z" fill="black" style="fill:black;fill-opacity:1;"/>
<path d="M13.5891 1.88245H15.4716V3.76495H13.5891V1.88245Z" fill="black" style="fill:black;fill-opacity:1;"/>
<path d="M11.7072 3.76489H13.5891V5.64677H11.7072V3.76489Z" fill="black" style="fill:black;fill-opacity:1;"/>
<path d="M9.82472 24.4706H13.5891V26.3531H9.82472V24.4706Z" fill="black" style="fill:black;fill-opacity:1;"/>
<path d="M9.82472 5.64685H11.7072V7.52935H9.82472V5.64685Z" fill="black" style="fill:black;fill-opacity:1;"/>
<path d="M7.94222 22.5881H9.82472V24.4706H7.94222V22.5881Z" fill="black" style="fill:black;fill-opacity:1;"/>
<path d="M7.94222 7.5293H9.82472V9.4118H7.94222V7.5293Z" fill="black" style="fill:black;fill-opacity:1;"/>
<path d="M6.05972 20.7056H7.94222V22.5881H6.05972V20.7056Z" fill="black" style="fill:black;fill-opacity:1;"/>
<path d="M4.17784 22.5881H6.05972V24.4706H4.17784V22.5881Z" fill="black" style="fill:black;fill-opacity:1;"/>
<path d="M2.29534 24.4706H4.17784V26.3531H2.29534V24.4706Z" fill="black" style="fill:black;fill-opacity:1;"/>
<path d="M0.412842 26.353H2.29534V28.2349H0.412842V26.353Z" fill="black" style="fill:black;fill-opacity:1;"/>
<path d="M0.412842 22.5881H2.29534V24.4706H0.412842V22.5881Z" fill="black" style="fill:black;fill-opacity:1;"/>
</g>
<defs>
<clipPath id="clip0_4040_994">
<rect width="32" height="32" fill="white" style="fill:white;fill-opacity:1;" transform="translate(0.412842)"/>
</clipPath>
</defs>
</svg>
