<svg width="49" height="48" viewBox="0 0 49 48" fill="none" xmlns="http://www.w3.org/2000/svg">
<path d="M23.3372 35.9306H25.9885V38.5819H23.3372V35.9306Z" fill="black" style="fill:black;fill-opacity:1;"/>
<path d="M23.3372 33.2794H25.9885V35.9306H23.3372V33.2794Z" fill="black" style="fill:black;fill-opacity:1;"/>
<path d="M23.3372 38.5818H25.9885V41.2331H23.3372V38.5818Z" fill="black" style="fill:black;fill-opacity:1;"/>
<path d="M23.3372 27.9769H25.9885V30.6281H23.3372V27.9769Z" fill="black" style="fill:black;fill-opacity:1;"/>
<path d="M31.291 33.2794H33.9422V35.9306H31.291V33.2794Z" fill="black" style="fill:black;fill-opacity:1;"/>
<path d="M23.3372 25.3256H25.9885V27.9769H23.3372V25.3256Z" fill="black" style="fill:black;fill-opacity:1;"/>
<path d="M33.9422 33.2794H36.5935V35.9306H33.9422V33.2794Z" fill="black" style="fill:black;fill-opacity:1;"/>
<path d="M23.3372 30.6281H25.9885V33.2794H23.3372V30.6281Z" fill="black" style="fill:black;fill-opacity:1;"/>
<path d="M25.9885 35.9306H28.6397V38.5819H25.9885V35.9306Z" fill="black" style="fill:black;fill-opacity:1;"/>
<path d="M23.3372 20.0231H25.9885V22.6744H23.3372V20.0231Z" fill="black" style="fill:black;fill-opacity:1;"/>
<path d="M28.6397 27.9769H31.291V30.6281H28.6397V27.9769Z" fill="black" style="fill:black;fill-opacity:1;"/>
<path d="M39.2447 27.9769H41.896V30.6281H39.2447V27.9769Z" fill="black" style="fill:black;fill-opacity:1;"/>
<path d="M39.2447 25.3256H41.896V27.9769H39.2447V25.3256Z" fill="black" style="fill:black;fill-opacity:1;"/>
<path d="M23.3372 17.3719H25.9885V20.0231H23.3372V17.3719Z" fill="black" style="fill:black;fill-opacity:1;"/>
<path d="M25.9885 20.0231H28.6397V22.6744H25.9885V20.0231Z" fill="black" style="fill:black;fill-opacity:1;"/>
<path d="M25.9885 4.1156H28.6397V6.76685H25.9885V4.1156Z" fill="black" style="fill:black;fill-opacity:1;"/>
<path d="M28.6397 17.3719H31.291V20.0231H28.6397V17.3719Z" fill="black" style="fill:black;fill-opacity:1;"/>
<path d="M39.2447 22.6744H41.896V25.3256H39.2447V22.6744Z" fill="black" style="fill:black;fill-opacity:1;"/>
<path d="M36.5935 20.0231H39.2447V22.6744H36.5935V20.0231Z" fill="black" style="fill:black;fill-opacity:1;"/>
<path d="M33.9422 22.6744H36.5935V25.3256H33.9422V22.6744Z" fill="black" style="fill:black;fill-opacity:1;"/>
<path d="M36.5935 17.3719H39.2447V20.0231H36.5935V17.3719Z" fill="black" style="fill:black;fill-opacity:1;"/>
<path d="M36.5935 14.7206H39.2447V17.3719H36.5935V14.7206Z" fill="black" style="fill:black;fill-opacity:1;"/>
<path d="M31.291 14.7206H33.9422V17.3719H31.291V14.7206Z" fill="black" style="fill:black;fill-opacity:1;"/>
<path d="M33.9422 12.0694H36.5935V14.7206H33.9422V12.0694Z" fill="black" style="fill:black;fill-opacity:1;"/>
<path d="M28.6397 6.76685H31.291V9.4181H28.6397V6.76685Z" fill="black" style="fill:black;fill-opacity:1;"/>
<path d="M25.9885 9.41815H28.6397V12.0694H25.9885V9.41815Z" fill="black" style="fill:black;fill-opacity:1;"/>
<path d="M28.6397 35.9306H31.291V38.5819H28.6397V35.9306Z" fill="black" style="fill:black;fill-opacity:1;"/>
<path d="M31.291 9.41815H33.9422V12.0694H31.291V9.41815Z" fill="black" style="fill:black;fill-opacity:1;"/>
<path d="M23.3372 1.46436H25.9885V4.11561H23.3372V1.46436Z" fill="black" style="fill:black;fill-opacity:1;"/>
<path d="M23.3372 22.6744H25.9885V25.3256H23.3372V22.6744Z" fill="black" style="fill:black;fill-opacity:1;"/>
<path d="M23.3372 12.0694H25.9885V14.7206H23.3372V12.0694Z" fill="black" style="fill:black;fill-opacity:1;"/>
<path d="M23.3372 14.7206H25.9885V17.3719H23.3372V14.7206Z" fill="black" style="fill:black;fill-opacity:1;"/>
<path d="M31.291 25.3256H33.9422V27.9769H31.291V25.3256Z" fill="black" style="fill:black;fill-opacity:1;"/>
<path d="M25.9885 30.6281H28.6397V33.2794H25.9885V30.6281Z" fill="black" style="fill:black;fill-opacity:1;"/>
<path d="M36.5935 30.6281H39.2447V33.2794H36.5935V30.6281Z" fill="black" style="fill:black;fill-opacity:1;"/>
<path d="M15.3835 33.2794H18.0347V35.9306H15.3835V33.2794Z" fill="black" style="fill:black;fill-opacity:1;"/>
<path d="M12.7322 33.2794H15.3835V35.9306H12.7322V33.2794Z" fill="black" style="fill:black;fill-opacity:1;"/>
<path d="M20.686 35.9306H23.3372V38.5819H20.686V35.9306Z" fill="black" style="fill:black;fill-opacity:1;"/>
<path d="M18.0347 27.9769H20.686V30.6281H18.0347V27.9769Z" fill="black" style="fill:black;fill-opacity:1;"/>
<path d="M7.42972 27.9769H10.081V30.6281H7.42972V27.9769Z" fill="black" style="fill:black;fill-opacity:1;"/>
<path d="M7.42972 25.3256H10.081V27.9769H7.42972V25.3256Z" fill="black" style="fill:black;fill-opacity:1;"/>
<path d="M20.686 20.0231H23.3372V22.6744H20.686V20.0231Z" fill="black" style="fill:black;fill-opacity:1;"/>
<path d="M20.686 4.1156H23.3372V6.76685H20.686V4.1156Z" fill="black" style="fill:black;fill-opacity:1;"/>
<path d="M18.0347 17.3719H20.686V20.0231H18.0347V17.3719Z" fill="black" style="fill:black;fill-opacity:1;"/>
<path d="M7.42972 22.6744H10.081V25.3256H7.42972V22.6744Z" fill="black" style="fill:black;fill-opacity:1;"/>
<path d="M10.081 20.0231H12.7322V22.6744H10.081V20.0231Z" fill="black" style="fill:black;fill-opacity:1;"/>
<path d="M12.7322 22.6744H15.3835V25.3256H12.7322V22.6744Z" fill="black" style="fill:black;fill-opacity:1;"/>
<path d="M10.081 17.3719H12.7322V20.0231H10.081V17.3719Z" fill="black" style="fill:black;fill-opacity:1;"/>
<path d="M10.081 14.7206H12.7322V17.3719H10.081V14.7206Z" fill="black" style="fill:black;fill-opacity:1;"/>
<path d="M15.3835 14.7206H18.0347V17.3719H15.3835V14.7206Z" fill="black" style="fill:black;fill-opacity:1;"/>
<path d="M12.7322 12.0694H15.3835V14.7206H12.7322V12.0694Z" fill="black" style="fill:black;fill-opacity:1;"/>
<path d="M18.0347 6.76685H20.686V9.4181H18.0347V6.76685Z" fill="black" style="fill:black;fill-opacity:1;"/>
<path d="M20.686 9.41815H23.3372V12.0694H20.686V9.41815Z" fill="black" style="fill:black;fill-opacity:1;"/>
<path d="M18.0347 35.9306H20.686V38.5819H18.0347V35.9306Z" fill="black" style="fill:black;fill-opacity:1;"/>
<path d="M15.3835 9.41815H18.0347V12.0694H15.3835V9.41815Z" fill="black" style="fill:black;fill-opacity:1;"/>
<path d="M15.3835 25.3256H18.0347V27.9769H15.3835V25.3256Z" fill="black" style="fill:black;fill-opacity:1;"/>
<path d="M20.686 30.6281H23.3372V33.2794H20.686V30.6281Z" fill="black" style="fill:black;fill-opacity:1;"/>
<path d="M10.081 30.6281H12.7322V33.2794H10.081V30.6281Z" fill="black" style="fill:black;fill-opacity:1;"/>
<path d="M23.3372 41.2332H25.9885V43.8844H23.3372V41.2332Z" fill="black" style="fill:black;fill-opacity:1;"/>
<path d="M20.686 43.8844H23.3372V46.5356H20.686V43.8844Z" fill="black" style="fill:black;fill-opacity:1;"/>
</svg>
