<svg width="48" height="49" viewBox="0 0 48 49" fill="none" xmlns="http://www.w3.org/2000/svg">
<path d="M16.8485 12.5081H31.2552V17.3081H16.8485V12.5081Z" fill="black" style="fill:black;fill-opacity:1;"/>
<path d="M16.8485 31.7081H31.2552V36.5081H16.8485V31.7081Z" fill="black" style="fill:black;fill-opacity:1;"/>
<path d="M36.0552 36.5115H40.8552V41.3115H36.0552V36.5115Z" fill="black" style="fill:black;fill-opacity:1;"/>
<path d="M36.0811 7.71149H40.8811V12.5115H36.0811V7.71149Z" fill="black" style="fill:black;fill-opacity:1;"/>
<path d="M7.25522 36.5081H12.0552V41.3081H7.25522V36.5081Z" fill="black" style="fill:black;fill-opacity:1;"/>
<path d="M7.28113 7.71149H12.0811V12.5115H7.28113V7.71149Z" fill="black" style="fill:black;fill-opacity:1;"/>
<path d="M2.48114 41.3115H7.28114V46.1115H2.48114V41.3115Z" fill="black" style="fill:black;fill-opacity:1;"/>
<path d="M40.8811 41.3115H45.6811V46.1115H40.8811V41.3115Z" fill="black" style="fill:black;fill-opacity:1;"/>
<path d="M2.48114 2.9115H7.28114V7.7115H2.48114V2.9115Z" fill="black" style="fill:black;fill-opacity:1;"/>
<path d="M40.8811 2.9115H45.6811V7.7115H40.8811V2.9115Z" fill="black" style="fill:black;fill-opacity:1;"/>
<path d="M21.6811 41.3115H26.4811V46.1115H21.6811V41.3115Z" fill="black" style="fill:black;fill-opacity:1;"/>
<path d="M2.48114 22.1115H7.28114V26.9115H2.48114V22.1115Z" fill="black" style="fill:black;fill-opacity:1;"/>
<path d="M40.8811 22.1115H45.6811V26.9115H40.8811V22.1115Z" fill="black" style="fill:black;fill-opacity:1;"/>
<path d="M21.6811 2.9115H26.4811V7.7115H21.6811V2.9115Z" fill="black" style="fill:black;fill-opacity:1;"/>
<path d="M16.8567 17.3081H12.0567C12.0613 22.1139 12.0522 26.9115 12.0567 31.7173H16.8567C16.8522 26.9115 16.8613 22.1139 16.8567 17.3081Z" fill="black" style="fill:black;fill-opacity:1;"/>
<path d="M36.0541 17.2988H31.2541C31.2587 22.1046 31.2495 26.9023 31.2541 31.7081H36.0541C36.0495 26.9023 36.0587 22.1046 36.0541 17.2988Z" fill="black" style="fill:black;fill-opacity:1;"/>
</svg>
