<svg width="100" height="100" viewBox="0 0 100 100" fill="none" xmlns="http://www.w3.org/2000/svg">
<path d="M86.0512 48.244L85.9612 46.248L85.9602 46.243L85.9582 46.201L85.8292 44.167L85.8192 44.134L85.8092 43.982L85.5142 41.994L85.5122 41.993V41.986L85.2162 39.958L85.1952 39.902L85.1842 39.785L84.7212 37.761L84.6962 37.702L84.6852 37.621L84.0992 35.64L84.0792 35.612L84.0662 35.542L83.3992 33.602L83.3782 33.572L83.3642 33.507L82.6172 31.607L82.5502 31.522L82.5172 31.389L81.5682 29.61L81.5222 29.561L81.5052 29.497L80.4372 27.757L80.4122 27.735L80.4042 27.707L79.3782 26.128L79.3282 26.083L79.2732 25.982L78.1272 24.522L78.0632 24.471L78.0072 24.384L76.6962 23.002L76.6592 22.976L76.6342 22.939L75.3642 21.717L75.2792 21.661L75.2272 21.597L73.8322 20.495L73.6882 20.415L73.6262 20.354L72.1062 19.454L72.0632 19.443L72.0292 19.412L70.4682 18.591L70.3912 18.572L70.3372 18.53L68.6912 17.831L68.5772 17.808L68.5212 17.768L66.7922 17.234L66.6742 17.217L66.5812 17.182L64.7722 16.854L64.7142 16.849L64.6892 16.841L62.8002 16.595L62.6112 16.583L62.5972 16.58L60.6342 16.538L60.5942 16.537L60.5522 16.538L58.5542 16.578L58.5402 16.581L58.3312 16.595L56.1782 16.878L56.1582 16.885L56.1022 16.89L53.9082 17.255L53.8672 17.27L53.7882 17.279L51.6362 17.765L51.6082 17.783L51.5192 17.795L49.2442 18.445L49.2222 18.461L49.1612 18.471L46.9292 19.203L46.8712 19.244L46.7532 19.269L44.6832 20.163L44.6592 20.184L44.6162 20.194L42.5452 21.168L42.5142 21.196L42.4652 21.208L40.5152 22.223L40.4352 22.298L40.3412 22.327L38.5492 23.505L38.5222 23.535L38.4912 23.545L36.8232 24.725L36.7902 24.761L36.7562 24.773L35.1672 25.994L35.1042 26.069L35.0002 26.138L33.6112 27.484L33.5862 27.519L33.5502 27.544L32.2422 28.933L32.2162 28.975L32.1812 29L30.9942 30.391L30.9452 30.473L30.8952 30.517L29.8702 31.951L29.8582 31.99L29.8182 32.027L28.8752 33.505L28.8592 33.558L28.8192 33.601L27.9582 35.162L27.9562 35.166L27.9532 35.169L27.1322 36.69L27.1122 36.77L27.0652 36.826L26.3702 38.431L26.3682 38.433L26.3672 38.435L25.6692 40.081L25.6562 40.147L25.6302 40.183L25.0552 41.83L25.0412 41.917L25.0162 41.953L24.5752 43.6L24.0822 45.324L24.0652 45.447L24.0352 45.531L23.7502 47.278L23.7492 47.28L23.4612 49.005L23.4492 49.149L23.4382 49.185L23.3162 50.988L23.3122 51.118L23.3102 52.915L23.3122 53.007L23.3942 54.8L23.3982 54.816L23.4062 54.943L23.6102 56.69L23.6142 56.705L23.6182 56.751L23.8632 58.455L23.8892 58.532L23.9052 58.672L24.3532 60.414L24.3732 60.446L24.3872 60.531L24.9152 62.193L24.9472 62.239L24.9662 62.338L25.6152 63.959L25.6562 64.008L25.6772 64.096L26.4062 65.595L26.4422 65.637L26.4602 65.697L27.2712 67.158L27.3632 67.256L27.3992 67.357L28.3732 68.702L28.4152 68.738L28.4572 68.809L29.5142 70.075L29.5402 70.093L29.5612 70.128L30.7002 71.395L30.7122 71.402L30.7222 71.418L31.8202 72.602L31.9362 72.687L32.0162 72.787L33.2832 73.813L33.2992 73.822L33.3092 73.834L34.5762 74.821L34.6282 74.839L34.6802 74.896L36.0332 75.802L36.0612 75.81L36.0862 75.837L37.3572 76.621L37.4212 76.64L37.4732 76.688L38.8292 77.391L38.9172 77.413L38.9762 77.46L40.2922 77.999L40.3732 78.016L40.4142 78.044L41.8142 78.501L41.8672 78.51L41.8902 78.525L43.2492 78.897L43.3132 78.907L43.3582 78.925L44.7592 79.217L44.9232 79.231L44.9812 79.25L46.4172 79.374L46.5872 79.381H47.9752H48.0332L49.5002 79.339L49.5312 79.332L49.8002 79.308L51.1762 79.063L51.2372 79.043L51.3382 79.029L52.7532 78.666L52.7722 78.651L52.8322 78.642L54.2072 78.236L54.2942 78.177L54.4732 78.139L55.6962 77.584H55.6982L57.0312 77.017L57.1282 76.939L57.2622 76.902L58.5172 76.172L58.5492 76.139L58.5902 76.127L59.8072 75.353L59.8462 75.313L59.8892 75.298L61.1052 74.443L61.1592 74.385L61.2602 74.324L62.3982 73.344L62.4202 73.315L62.4552 73.294L63.5132 72.313L63.5582 72.248L63.6202 72.204L64.6392 71.098L64.6492 71.08L64.6632 71.07L65.6422 69.962L65.6832 69.896L65.7272 69.859L66.6632 68.633L67.6022 67.4L67.6212 67.348L67.6802 67.293L68.5402 65.978V65.975L68.5422 65.972L69.3612 64.696L69.3832 64.624L69.4382 64.563L70.1782 63.165L70.1832 63.146L70.1922 63.135L70.8882 61.734L70.8932 61.716L70.9032 61.703L71.5602 60.303L71.5752 60.233L71.6062 60.193L72.1782 58.713L72.1792 58.711L72.7102 57.309L72.7252 57.223L72.7522 57.183L73.1892 55.697L73.6372 54.255L73.6462 54.185L73.6652 54.159L74.0302 52.675L74.0352 52.627L74.0462 52.597L74.3302 51.154V51.142L74.3332 51.132L74.5732 49.772L74.5792 49.692L74.5902 49.663L74.7452 48.265L74.7552 48.117L74.7582 48.105L74.7892 46.795V46.75V46.735L74.7782 45.388V45.385L74.7682 44.121L74.7672 44.112L74.7482 43.865L74.5732 42.652L74.5572 42.6L74.5442 42.495L74.2882 41.367L74.2662 41.331L74.2492 41.217L73.9122 40.132L73.8792 40.086L73.8592 39.984L73.4422 38.941L73.3902 38.875L73.3632 38.769L72.9052 37.887L72.8922 37.873L72.8862 37.852L72.3852 36.93L72.2852 36.826L72.2512 36.718L71.6272 35.876L71.5792 35.836L71.5332 35.761L70.8282 34.957L70.7922 34.931L70.7652 34.89L69.9792 34.085L69.9232 34.046L69.8852 33.995L69.0582 33.27L68.9912 33.23L68.9572 33.188L68.0882 32.541L68.0502 32.529L68.0122 32.487L67.0212 31.838L67.0042 31.833L66.9882 31.817L65.9982 31.208L65.9402 31.191L65.8942 31.148L64.7802 30.576L64.7612 30.571L64.7472 30.558L63.6322 30.027L63.5682 30.013L63.5302 29.983L62.3762 29.533L62.2952 29.518L62.2572 29.492L61.0192 29.126L60.9832 29.121L60.9682 29.111L59.6892 28.788L59.6042 28.776L59.5812 28.763L58.2242 28.524L58.1462 28.517L58.1342 28.51L56.7752 28.355L56.7022 28.351L56.6882 28.348L55.4182 28.275L55.3252 28.272H55.3132L53.9252 28.282L53.9222 28.283L53.7752 28.291L52.3962 28.424L52.3952 28.425L52.3752 28.426L51.1182 28.558L51.0912 28.572L50.9152 28.593L49.6612 28.884L49.6392 28.898L49.5672 28.909L48.4362 29.238L48.4152 29.251L48.3622 29.261L47.2722 29.628L47.2332 29.656L47.1582 29.671L46.1882 30.078L46.1592 30.101L46.1092 30.112L45.1792 30.556L45.0792 30.645L44.9652 30.68L44.1942 31.208L44.1582 31.247L44.1212 31.259L43.4322 31.787L43.3862 31.84L43.3102 31.89L42.7002 32.463L42.6872 32.484L42.6632 32.499L42.0922 33.072L42.0282 33.167L41.9582 33.225L41.4262 33.924L41.4102 33.971L41.3602 34.018L40.9082 34.719L40.9012 34.745L40.8772 34.768L40.4672 35.471L40.4502 35.536L40.4072 35.584L40.0382 36.37L40.0302 36.401L40.0152 36.419L39.6852 37.206L39.6682 37.286L39.6392 37.327L39.3652 38.189L39.0532 39.01L39.0242 39.166L38.9892 39.223L38.7912 40.127L38.5572 40.992L38.5342 41.163L38.5142 41.198L38.3912 42.177V42.178L38.2662 43.165L38.2582 43.281L38.2542 43.296L38.2132 44.361L38.2112 44.421L38.2092 45.482L38.2082 46.502V46.504L38.2092 46.572L38.2502 47.548L38.2602 47.588L38.2822 47.813L38.4722 48.719L38.5862 49.638L38.5992 49.662L38.6152 49.8L38.8152 50.687L38.8412 50.728L38.8602 50.849L39.1432 51.694L39.1452 51.698L39.1472 51.707L39.4302 52.553L39.4962 52.643L39.5342 52.796L39.9382 53.563L39.9692 53.595L39.9802 53.634L40.3852 54.32L40.4392 54.375L40.4592 54.435L40.9462 55.122L41.0012 55.171L41.0182 55.215L41.5782 55.896L42.0622 56.502L42.1062 56.536L42.1432 56.594L42.7542 57.247L42.7722 57.262L42.7882 57.282L43.3572 57.855L43.3822 57.871L43.3982 57.896L43.9692 58.428L44.1252 58.525L44.1992 58.604L44.8362 59.004L45.4352 59.402L45.5612 59.44L45.6682 59.53L46.3332 59.819L46.3932 59.831L46.4242 59.855L47.0092 60.062L47.1822 60.09L47.2382 60.124L47.8722 60.238L48.4332 60.354L48.7512 60.389H48.7562L49.4522 60.386H49.4562L49.7882 60.35L50.3192 60.232L50.9582 60.11L50.9912 60.092L51.1072 60.074L51.6702 59.913L51.7642 59.849L51.9452 59.804L52.5072 59.522L52.5752 59.46L52.6572 59.436L53.2042 59.083L53.7282 58.761L53.7712 58.714L53.8182 58.699L54.3852 58.294L54.4382 58.231L54.4852 58.215L55.0152 57.768L55.0932 57.666L55.1952 57.587L55.6422 57.057L56.0882 56.53L56.5772 55.959L56.5952 55.911L56.6572 55.856L57.0692 55.28L57.0822 55.241L57.1202 55.204L57.5302 54.543L57.5332 54.531L57.5432 54.522L57.9112 53.901L57.9252 53.847L57.9632 53.806L58.2882 53.142L58.3042 53.083L58.3332 53.046L58.6152 52.339L58.6362 52.242L58.6662 52.198L58.8542 51.535L59.0802 50.87L59.0992 50.762L59.1212 50.724L59.2792 50.017L59.2852 49.958L59.2952 49.944L59.4102 49.24L59.4172 49.167L59.4232 49.156L59.5002 48.414L59.5042 48.344L59.5072 48.334L59.5432 47.555L59.5442 47.485V47.475L59.5392 46.78V46.779L59.5362 46.698L59.4922 45.968L59.4862 45.955L59.4752 45.811L59.3572 45.087L59.2762 44.312L59.2712 44.299L59.2632 44.206L59.1382 43.48L59.1182 43.448L59.1002 43.318L58.9052 42.63L58.7422 41.958L58.6752 41.852L58.6222 41.632L58.3502 41.093L58.1762 40.553L58.0682 40.402L58.0072 40.198L57.6832 39.7L57.4292 39.198L57.2582 39.012L57.2052 38.874L56.7962 38.427L56.7692 38.408L56.7482 38.378L56.3372 37.97L56.2732 37.928L56.2302 37.875L55.7772 37.509L55.7362 37.495L55.6932 37.445L55.2782 37.16L55.1172 37.109L54.9792 37.003L54.4672 36.811L53.9812 36.614L53.8242 36.583L53.7632 36.545L53.2222 36.427L52.9162 36.393H52.9032L52.3742 36.397L51.8442 36.401H51.8432L51.3532 36.406L51.3452 36.407L51.1142 36.429L50.6332 36.513L50.6032 36.53L50.4832 36.547L50.0452 36.671L49.9962 36.705L49.8832 36.728L49.4872 36.892L49.4852 36.894L49.4802 36.895L49.0832 37.059L49.0802 37.06L49.0742 37.062L48.6752 37.226L48.6362 37.259L48.5692 37.274L48.1702 37.477L48.0792 37.56L47.9812 37.592L47.7372 37.769L47.4492 37.951L47.3532 38.052L47.2732 38.081L46.9982 38.321L46.7672 38.488L46.6652 38.606L46.5142 38.722L46.3142 38.961L46.0762 39.241L45.8292 39.529L45.8262 39.535L45.8182 39.542L45.6132 39.789L45.5572 39.942L45.4112 40.118L45.3332 40.298L45.2402 40.439L45.2322 40.464L45.2092 40.485L45.0852 40.697H45.0832L44.9652 40.898L44.8382 41.111L44.7912 41.288L44.7472 41.356L44.7272 41.418L44.6862 41.484L44.6452 41.657L44.6362 41.729L44.5292 42.095V42.136L44.5322 42.257L44.5342 42.259L44.5372 42.323L44.5432 42.4L44.5522 42.419L44.5702 42.593L44.5772 42.623L44.5852 42.635V42.649L44.6012 42.719L44.6082 42.734L44.6132 42.757L44.6222 42.785L44.7292 42.933L44.8552 43.144L44.8812 43.222L44.8932 43.231L44.9612 43.395L45.0182 43.418L45.0552 43.479L45.4462 43.62L45.5202 43.672L45.5402 43.678L45.6552 43.695L45.8932 43.78L46.1332 43.693L46.2542 43.676L46.2572 43.675L46.3302 43.624L46.7312 43.479L46.7682 43.417L46.8242 43.395L46.8932 43.23L46.9062 43.222L46.9292 43.15L47.0582 42.938L47.1622 42.794L47.1762 42.748L47.1772 42.739L47.1842 42.728L47.2012 42.643L47.2082 42.631L47.2172 42.584L47.2332 42.442L47.3042 42.323L47.4322 42.114L47.5402 41.934L47.6862 41.716L47.7212 41.601L47.8032 41.503L47.8502 41.393L47.9192 41.311L48.1592 41.032L48.4052 40.743L48.4092 40.737L48.4172 40.73L48.5082 40.62L48.6492 40.521L48.7092 40.452L48.7612 40.433L49.0002 40.224L49.2322 40.079L49.2662 40.042L49.3042 40.032L49.4972 39.894L49.7542 39.767L50.1102 39.628L50.1132 39.625H50.1202L50.5212 39.468L50.5222 39.467L50.5262 39.466L50.8542 39.34L51.1612 39.259L51.4692 39.21L51.8432 39.214L52.3722 39.218L52.7402 39.222L52.9982 39.282L53.3772 39.445L53.3942 39.448L53.4042 39.456L53.7802 39.604L54.0012 39.761L54.3542 40.054L54.6882 40.39L54.9372 40.667L55.1322 41.062L55.1882 41.123L55.2112 41.202L55.4672 41.604L55.6092 42.071L55.6642 42.149L55.6992 42.297L55.9432 42.791L56.0652 43.32L56.0762 43.336L56.0812 43.387L56.2602 44.038L56.3582 44.65L56.4342 45.421L56.4382 45.432L56.4432 45.512L56.5512 46.206L56.5822 46.824L56.5782 47.436L56.5382 48.128L56.4632 48.767L56.3522 49.368L56.2102 49.94L55.9842 50.558L55.9752 50.604L55.9622 50.626L55.7712 51.25L55.5302 51.819L55.2512 52.371L54.9222 52.914L54.5372 53.523L54.1922 54.005L53.7472 54.525V54.528L53.7442 54.531L53.2952 55.06V55.062L52.9272 55.497L52.5412 55.821L52.0662 56.16L51.5802 56.459L51.5652 56.475L51.5482 56.479L51.0532 56.795L50.6832 56.979L50.3192 57.083L49.7362 57.19L49.7272 57.195L49.6882 57.201L49.2872 57.284H48.9232L48.5132 57.194L48.4912 57.192L48.4852 57.188L47.9432 57.083L47.5402 56.938L47.0562 56.726L46.5572 56.392L46.5382 56.386L46.5212 56.37L45.9872 56.035L45.5442 55.628L45.0102 55.095L44.4592 54.507L44.0052 53.942L43.9952 53.933L43.9912 53.923L43.4592 53.277L43.0422 52.686L42.6882 52.08L42.3542 51.446L42.1092 50.708L42.1062 50.705V50.695L41.8482 49.924L41.6772 49.174L41.5632 48.27L41.5522 48.25L41.5402 48.136L41.3632 47.291L41.3282 46.47L41.3272 45.482L41.3252 44.451L41.3622 43.487L41.4732 42.579V42.578L41.5812 41.705L41.7972 40.911L41.8052 40.859L41.8142 40.842L41.9952 40.008L42.2812 39.258L42.2912 39.211L42.3052 39.189L42.5722 38.351L42.8582 37.674L43.1842 36.989L43.5402 36.386L43.9402 35.77L44.3742 35.207L44.8542 34.729L45.3932 34.229L45.9942 33.77L46.6362 33.328L47.4242 32.95L48.3132 32.581L49.3242 32.247L50.3942 31.946L51.5232 31.698L52.6802 31.595H52.6822L53.9952 31.491L55.2602 31.5L56.4272 31.583L57.6802 31.744L58.9222 31.976L60.0942 32.282L61.2282 32.627L62.2492 33.033L63.2682 33.526L64.2922 34.062L65.1872 34.628L66.0972 35.245L66.8472 35.831L67.5522 36.483L68.2362 37.224L68.8402 37.955L69.3252 38.661L69.7382 39.482L69.7392 39.483L70.1312 40.299L70.4712 41.221L70.7462 42.193L70.9502 43.204L71.0792 44.242L71.0692 45.386V45.387V45.388L71.0592 46.706L71.0132 47.904L70.8592 49.151L70.6252 50.411L70.3442 51.79L69.9942 53.161L69.5572 54.541L69.5552 54.553L69.5502 54.558L69.1152 56.005L68.6142 57.307V57.309L68.0612 58.724L67.4452 60.02L66.7702 61.369L66.0752 62.673L65.3132 63.85L64.4882 65.101L63.5932 66.264L62.6902 67.436L61.7682 68.466L60.8112 69.495L59.8272 70.397L58.7822 71.289L57.6742 72.063L56.5212 72.791L55.3892 73.448L54.1502 73.973L54.1322 73.989L54.0982 73.995L52.9712 74.506L51.7552 74.863L50.4212 75.204L49.2462 75.411L47.9482 75.447H46.6712L45.4412 75.345L44.2292 75.098L42.9882 74.762L41.7052 74.35L40.5412 73.883L39.3332 73.265L38.1602 72.551L36.8952 71.713L35.6982 70.792L34.5502 69.871L33.5502 68.801L32.4382 67.575L31.4412 66.39L30.5692 65.192L29.8362 63.877L29.1532 62.474L28.5522 60.97L28.0592 59.417L27.6502 57.811L27.4242 56.227L27.2292 54.558L27.1542 52.871L27.1522 51.185L27.2632 49.547L27.5322 47.927L27.5342 47.926L27.8022 46.273L28.2602 44.662L28.2622 44.652L28.2652 44.647L28.6972 43.035L29.2252 41.529L29.8862 39.979V39.978L30.5542 38.451L31.3212 37.035L32.1532 35.53L33.0352 34.153L33.9802 32.83L35.0792 31.538L36.3222 30.215L37.5992 28.974L39.0692 27.84L40.6842 26.697L42.3732 25.582L44.2052 24.627L46.2202 23.679L48.2012 22.824L50.3222 22.13L52.5292 21.5L54.5892 21.032L56.7062 20.678L58.7372 20.408L60.5942 20.371L62.4082 20.407L64.1292 20.631L65.7672 20.93L67.2762 21.398L68.7462 22.024L70.1832 22.78L71.5382 23.591L72.7482 24.557L73.9092 25.688L75.1162 26.98L76.1402 28.309L77.0842 29.801L78.0922 31.492L78.9382 33.138L79.5962 34.906L80.2042 36.788L80.7312 38.695L81.1372 40.607L81.3992 42.574L81.4002 42.578L81.4022 42.593L81.6642 44.5L81.7722 46.437L81.8422 48.335L81.7582 50.308L81.6292 52.284L81.4232 54.277L81.1452 56.167L80.6782 58.017L80.1462 59.933V59.935L79.5812 61.904L78.9172 63.705L78.2412 65.461L77.4272 67.145L77.4262 67.146L76.5932 68.829L75.6642 70.397L74.7152 71.922L73.6612 73.429L72.6472 74.784L71.5982 76.06L70.5242 77.278L69.3632 78.434L68.1332 79.619L66.8672 80.767L65.5732 81.793L64.2402 82.771L62.7832 83.795L61.3682 84.711L59.8622 85.56L58.2572 86.421L56.7142 87.152L55.0852 87.866H55.0832L53.5432 88.504L51.9842 88.958L51.9552 88.973L51.9192 88.979L50.3742 89.467L48.7382 89.809L48.7332 89.81L47.2292 90.109L45.6992 90.257L44.2402 90.37L42.7872 90.336L41.4102 90.229L40.0152 89.983L38.6562 89.636L37.2522 89.067L35.8092 88.427L34.4102 87.657L33.0652 86.79L31.7262 85.709L30.3692 84.396L29.0042 83.073L27.7262 81.459L26.4052 79.711L25.1752 77.792L24.0122 75.779L22.9282 73.575L21.9542 71.316L21.0982 68.979L20.3502 66.583L19.6912 64.185L19.2642 61.703L18.8662 59.131L18.6282 56.579L18.4672 54.067L18.4652 51.555L18.6212 49.009L18.8542 46.502L19.2422 44.012L19.7422 41.541L20.4362 39.188L21.2112 36.814L22.2112 34.502L23.3522 32.099L24.6212 29.787L26.0852 27.587L27.6682 25.461L29.4452 23.451L31.3322 21.523L33.2192 19.752L35.2712 18.166L37.4082 16.61L39.6212 15.291L41.8932 13.997L44.1302 12.956L46.3942 12.017L48.6512 11.236L50.8582 10.575L52.9662 10.114L55.0622 9.762L57.0922 9.528L58.9262 9.449L60.6662 9.448L62.3222 9.523L63.8362 9.711L65.2822 9.906L66.5512 10.161L67.7312 10.502L67.7472 10.504L67.7622 10.512L68.9192 10.82L69.8622 11.146L70.7292 11.46L71.4762 11.759L72.1862 12.073L72.2522 12.088L72.2902 12.119L72.8842 12.341L73.2222 12.495L73.6812 12.725L73.8022 12.753L73.8762 12.811L74.0222 12.868L74.1042 13.067L74.3942 13.186L74.4402 13.184L74.6882 13.156L75.1852 13.339L75.2622 13.353L75.3982 13.445L75.5032 13.466L75.5552 13.504L75.6932 13.55L75.7732 13.603L76.6402 13.778L77.3982 13.646L77.4182 13.637L77.4492 13.615L77.5062 13.603L77.5172 13.596L77.5412 13.591L78.2442 13.117L78.3852 12.911L78.4812 12.836L78.5252 12.7L78.7202 12.414L78.8932 11.553L78.7202 10.692L78.6182 10.544L78.6142 10.526L78.5792 10.483L78.5252 10.405L78.4812 10.27L78.3832 10.193L78.2442 9.988L78.0212 9.838L77.9452 9.751L77.8212 9.661L77.5632 9.528L77.5412 9.514L77.5302 9.513L77.4062 9.448L77.3482 9.398L77.1812 9.333L77.0562 9.249L76.8752 9.212L76.8412 9.199L76.8092 9.184L76.7912 9.18L76.6402 9.12L76.4902 9.091L76.3452 9.04L76.2872 8.989L75.9042 8.821L75.8352 8.806L75.7972 8.776L75.5672 8.692L75.1802 8.5L75.1472 8.493L75.1222 8.471L74.6602 8.262L74.5812 8.245L74.5352 8.209L73.9362 7.985L73.2552 7.684L73.2162 7.675L73.1922 7.656L72.3602 7.324L72.3282 7.318L72.3122 7.304L71.3962 6.972L71.3872 6.971L71.3802 6.965L70.3022 6.594L70.2332 6.582L70.1632 6.55L68.9692 6.232L67.7042 5.866L67.6062 5.852L67.5342 5.823L66.0912 5.536L66.0052 5.526L65.9662 5.513L64.4422 5.308H64.4372L64.4342 5.307L62.7882 5.1L62.6422 5.091L62.6192 5.086L60.8182 5.003L60.7162 5.001L58.8792 5H58.8782L58.7832 5.001L56.8282 5.081L56.8092 5.084L56.6602 5.094L54.5072 5.334L54.4752 5.344L54.3762 5.352L52.1842 5.716L52.1452 5.731L52.0612 5.739L49.8292 6.225L49.7532 6.256L49.6512 6.271L47.3372 6.959L47.2892 6.982L47.2332 6.992L44.8792 7.802L44.8332 7.837L44.7382 7.855L42.3832 8.83L42.3472 8.859L42.2792 8.875L39.9252 9.971L39.8542 10.034L39.7512 10.061L37.3952 11.402L37.3742 11.424L37.3452 11.43L35.0282 12.814L34.9772 12.866L34.8512 12.93L32.6122 14.56L32.5942 14.582L32.5542 14.603L30.3952 16.274L30.3352 16.347L30.2312 16.413L28.2312 18.29L28.2052 18.329L28.1662 18.355L26.2042 20.355L26.1722 20.404L26.1292 20.437L24.2472 22.561L24.1932 22.65L24.1342 22.701L22.4532 24.951L22.4232 25.011L22.3912 25.039L20.8322 27.374L20.8082 27.455L20.7402 27.525L19.3852 29.987L19.3702 30.048L19.3302 30.092L18.1392 32.594L18.1312 32.629L18.1112 32.651L17.0422 35.115L17.0182 35.232L16.9742 35.293L16.1522 37.8L16.1472 37.823L16.1372 37.848L15.3962 40.354L15.3822 40.453L15.3522 40.529L14.8172 43.157L14.8112 43.214L14.8012 43.244L14.3892 45.87L14.3822 45.968L14.3732 45.998L14.1262 48.62L14.1242 48.675L14.1202 48.686L13.9562 51.347L13.9512 51.484L13.9482 54.139V54.141L13.9532 54.285L14.1122 56.893L14.1162 56.903L14.1192 56.969L14.3602 59.614L14.3702 59.646L14.3792 59.765L14.7842 62.405L14.7902 62.419L14.7932 62.459L15.2392 65.059L15.2712 65.146L15.2912 65.289L15.9802 67.806L15.9992 67.846L16.0072 67.896L16.7782 70.371L16.8092 70.431L16.8182 70.495L17.7122 72.929L17.7462 72.973L17.7642 73.062L18.7792 75.414L18.8162 75.457L18.8332 75.528L19.9692 77.843L20.0242 77.904L20.0462 77.986L21.2652 80.099L21.3092 80.145L21.3242 80.198L22.6252 82.23L22.6742 82.277L22.7302 82.38L24.1132 84.213L24.1312 84.229L24.1472 84.257L25.5312 86.009L25.6342 86.094L25.7282 86.228L27.1942 87.659L28.6212 89.05L28.7122 89.111L28.7702 89.184L30.2832 90.415L30.4082 90.485L30.4692 90.551L31.9842 91.54L32.0532 91.56L32.1122 91.618L33.6722 92.485L33.7662 92.508L33.8312 92.564L35.3942 93.27L35.4262 93.277L35.4452 93.292L37.0522 93.955L37.1782 93.979L37.3392 94.054L38.9472 94.467L39.0372 94.479L39.0972 94.504L40.7032 94.793L40.8722 94.809L40.9222 94.823L42.4822 94.948L42.5962 94.954H42.6042L44.2402 94.997L44.3012 95L44.4852 94.99L46.0712 94.869L46.0802 94.866L46.1292 94.864L47.7922 94.702L47.8542 94.684L48.0382 94.665L49.6562 94.34L49.6662 94.335L49.6902 94.333L51.4322 93.968L51.5382 93.924L51.6742 93.902L53.2952 93.387H53.2962L54.9562 92.897L55.0932 92.833L55.2052 92.808L56.8642 92.118L56.8842 92.103L56.9222 92.095L58.5812 91.363L58.6082 91.341L58.6552 91.328L60.2752 90.559L60.3202 90.52L60.3902 90.501L62.0502 89.607L62.0712 89.588L62.1032 89.578L63.6832 88.687L63.7422 88.627L63.8132 88.605L65.3152 87.63L65.3392 87.604L65.3922 87.578L66.8962 86.521L66.9092 86.504L66.9432 86.487L68.3232 85.469L68.3482 85.441L68.3962 85.414L69.7782 84.312L69.8232 84.259L69.8972 84.212L71.2412 82.986L71.2632 82.958L71.2962 82.936L72.5582 81.709L72.5682 81.694L72.5852 81.682L73.8082 80.455L73.8522 80.389L73.9092 80.346L75.0512 79.031L75.0722 78.997L75.0972 78.979L76.1982 77.623L76.2282 77.571L76.2602 77.545L77.3202 76.104L77.3402 76.068L77.3592 76.05L78.4612 74.444L78.4762 74.395L78.5232 74.35L79.5002 72.743L79.5042 72.727L79.5192 72.711L80.4952 71.021L80.5172 70.944L80.5682 70.887L81.4232 69.112V69.109L81.4252 69.106L82.2792 67.293L82.3012 67.192L82.3462 67.134L83.0342 65.277L83.0362 65.269L83.0412 65.262L83.7272 63.323L83.7372 63.256L83.7712 63.185L84.3322 61.125L84.3342 61.122L84.8552 59.144L84.8582 59.122L84.8662 59.105L85.3452 57.086L85.3592 56.953L85.3832 56.885L85.6572 54.83L85.6612 54.771L85.6652 54.754L85.8582 52.661L85.8602 52.599L85.8632 52.588L85.9762 50.542L85.9782 50.506L85.9792 50.503L86.0522 48.417V48.342L86.0512 48.244Z" fill="black"/>
</svg>
