<svg width="100" height="100" viewBox="0 0 100 100" fill="none" xmlns="http://www.w3.org/2000/svg">
<path d="M18.315 37.788L18.316 37.796L18.431 37.965L18.46 38.011L18.462 38.014L18.466 38.019L18.646 38.296L18.727 38.38L18.885 38.489L18.976 38.593L19.063 38.653H19.065L19.067 38.655L19.111 38.676L19.25 38.744L19.259 38.751L19.266 38.752L19.497 38.866L19.523 38.87L19.545 38.881L19.617 38.9L19.82 38.97L19.964 38.993L20.088 39.036L20.289 39.068L20.509 39.086L20.522 39.09L20.798 39.093H20.809L21.195 39.097L21.663 39.101H21.676L21.934 39.081L22.448 39.004L22.458 39.001L22.486 38.997L23.081 38.897L23.811 38.793L23.857 38.777L23.954 38.766L24.571 38.628L25.392 38.531L25.403 38.528L25.438 38.525L26.392 38.393L26.414 38.386L26.469 38.38L27.504 38.193L27.527 38.186L27.572 38.181L28.64 37.949L29.756 37.77L29.785 37.759L29.847 37.753L30.992 37.512L30.995 37.511L31.003 37.51L32.116 37.274L33.286 37.062L33.331 37.045L33.409 37.034L34.552 36.747L35.602 36.508H35.604L36.579 36.299L37.585 36.11L37.597 36.105L37.624 36.103L38.546 35.914H38.55L38.559 35.913L39.313 35.758L40.07 35.624L40.099 35.614L40.156 35.607L40.847 35.453L41.425 35.35L41.496 35.323L41.603 35.308L42.028 35.187L42.377 35.148L42.464 35.121L42.646 35.098L42.979 35.009L43.356 34.938L43.394 34.924L43.461 34.916L43.779 34.839L43.799 34.829L43.832 34.826L43.984 34.784L44.089 34.774L44.151 34.757L44.315 34.738L44.418 34.714L44.489 34.707H44.49L44.677 34.691L44.759 34.668L44.8 34.675L45.02 34.717L45.239 34.675L45.635 34.611L45.678 34.591L45.748 34.576L45.764 34.566L45.782 34.563L45.935 34.46L46.172 34.339L46.266 34.249L46.352 34.193L46.366 34.181L46.382 34.157L46.405 34.143L46.465 34.054L46.6 33.922L46.689 33.757L46.715 33.732L46.731 33.704L46.773 33.613L46.829 33.533L46.841 33.479L46.875 33.43L46.879 33.405L46.885 33.393L46.907 33.33L46.911 33.3L46.952 33.21L47.031 32.646L46.909 31.952L46.882 31.906L46.875 31.863L46.762 31.698L46.727 31.637L46.72 31.604L46.689 31.572L46.569 31.362L46.498 31.276L46.455 31.243L46.442 31.224L46.391 31.188L46.307 31.103L46.167 30.862L46.006 30.671L45.949 30.629L45.904 30.56L45.725 30.376L45.596 30.228L45.491 30.076L45.283 29.759L45.214 29.696L45.137 29.563L44.885 29.262L44.726 29.044L44.555 28.702L44.43 28.52L44.355 28.38L44.029 27.945L44.003 27.924L43.98 27.881L43.783 27.638L43.641 27.339L43.545 27.193L43.474 27.048L43.192 26.636L42.945 26.164L42.941 26.159L42.94 26.153L42.645 25.588L42.612 25.542L42.587 25.485L42.257 24.925L41.965 24.394L41.949 24.376L41.928 24.326L41.688 23.921L41.536 23.468L41.443 23.292L41.419 23.187L41.122 22.594L41.118 22.588L41.116 22.581L40.83 22.01L40.829 22.008L40.544 21.413L40.543 21.412L40.274 20.819L40.258 20.796L40.253 20.775L40.021 20.289L39.83 19.786L39.773 19.687L39.757 19.618L39.486 19.054L39.453 19.002L39.444 18.968L39.279 18.655L39.2 18.374L39.062 18.075L39.029 17.948L38.814 17.543L38.612 17.114L38.61 17.11L38.609 17.106L38.458 16.786L38.322 16.42L38.255 16.3L38.168 16.095L38.064 15.916L37.986 15.711L37.882 15.53L37.771 15.299L37.647 15.112L37.578 14.993L37.536 14.877L37.535 14.873L37.533 14.871L37.531 14.866L37.225 14.31L37.208 14.295L37.199 14.277L37.056 14.099L37.005 14.019L36.946 13.915L36.833 13.688L36.67 13.452L36.594 13.315L36.573 13.289L36.5 13.164L36.38 12.911L36.31 12.838L36.306 12.829L36.303 12.824L36.3 12.819L36.265 12.76L36.171 12.648L36.012 12.418L35.88 12.307L35.83 12.207L35.661 12.039L35.655 12.03L35.639 12.017L35.638 12.016L35.603 11.948L35.528 11.843L35.488 11.807L35.474 11.777L35.428 11.705L35.344 11.535L35.313 11.503L35.292 11.465L35.102 11.284L35.037 11.218L35.024 11.2L34.991 11.17L34.973 11.142L34.926 10.915L34.466 10.233L33.785 9.77303L33.359 9.68803L33.368 9.63403L33.365 9.59403L33.39 9.52403L33.318 9.26103L33.284 9.22703L33.273 9.19503L33.221 9.16103L33.211 9.15203L33.203 9.13303L33.183 9.12503L33.131 9.07203L33.106 9.05803L33.012 9.03203L32.982 9.01403L32.906 8.99703L32.785 8.98303L32.409 9.12503L32.354 9.17403L32.349 9.18403L32.339 9.18703L32.204 9.31303L32.095 9.41003L32.072 9.46203L31.965 9.56503L31.831 9.78503L31.648 10.025L31.647 10.029L31.643 10.032L31.588 10.104L31.564 10.126L31.388 10.245L31.338 10.317L31.26 10.385L31.051 10.745L30.932 10.922L30.923 10.966L30.896 11.011L30.873 11.138L30.804 11.261L30.509 11.762L30.494 11.817L30.459 11.859L30.211 12.422L29.89 12.978L29.881 13.012L29.859 13.037L29.502 13.76L29.501 13.764L29.499 13.767L29.155 14.485L28.706 15.313L28.691 15.371L28.658 15.411L28.292 16.266L27.823 17.201L27.821 17.208L27.817 17.212L27.333 18.219L27.325 18.252L27.308 18.273L26.878 19.29L26.35 20.335L26.336 20.393L26.306 20.431L25.855 21.519L25.345 22.606L24.793 23.686L24.779 23.744L24.747 23.782L24.318 24.806L23.787 25.854L23.777 25.893L23.754 25.918L23.265 27.023L22.81 27.977L22.35 28.916L21.833 29.888L21.825 29.911L21.811 29.928L21.403 30.763V30.764L21.062 31.441L20.642 32.175L20.63 32.212L20.604 32.242L20.288 32.867L19.976 33.41L19.975 33.413L19.972 33.418L19.723 33.861L19.483 34.22L19.425 34.339L19.387 34.38L19.176 34.797L19.02 35.081L19.005 35.139L18.969 35.181L18.896 35.338L18.859 35.389L18.716 35.584L18.711 35.592L18.703 35.6L18.605 35.796L18.482 36.029L18.48 36.042L18.476 36.054L18.466 36.082L18.335 36.271L18.333 36.277L18.33 36.281L18.3 36.424L18.195 36.895L18.191 37.045L18.19 37.065L18.187 37.156L18.311 37.781L18.315 37.788Z" fill="black"/>
<path d="M44.0142 8.268L44.0252 8.346L44.0502 8.441L44.1042 8.563L44.1112 8.598L44.1262 8.621L44.1492 8.731L44.2282 8.912L44.2352 8.923L44.2372 8.934L44.2442 8.951L44.2922 9.095L44.3342 9.31L44.4432 9.57L44.4742 9.622L44.4832 9.662L44.5922 9.895L44.7152 10.203L44.7432 10.252L44.7522 10.291L44.9122 10.645V10.646L45.0892 11.059L45.2842 11.557L45.2902 11.567L45.2922 11.58L45.4862 12.068L45.6672 12.658L45.7322 12.79L45.7512 12.885L45.9762 13.385L46.1672 14.033L46.2472 14.202L46.2712 14.311L46.5732 14.953L46.7872 15.635L46.7932 15.648L46.7962 15.666L47.0692 16.504L47.1132 16.591L47.1282 16.662L47.4662 17.462L47.7642 18.24L47.7852 18.276L47.7922 18.309L48.1212 19.092L48.1882 19.201L48.2032 19.264L48.6002 19.995L48.9032 20.712L48.9322 20.759L48.9392 20.793L49.2982 21.55L49.3462 21.606L49.3682 21.684L49.7472 22.346L50.1182 23.015L50.4492 23.655L50.4932 23.703L50.5112 23.764L50.8992 24.411L50.9022 24.413L50.9032 24.418L51.2112 24.927L51.2252 24.942L51.2312 24.961L51.5442 25.462L51.7612 25.842L51.7892 25.87L51.7992 25.906L52.0202 26.259L52.0262 26.275L51.9612 26.743L51.9632 26.788L51.9642 26.841L51.9952 26.984L52.0432 27.335L52.0972 27.459L52.1322 27.638L52.1422 27.65L52.1452 27.667L52.2542 27.824L52.2722 27.865L52.3562 27.973L52.4192 28.062L52.5962 28.324L52.6042 28.329L52.6102 28.338L53.0552 28.634L53.2802 28.786L53.2862 28.787L53.2912 28.79L54.1202 28.955L54.1702 28.948L54.1762 28.949L54.2292 28.938L54.2892 28.93L54.4682 28.962L54.6572 29.018L54.8082 29.031L54.9462 29.038L55.5082 28.925L55.5432 28.9L55.5562 28.898L55.7592 28.761L55.6722 28.843L55.7022 28.824L55.8032 28.73L55.9852 28.607L56.0712 28.481L56.1522 28.406L56.1912 28.304L56.2762 28.178L56.3182 27.966L56.3712 27.827L56.3772 27.776L56.3332 27.895L56.3832 27.649L56.3812 27.638L56.3892 27.596L56.3452 27.45L56.4372 27.385L56.5772 27.211L56.6462 27.154L56.6872 27.103L56.7942 26.992L56.9142 26.812L57.0532 26.668L57.0582 26.664V26.663L57.1242 26.594L57.3912 26.32L57.6612 26.043L57.6902 25.999L57.7292 25.972L57.9382 25.734L58.1962 25.492L58.3082 25.335L58.4292 25.233L58.5982 25.009L58.8522 24.771L58.8732 24.74L58.9052 24.718L59.2872 24.331L59.3782 24.194L59.4742 24.114L59.7762 23.704L60.1092 23.293L60.4722 22.872L60.5102 22.809L60.5532 22.772L60.8482 22.381L61.2392 21.959L61.3312 21.814L61.4192 21.735L61.7712 21.224L62.1442 20.742L62.1552 20.721L62.1692 20.709L62.5302 20.218L62.9362 19.755L63.0022 19.646L63.0672 19.588L63.4272 19.074L63.8522 18.567H63.8532L64.3632 17.963L64.9332 17.302L64.9592 17.256L64.9902 17.23L65.4902 16.589L66.0292 15.938L66.6162 15.265L66.6172 15.263L66.6182 15.262L67.1502 14.646L67.7322 14.058L67.8182 13.932L67.9082 13.855L68.3352 13.281L68.8302 12.76L68.8702 12.697L68.9202 12.659L69.4032 12.07L69.8532 11.592V11.59H69.8542L70.3192 11.091L70.3702 11.011L70.4272 10.965L70.7712 10.521L71.0492 10.238L71.0712 10.206L71.1002 10.185L71.4282 9.822L71.4322 9.816L71.4362 9.813L71.7082 9.507L71.9562 9.229L72.1492 8.912L72.2352 8.819L72.3492 8.589L72.3552 8.561L72.3822 8.519L72.4352 8.398L72.4692 8.356L72.5292 8.198L72.6372 7.99L72.6592 7.858L72.7022 7.746L72.7292 7.598L72.7622 7.249L72.7612 7.219L72.7602 7.082L72.7482 7.034L72.6882 6.595L72.6612 6.499L72.6082 6.386L72.6022 6.354L72.5782 6.32L72.5602 6.28L72.5322 6.159L72.4682 6.081L72.4002 5.937L72.0272 5.541L72.0032 5.512L71.8592 5.4L71.5722 5.243L71.4362 5.151L71.3842 5.141L71.3262 5.108L70.7002 5.002H70.5942H70.4102L70.2202 5H70.2042L70.0542 5.006L69.7292 5.031L69.6622 5.05L69.4502 5.073L69.1832 5.134L68.9522 5.165L68.5472 5.187L67.9752 5.214L67.9522 5.218L67.8072 5.228L67.1842 5.309L67.1812 5.31L67.1692 5.311L66.3942 5.413L65.5492 5.49L65.5402 5.494L65.5062 5.495L64.5252 5.604L64.5082 5.608L64.4552 5.613L63.3562 5.769L62.2442 5.875L62.2292 5.88L62.1732 5.884L60.9202 6.043L59.6152 6.177L58.2572 6.286L58.2472 6.289L58.2082 6.291L56.9252 6.423L55.7152 6.475V6.476H55.7082L54.4952 6.53L53.4102 6.557L52.4152 6.558L51.5432 6.532L50.7662 6.461L50.0032 6.358H49.9962L49.9922 6.357L49.3672 6.279L48.8892 6.201L48.5342 6.083L48.4532 6.069L48.3772 6.038L47.8962 5.926L47.6752 5.9L47.6042 5.882L47.4522 5.871L47.4412 5.868L47.2262 5.771L47.2072 5.767L47.1882 5.754L46.4522 5.605H46.2902L46.1522 5.588L46.1032 5.576L45.9922 5.574H45.9552L45.4112 5.652L45.3422 5.675L45.2992 5.694L45.1102 5.729L45.0942 5.74L45.0772 5.743L44.8922 5.868L44.5242 6.102L44.5022 6.132L44.4722 6.151L44.3342 6.355L44.1102 6.657L44.0952 6.71L44.0652 6.757L44.0142 7.004L43.9222 7.345L43.9172 7.406L43.9132 7.496L43.9122 7.503L43.9092 7.615L43.9082 7.661L43.9902 8.214L44.0142 8.268Z" fill="black"/>
<path d="M64.7058 60.023L64.6908 59.95L64.5958 59.807L64.5818 59.779L64.5478 59.647L64.4688 59.559L64.4418 59.508L64.3938 59.439L64.2828 59.345L64.2118 59.237L64.1928 59.226L64.0528 59.094L63.8548 58.814L63.8328 58.794L63.7938 58.734L63.7708 58.715L63.7498 58.671L63.5368 58.373L63.5138 58.353L63.4888 58.309L63.2898 58.046L63.0738 57.7L63.0248 57.641L62.9978 57.584L62.7198 57.187L62.4928 56.736L62.4698 56.703L62.4518 56.655L62.1008 56.009L62.0898 55.994L62.0818 55.973L61.7108 55.31L61.3538 54.567L61.2998 54.488L61.2578 54.387L60.8618 53.713L60.5528 53.03L60.2358 52.242L60.1798 52.144L60.1628 52.077L59.7568 51.238L59.7548 51.234L59.7538 51.229L59.3828 50.459L59.3818 50.457L59.0028 49.646L58.9678 49.592L58.9358 49.513L58.5938 48.879L58.2728 48.189V48.187L57.9488 47.459L57.8948 47.374L57.8458 47.251L57.4678 46.575L57.4458 46.549L57.4318 46.516L57.1258 45.997L56.8288 45.408L56.8078 45.378L56.8038 45.356L56.4788 44.738L56.4728 44.729L56.4708 44.722L56.1998 44.206L55.9538 43.694L55.7668 43.204L55.6678 43.033L55.6438 42.938L55.4098 42.492L55.2638 42.118L55.2308 42.062L55.2208 42.014L55.0718 41.674L54.9588 41.355L54.8658 41.034L54.8278 40.955L54.6618 40.539L54.6178 40.459L54.5798 40.334L54.5788 40.329L54.5008 40.071L54.4778 40.021L54.4678 39.966L54.3108 39.682L54.2258 39.505L54.2168 39.466L54.2108 39.423L54.2058 39.41L54.1848 39.313L54.1088 39.135L54.0508 39.039L54.0428 39.017L54.0038 38.94L53.9638 38.851L53.9418 38.813L53.9068 38.732L53.8808 38.667L53.8718 38.61L53.7508 38.383L53.6478 37.877L53.3798 37.479L53.3808 37.46L53.3828 37.396L53.3818 37.371L53.3788 37.208L53.3968 37.084L53.4058 36.957L53.3918 36.791L53.3738 36.699L53.2138 36.427L53.1538 36.285L53.1218 36.271L53.1018 36.236L52.5918 36.052L52.2358 36.136L52.1528 36.177L52.0668 36.254L51.9888 36.281L51.8308 36.41L51.7658 36.489L51.4648 36.43L51.4078 36.439L51.3558 36.442H51.3338L51.3178 36.446L51.1948 36.452L51.1778 36.455L50.8228 36.559L50.5428 36.615L50.5358 36.619L50.4928 36.628L50.4508 36.655L50.4488 36.657L50.4248 36.673L50.4218 36.677L50.3368 36.701L49.9848 36.971L49.7438 37.133L49.7128 37.179L49.6648 37.215L49.3888 37.659L49.2398 37.881L49.2338 37.909L49.2168 37.936L49.0538 38.799L49.0958 39.021L49.0968 39.072V39.073V39.099L49.1098 39.162L49.2038 39.78L49.2698 39.918L49.2908 40.014L49.3118 40.044L49.3308 40.145L49.3368 40.151L49.3378 40.16L49.3818 40.225L49.3648 40.261V40.262L49.0288 41L49.0238 41.023L49.0108 41.038L48.6968 41.797L48.3028 42.643L48.2958 42.671L48.2808 42.689L47.8998 43.599L47.8908 43.64L47.8638 43.69L47.5278 44.666L47.1148 45.697L47.1128 45.7L46.7288 46.681L46.2648 47.719L46.2598 47.738L46.2498 47.753L45.7688 48.915L45.7658 48.935L45.7498 48.962L45.3418 50.063L44.8998 51.146L44.8978 51.162L44.8848 51.186L44.4778 52.286L44.0578 53.355L44.0568 53.359L43.6748 54.351L43.2538 55.395L43.2528 55.397L42.8798 56.336L42.4578 57.217L42.4458 57.269L42.3988 57.351L42.0898 58.179L41.7368 58.895L41.7288 58.93L41.6928 58.987L41.4088 59.674L41.1178 60.243L40.8128 60.816L40.8008 60.862L40.7498 60.945L40.5398 61.438L40.3298 61.88L40.3218 61.915L40.2908 61.967L40.1598 62.292L40.0158 62.556L39.9968 62.632L39.9088 62.787L39.8128 63.049L39.7488 63.197L39.7438 63.221L39.7248 63.255L39.7008 63.314L39.6668 63.385L39.5348 63.628L39.4418 63.762L39.4288 63.825L39.3878 63.899L39.3168 64.328L39.2978 64.384L39.2928 64.421L39.2918 64.434L39.2868 64.463L39.2838 64.575V64.582L39.2808 64.643L39.4038 65.311L39.4188 65.336L39.4248 65.362L39.5398 65.53L39.7468 65.87L39.7918 65.905L39.8208 65.949L39.9998 66.069L40.2588 66.274L40.3408 66.3L40.4078 66.345L40.6148 66.387L40.8958 66.477L40.9318 66.479L41.0528 66.487L41.0688 66.491L41.1558 66.494L41.1978 66.496L41.2008 66.497L41.3948 66.5H41.4288L41.6038 66.492L41.8718 66.468L42.1328 66.393L42.3938 66.345L42.5878 66.269L42.7778 66.209L43.1158 66.146L43.4758 66.012L43.6168 65.979L43.9818 65.797L44.3838 65.663L45.0358 65.482L45.0698 65.467L45.1118 65.46L45.7878 65.247L45.7918 65.243L45.8008 65.242L46.5978 64.989L47.4558 64.754L47.4628 64.749L47.4788 64.748L48.4288 64.48L48.4518 64.47L48.4828 64.465L49.2548 64.229L50.1238 64.059L50.1298 64.057L50.1458 64.054L51.0248 63.877L51.8448 63.748L51.8818 63.735L51.9588 63.727L52.7718 63.552L53.5468 63.429L54.2338 63.337L54.9068 63.315L54.9208 63.313L55.0548 63.307L55.8148 63.226H55.8188L55.8318 63.225L56.5018 63.151L57.0698 63.129L57.0778 63.126L57.1498 63.124L57.8038 63.072L57.8088 63.071L57.8328 63.069L58.3078 63.025L58.7018 63.03L59.2518 63.036H59.2718L59.4968 63.023L59.8068 62.989L60.1218 62.993L60.1528 62.995L60.2778 62.99L60.6038 62.971L60.6278 62.965L60.7538 62.955L60.9568 62.928L61.1918 62.933H61.2248L61.4308 62.922L61.5208 62.913L61.6198 62.915H61.6648L61.7448 62.91L61.7678 62.918L61.9378 62.947L62.0148 62.979L62.1208 63.004L62.6268 63.062L63.4988 62.886L64.2118 62.405L64.6908 61.693L64.8678 60.821L64.7558 60.118L64.7058 60.023Z" fill="black"/>
<path d="M68.317 39.364L68.391 39.448L68.782 39.729L68.798 39.736L68.805 39.744L69.121 39.963L69.334 40.158L69.529 40.281L69.627 40.388L70.014 40.639L70.315 40.875L70.409 40.929L70.454 40.979L70.813 41.217L71.225 41.53L71.265 41.552L71.284 41.575L71.738 41.896L72.188 42.22L72.557 42.516L72.577 42.527L72.589 42.541L73.06 42.903L73.081 42.914L73.091 42.927L73.509 43.234L73.52 43.239L73.525 43.245L73.91 43.522L74.302 43.802L74.314 43.81L74.321 43.816L74.563 43.983L74.753 44.158L74.954 44.284L75.054 44.389L75.206 44.486L75.34 44.607L75.371 44.627L75.781 44.91L75.809 44.935L75.925 45.004L75.985 45.073L76.186 45.214L76.33 45.286L76.494 45.396L76.668 45.48L76.672 45.482L76.867 45.575L77.014 45.659L77.195 45.783L77.241 45.792L77.289 45.82L78.066 45.958L78.287 45.947L78.441 45.934L78.543 45.903L78.789 45.872L78.851 45.855L79.011 45.785L79.148 45.759L79.232 45.703L79.236 45.702L79.249 45.693L79.306 45.656L79.522 45.561L79.693 45.403L79.836 45.31L79.915 45.198L80.045 45.08L80.193 44.809L80.312 44.642L80.333 44.553L80.389 44.454L80.462 44.021L80.51 43.819L80.515 43.704L80.518 43.612L80.503 43.525L80.527 43.312L80.516 43.088L80.501 42.936L80.489 42.803L80.48 42.578L80.472 42.298L80.464 41.927L80.458 41.55L80.452 41.062V41.06L80.445 40.484L80.439 39.827V39.826L80.432 39.086V39.083L80.425 38.287V38.285L80.415 37.379V37.377L80.405 36.442L80.42 35.441L80.489 34.302L80.493 34.183V34.164L80.482 32.948L80.497 31.642L80.54 30.277L80.608 28.925L80.73 27.467L80.732 27.448V27.444L80.823 26.104L80.967 24.788L80.971 24.696L80.975 24.681L81.036 23.408L81.122 22.188L81.123 22.164L81.125 22.161L81.184 21.062L81.27 20.091L81.361 19.151V19.15L81.425 18.478L81.517 17.859L81.529 17.679L81.533 17.659L81.543 17.384L81.592 17.23L81.626 17.016L81.669 16.875L81.704 16.517V16.514L81.731 16.443L81.841 15.845L81.837 15.729L81.83 15.624L81.669 15.006L81.624 14.945L81.609 14.896L81.52 14.804L81.304 14.51L81.108 14.385L81.021 14.296L80.929 14.24L80.85 14.219L80.784 14.177H80.783L80.725 14.138L80.072 14.006L79.421 14.138L79.402 14.149L79.383 14.153L79.219 14.272L78.89 14.496L78.865 14.531L78.832 14.555L78.793 14.599L78.7 14.696L78.598 14.856L78.51 14.937L78.46 15.015L78.378 15.11L78.197 15.297L78.103 15.44L78.017 15.518L77.906 15.682L77.688 15.861L77.561 16.021L77.416 16.142L77.058 16.615L77.057 16.62L77.053 16.622L76.735 17.051L76.278 17.467L76.254 17.499L76.218 17.523L75.615 18.131L75.588 18.171L75.553 18.197L74.946 18.883L74.234 19.543L74.208 19.58L74.17 19.606L73.464 20.339L72.651 21.156L71.773 21.956L71.772 21.957L71.771 21.959L70.847 22.803L69.866 23.676L69.83 23.724L69.778 23.76L68.887 24.681L67.941 25.524L67.914 25.562L67.874 25.589L66.922 26.544L66.032 27.409L65.108 28.285L65.095 28.306L65.071 28.32L64.278 29.121L64.261 29.147L64.236 29.165L63.566 29.896L62.901 30.521L62.88 30.55L62.851 30.571L62.334 31.1L62.296 31.159L62.248 31.195L61.806 31.734L61.45 32.134L61.405 32.209L61.357 32.249L61.11 32.59L60.902 32.825L60.8 32.995L60.729 33.065L60.56 33.362L60.526 33.488L60.459 33.575L60.38 33.79L60.373 33.823L60.361 33.84L60.318 33.974L60.251 34.402L60.344 34.906L60.364 34.959L60.396 34.998L60.403 35.011L60.415 35.066L60.435 35.097L60.444 35.134L60.47 35.179L60.542 35.255L60.69 35.474L60.848 35.58L60.854 35.589L60.864 35.592L60.936 35.666L61.002 35.685L61.098 35.749L61.597 35.85L62.096 35.749L62.117 35.734L62.14 35.729L62.185 35.707L62.26 35.644L62.29 35.636L62.696 35.909L62.707 35.912H62.708L62.765 35.924L62.791 35.943L62.854 36.004L62.858 36.007L62.863 36.01L63.035 36.099L63.388 36.279H63.389L63.446 36.328L63.483 36.341L63.504 36.359L63.608 36.386L63.851 36.472L63.855 36.476L63.863 36.478L64.011 36.53L64.096 36.571L64.098 36.572V36.574L64.226 36.684L64.422 36.761L64.609 36.869L64.719 36.889L64.873 36.963L65 37.034L65.069 37.111L65.426 37.323L65.518 37.396L65.564 37.406L65.631 37.446L65.898 37.555L65.9 37.556L65.954 37.615L66.233 37.813H66.234L66.408 37.935L66.555 38.066L66.601 38.094L66.627 38.129L66.934 38.378L67.1 38.473L67.174 38.549L67.411 38.694L67.596 38.845L67.758 38.938L67.831 39.012L68.015 39.125L68.185 39.281L68.317 39.364Z" fill="black"/>
<path d="M27.589 57.229L27.604 57.199L27.622 57.186L28.202 56.371L28.804 55.616L28.82 55.587L28.838 55.572L29.477 54.718L29.48 54.711L29.485 54.706L30.041 53.946L30.565 53.299L30.566 53.298L30.567 53.297L31.097 52.637L31.102 52.629L31.107 52.624L31.583 52.021L31.619 51.953L31.656 51.921L31.976 51.451L32.305 51.087L32.332 51.045L32.364 51.02L32.702 50.606L32.708 50.598L32.714 50.593L33.022 50.206L33.077 50.11L33.126 50.063L33.328 49.757L33.337 49.738L33.346 49.729L33.481 49.513L33.562 49.444L33.624 49.365L33.792 49.215L34.038 48.825L34.074 48.779V48.778L34.136 48.697V48.696L34.222 48.612L34.337 48.403L34.396 48.313L34.642 47.971L34.649 47.938L34.667 47.911L34.725 47.626L34.822 47.229L34.823 47.197L34.825 47.147V47.145L34.826 47.087V47.068L34.829 47.055L34.672 46.28L34.245 45.646L33.9 45.413L33.926 45.374L34.058 45.253L34.102 45.102L34.162 45.008L34.174 44.956L34.196 44.773L34.119 44.436L34.063 44.361L34.058 44.348L34.035 44.326L33.985 44.262L33.968 44.219L33.944 44.21L33.913 44.171L33.876 44.141L33.805 44.114L33.722 44.038L33.585 43.97L33.417 43.93L33.254 43.837L33.123 43.816L33.107 43.814L33.104 43.813L32.944 43.789L32.781 43.778L32.535 43.805L32.296 43.854L32.082 43.884L32.062 43.89L32.012 43.895L31.649 43.963L31.626 43.971L31.583 43.977L31.25 44.053L31.126 44.104L31.021 44.126L30.705 44.253L30.281 44.354L30.207 44.387L30.125 44.4L29.658 44.563L29.553 44.619L29.483 44.634L28.997 44.868L28.479 45.042L28.405 45.081L28.345 45.093L27.746 45.35L27.744 45.352L27.063 45.639L27.021 45.674L26.952 45.689L26.394 45.973L25.75 46.173L25.658 46.219L25.585 46.233L24.769 46.58L24.752 46.593L24.724 46.6L24.017 46.919L24.004 46.93L23.979 46.936L23.302 47.256L22.522 47.561L22.422 47.618L22.361 47.634L21.673 47.986L20.913 48.322L20.882 48.349L20.831 48.36L20.103 48.724L19.402 49.049L19.346 49.097L19.266 49.119L18.56 49.521L18.015 49.781L17.341 50.075V50.076H17.338L16.716 50.346L16.671 50.384L16.6 50.401L16.11 50.654L15.638 50.841L15.622 50.851L15.605 50.854L15.149 51.041L15.119 51.065L15.065 51.077L14.663 51.266L14.645 51.28L14.615 51.287L14.294 51.447L14.244 51.493L14.174 51.513L13.999 51.617L13.847 51.683L13.786 51.733L13.695 51.757L13.563 51.831L13.519 51.852L13.456 51.874L13.317 51.95L13.29 51.954L13.244 51.973L13.211 51.992L13.209 51.994H13.208L13.183 52L13.124 52.025L13.054 52.039L13.039 52.048L13.024 52.052L12.855 52.165L12.518 52.38L12.497 52.406L12.47 52.425L12.345 52.61L12.139 52.887L12.126 52.936L12.099 52.977L12.054 53.203L11.967 53.514L11.964 53.547L11.959 53.682L12.09 54.343L12.095 54.351L12.096 54.358L12.216 54.536L12.275 54.626L12.335 54.745L12.391 54.803L12.446 54.889L12.5 54.943L12.583 55.002L12.697 55.119L12.857 55.208L12.962 55.306L13.128 55.378L13.195 55.423L13.263 55.479L13.272 55.484L13.278 55.491L13.528 55.688L13.629 55.743L13.674 55.79L13.768 55.85L13.951 56.017L13.958 56.021L13.961 56.026L14.21 56.249L14.245 56.27L14.264 56.295L14.472 56.465L14.661 56.673L14.753 56.74L14.817 56.825L15.032 57.008L15.19 57.217L15.325 57.328L15.447 57.487L15.686 57.693L15.849 57.892L16.198 58.328L16.205 58.333L16.21 58.343L16.403 58.582L16.615 58.926L16.665 58.973L16.726 59.086L16.995 59.435L17.244 59.79L17.286 59.827L17.329 59.901L17.511 60.123L17.687 60.42L17.697 60.431L17.701 60.444L17.888 60.752L18.062 61.074L18.09 61.105L18.131 61.192L18.318 61.487L18.33 61.499L18.343 61.524L18.399 61.611L18.441 61.714L18.494 61.804L18.508 61.861L18.64 62.126L18.684 62.174L18.714 62.235L18.728 62.31L18.804 62.518L18.921 62.732L18.97 62.827L18.997 62.937L19.046 63.036L19.082 63.074L19.097 63.109L19.103 63.115L19.114 63.16L19.177 63.263L19.178 63.268L19.204 63.307L19.206 63.312L19.21 63.315L19.266 63.399L19.457 63.714L19.484 63.738L19.521 63.798L19.547 63.817L19.566 63.844L19.698 63.933L19.84 64.062L19.945 64.111L20.052 64.191L20.101 64.205L20.143 64.233L20.236 64.251L20.313 64.288L20.474 64.313L20.507 64.328L20.545 64.337L20.616 64.345L20.708 64.37H20.72L20.78 64.38L20.858 64.386L20.88 64.392L20.968 64.398L21.123 64.405L21.795 64.279L21.818 64.266L21.842 64.261L22.013 64.144L22.357 63.933L22.441 63.856L22.444 63.852L22.449 63.849L22.478 63.823L22.551 63.767H22.552L22.687 63.663L22.804 63.523L22.974 63.396L23.114 63.23L23.146 63.181L23.179 63.153L23.327 62.96L23.522 62.725L23.792 62.433L23.853 62.339L23.916 62.284L24.226 61.87L24.232 61.854L24.242 61.848L24.57 61.389L24.953 60.857L25.413 60.304L25.467 60.209L25.52 60.162L25.948 59.526L26.487 58.781L26.507 58.74L26.528 58.721L27.021 57.974L27.589 57.229Z" fill="black"/>
<path d="M88.0198 70.859L88.0208 70.858L87.8498 70.016L87.7918 69.931L87.7798 69.872L87.7738 69.865L87.7708 69.85L87.7308 69.773L87.3888 69.289L87.2898 69.209L87.2498 69.153L87.1628 69.076L87.1338 69.032L87.1028 69.006L87.0718 68.949L86.9678 68.812L86.8718 68.648L86.8218 68.601L86.7608 68.477L86.6188 68.279L86.4608 67.996L86.4298 67.954L86.4088 67.906L86.1428 67.474L86.1238 67.456L86.1038 67.412L85.9388 67.161L85.7948 66.833L85.7698 66.793L85.7628 66.762L85.4938 66.196L85.4748 66.168L85.4688 66.145L85.2288 65.665L85.0058 65.15L84.7778 64.524L84.7048 64.39L84.6848 64.301L84.3738 63.659L84.1548 63.091L83.9518 62.456L83.9248 62.402L83.9138 62.347L83.6438 61.619L83.6148 61.567L83.6048 61.521L83.3808 60.983L83.2198 60.455L83.1968 60.407L83.1878 60.354L82.9728 59.737L82.9618 59.717L82.9578 59.693L82.7708 59.183L82.6268 58.677L82.5438 58.499L82.5168 58.37L82.3868 58.079L82.3248 57.814L82.2738 57.695L82.2518 57.568L82.0928 57.115L82.0788 57.09L82.0728 57.062L81.9398 56.708L81.8788 56.507L81.8168 56.216L81.7288 55.995L81.6938 55.814L81.6208 55.638L81.5798 55.479L81.5228 55.352L81.5008 55.231L81.4668 55.144L81.4548 55.08L81.4448 55.057L81.4398 55.013L81.3938 54.808L81.3168 54.62L81.2848 54.456L81.2138 54.276L81.2018 54.256L81.1848 54.171L81.0778 54.006L81.0648 53.976L81.0248 53.759L80.9778 53.635L80.9688 53.62L80.9648 53.602L80.8988 53.496L80.8608 53.427L80.8478 53.359L80.6918 53.13L80.6378 53.032L80.6068 53.005L80.3548 52.63L79.6248 52.138L78.7328 51.958H78.7298H78.7268L78.5948 51.931H78.5718H78.5678H78.5648H78.5418H78.5408H78.4588H78.4548H78.4328L78.4088 51.932L78.3668 51.931L78.3478 51.927L78.0278 51.991L77.5808 52.067L77.5728 52.071L77.5368 52.09L77.4538 52.107L77.2548 52.241L76.9458 52.405L76.8228 52.532L76.7228 52.599L76.7188 52.605L76.7088 52.613L76.6498 52.7L76.5398 52.54L76.4528 52.481L76.4258 52.438L76.3548 52.415L76.1668 52.288L75.7088 52.196L75.2508 52.288L75.0748 52.406L75.0628 52.408L75.0468 52.424L74.9838 52.444L74.8728 52.531L74.7508 52.681L74.6178 52.795L74.5158 52.939L74.5068 52.967L74.4808 52.989L74.3408 53.21L74.1458 53.507L74.1238 53.582L74.0638 53.646L73.8978 53.977L73.6908 54.336L73.6708 54.416L73.5328 54.72L73.4118 55.188L73.1968 55.762L73.1958 55.767L73.1908 55.776L72.9578 56.434L72.6678 57.192L72.6588 57.242L72.6298 57.3L72.3648 58.188L72.3598 58.229L72.3438 58.264L72.1088 59.233L72.1068 59.249L72.1028 59.261L71.9128 60.128L71.6188 61.076L71.6148 61.104L71.6038 61.131L71.3248 62.176L71.0128 63.24L71.0078 63.287L70.9898 63.326L70.7688 64.284L70.5028 65.268L70.2198 66.228L70.2148 66.265L70.2008 66.298L69.9918 67.16L69.7348 67.908L69.7228 67.983L69.6908 68.057L69.4988 68.854L69.3148 69.568L69.1058 70.201L69.1028 70.222L69.0918 70.243L68.9178 70.831L68.9078 70.894L68.8878 70.944L68.7998 71.341L68.6808 71.652L68.6698 71.711L68.6358 71.778L68.5198 72.175V72.179L68.5158 72.184L68.4648 72.364L68.4118 72.484L68.4068 72.505L68.3938 72.525L68.2448 73.245V73.248L68.2288 73.328L68.1988 73.435L68.1858 73.538L68.1618 73.649L68.1608 73.709L68.1458 73.82L68.1298 73.89L68.1278 73.983L68.1268 74.029L68.1218 74.096L68.1198 74.174L68.1118 74.24L68.2168 74.856L68.2498 74.917L68.2608 74.971L68.3348 75.08L68.3488 75.138L68.4038 75.201L68.5028 75.385L68.5218 75.412L68.6028 75.477L68.6618 75.567L68.7338 75.616L68.7488 75.638L68.8298 75.694L68.9168 75.794L69.0018 75.855L69.1478 75.931L69.1728 75.95L69.2018 75.957L69.2158 75.964L69.3308 76.045L69.4088 76.063L69.5108 76.114L69.9298 76.181L70.0448 76.208L70.1578 76.211H70.1748H70.1758L70.3698 76.213L70.3848 76.215L70.6328 76.217L70.8818 76.218H70.8968L71.1328 76.204L71.5648 76.152L71.5698 76.149L71.5858 76.148L71.9898 76.098L71.9968 76.096L72.0208 76.093L72.5888 76.015L72.6228 76.003L72.7058 75.995L73.2238 75.893H73.2248L73.9568 75.761L74.0158 75.738L74.1118 75.726L74.7288 75.565L75.4408 75.448L75.4768 75.436L75.5498 75.428L76.3838 75.248H76.3878L77.2578 75.066L77.2738 75.06L77.3068 75.056L78.0938 74.877L78.1008 74.873L78.1138 74.872L79.0108 74.664L79.0538 74.646L79.1148 74.637L79.8468 74.43L80.5388 74.314L80.6028 74.293L80.7158 74.277L81.4448 74.093L81.4678 74.082L81.5008 74.078L82.1718 73.892L82.1758 73.891L82.6918 73.752L83.1538 73.664L83.6708 73.587L83.7718 73.552L83.9378 73.529L84.2408 73.441L84.5638 73.372L84.5938 73.36L84.6428 73.354L84.9238 73.283H84.9248L85.1578 73.231L85.1628 73.229L85.3378 73.191L85.4468 73.175L85.6088 73.118L85.6998 73.103L85.9088 73.134L86.5338 73.04L86.6498 72.985L86.7298 72.969L86.8448 72.893L87.0838 72.777L87.2918 72.591L87.4018 72.516L87.4448 72.452L87.5318 72.374L87.8498 71.857L87.8538 71.846V71.845L87.8728 71.801L87.8738 71.799L87.9648 71.347L87.9688 71.339L87.9788 71.28L88.0408 70.968L88.0198 70.859Z" fill="black"/>
<path d="M48.6611 74.543L48.6511 74.49L48.5621 74.358L48.4171 74.087L48.3131 73.988L48.2551 73.903L48.1421 73.827L47.9931 73.685L47.7891 73.589L47.6671 73.507L47.5761 73.487L47.4571 73.432L47.3931 73.415L47.3611 73.411L47.3341 73.399L47.2701 73.385L47.0621 73.36L46.9891 73.34L46.8461 73.329L46.7881 73.327L46.7821 73.326L46.5851 73.317L46.5081 73.316L46.2491 73.334L46.2331 73.335L46.1041 73.333H46.0681L45.6781 73.373L45.5681 73.395L45.4471 73.403L45.1761 73.398L44.7901 73.391H44.7851L44.3421 73.382L44.0181 73.377L43.6381 73.314L43.1041 73.222L42.9921 73.211L42.9571 73.201L42.4291 73.153L41.9571 73.043L41.9431 73.04L41.9321 73.036L41.2601 72.893L41.2101 72.887L41.1821 72.878L40.4991 72.763L40.4961 72.762L39.8341 72.651L39.1011 72.513L38.9671 72.5L38.9201 72.486L38.3771 72.436L37.7261 72.312L37.5981 72.3L37.5531 72.286L36.9391 72.228H36.9321L36.9291 72.226L36.2621 72.168L36.1891 72.165L36.1801 72.162L35.5151 72.134L35.4311 72.131H35.4301H35.0091L34.5581 72.085L34.3651 72.076H34.3631L33.9241 72.073L33.4821 72.072L33.0711 72.071L32.7731 72.07L32.4731 72.069L32.1461 72.065L31.9291 72.064L31.7151 72.063L31.5551 72.06L31.3931 72.058L31.2891 72.055L31.2111 72.054L31.1781 72.053H31.0191L30.9691 72.052H30.9621H30.8831L30.8321 72.051H30.8161L30.8101 72.049H30.7281L30.7271 72.048L30.6611 72.063L30.1571 72.134L30.1461 72.137L30.1411 72.14L30.1311 72.141L30.0961 72.152L30.0041 72.195L29.9351 72.209L29.9151 72.223L29.8641 72.233L29.7241 72.326L29.5031 72.431L29.3451 72.582L29.2251 72.663L29.1611 72.758L29.0461 72.867L28.8901 73.159L28.7951 73.3L28.7841 73.359L28.7461 73.43L28.6381 74.081L28.7461 74.733L28.7841 74.804L28.7951 74.863L28.8891 75.002L28.8641 75.101L28.8561 75.167L28.8471 75.183L28.7841 75.584L28.6701 76.003L28.6591 76.084L28.6471 76.105L28.5401 76.732L28.5381 76.762L28.5331 76.776L28.4591 77.347L28.3631 77.918L28.3561 78.003L28.3491 78.028L28.2861 78.77L28.2851 78.782V78.786L28.2381 79.435L28.1501 80.166L28.1491 80.18L28.1481 80.185L28.0651 80.986L28.0601 81.095L28.0571 81.104L28.0381 81.854L28.0001 82.607L27.9341 83.44L27.9321 83.479L27.9311 83.484L27.8921 84.285V84.296V84.297L27.8571 85.151L27.7991 85.941L27.7201 86.648L27.6061 87.427L27.6041 87.46L27.6011 87.473L27.5171 88.227L27.4351 88.866L27.3531 89.481L27.2761 90.015L27.1731 90.521L27.1551 90.705L27.1421 90.751L27.1251 91.04L27.0661 91.25L27.0631 91.271L27.0561 91.288L26.9781 91.596L26.8961 91.889L26.8741 92.046L26.8471 92.134L26.8341 92.246L26.8181 92.3L26.8111 92.345L26.7941 92.383L26.7751 92.467L26.7341 92.598L26.6921 92.871L26.6581 92.999L26.6541 93.074L26.6481 93.162L26.6461 93.229L26.6401 93.301L26.7601 93.93L26.7691 93.945L26.7721 93.96L26.8831 94.125L27.0911 94.453L27.1181 94.473L27.1361 94.499L27.3181 94.622L27.5871 94.823L27.6341 94.836L27.6751 94.862L27.8961 94.907L28.1991 94.99L28.2591 94.995L28.3901 95L29.0351 94.872L29.0431 94.868L29.0521 94.866L29.2251 94.75L29.5671 94.526L29.6511 94.445L29.6601 94.432L29.6751 94.421L29.7851 94.312L29.8801 94.171L29.9721 94.091L30.1141 93.889L30.2691 93.712L30.2891 93.68L30.3141 93.659L30.6641 93.228L31.0351 92.783L31.5451 92.247L31.5561 92.233L31.5681 92.223L32.1221 91.62L32.7991 90.944L33.5591 90.213L33.6091 90.14L33.6741 90.091L34.4011 89.234L35.2041 88.434L36.0821 87.639L36.0911 87.624L36.1081 87.614L37.1221 86.656L38.0471 85.789L38.9611 84.96L39.8591 84.174L39.8911 84.13L39.9401 84.098L40.7621 83.28L41.6051 82.591L41.6191 82.572L41.6441 82.557L42.4671 81.845L42.4741 81.836L42.4851 81.829L43.2261 81.171L43.2541 81.132L43.2991 81.102L43.9601 80.441L44.5921 79.862L44.6151 79.831L44.6471 79.81L45.1001 79.356L45.5751 78.979L45.6851 78.843L45.8291 78.729L46.1401 78.354L46.3541 78.157L46.6861 77.878L46.7051 77.854L46.7361 77.834L47.0371 77.562L47.0591 77.531L47.0911 77.51L47.2841 77.318L47.2861 77.317L47.4141 77.19L47.4181 77.189L47.5491 77.116L47.5681 77.099L47.5951 77.09L47.9001 76.776L47.9931 76.733L48.1421 76.591L48.2551 76.516L48.3131 76.43L48.4171 76.331L48.5621 76.059L48.6511 75.928L48.6611 75.875L48.6951 75.812L48.7961 75.208L48.6951 74.606L48.6611 74.543Z" fill="black"/>
</svg>
