<svg width="90" height="90" viewBox="0 0 90 90" fill="none" xmlns="http://www.w3.org/2000/svg">
<g clip-path="url(#clip0_87_1196)">
<g clip-path="url(#clip1_87_1196)">
<path d="M49.3221 14.0479C49.1338 13.7285 48.8663 13.464 48.5459 13.2803C48.2255 13.0966 47.8632 13 47.4946 13C47.126 13 46.7637 13.0966 46.4433 13.2803C46.123 13.4641 45.8555 13.7286 45.6672 14.0479L6.27203 82.8089C6.09155 83.1329 5.99782 83.4987 6.00004 83.8702C6.00226 84.2418 6.10035 84.6064 6.28469 84.9282C6.46902 85.25 6.73325 85.5179 7.05142 85.7056C7.3696 85.8934 7.73076 85.9945 8.09945 85.9991C18.6052 85.9939 75.1599 86.0028 86.8898 85.9991C87.2603 85.999 87.6242 85.9007 87.945 85.714C88.2658 85.5273 88.5321 85.2589 88.7173 84.9356C88.9025 84.6123 89 84.2455 89 83.8722C89 83.4989 88.9025 83.1322 88.7172 82.8089L49.3221 14.0479ZM47.4946 19.3648L75.1117 67.5671H63.7383L41.8117 29.2836L47.4946 19.3648ZM58.8653 67.5672H36.1262L47.496 47.7166L58.8653 67.5672ZM23.1322 81.7456H11.7543L39.3748 33.537L45.0597 43.4626L23.1322 81.7456ZM28.0051 81.7456L33.6898 71.8207C43.5472 71.8208 67.998 71.8206 77.5486 71.8207L83.235 81.7456H28.0051Z" fill="black"/>
</g>
</g>
<defs>
<clipPath id="clip0_87_1196">
<rect width="88" height="88" fill="white" transform="translate(0 2)"/>
</clipPath>
<clipPath id="clip1_87_1196">
<rect width="82" height="82" fill="white" transform="translate(6 9)"/>
</clipPath>
</defs>
</svg>
