<svg width="100" height="100" viewBox="0 0 100 100" fill="none" xmlns="http://www.w3.org/2000/svg">
<path d="M88.7058 78.845L88.6068 78.562V78.463V78.363L88.2268 77.408L88.1278 77.21L87.9288 76.93L87.8448 76.732L87.5498 76.349L87.3648 76.054L87.0698 75.674L86.9708 75.493L86.8858 75.379L86.4908 74.898L86.4068 74.816L86.2958 74.717L85.9158 74.337L85.4348 73.747L85.3378 73.659L85.2528 73.56L84.5758 72.885L83.9008 72.112L83.2238 71.347L82.4618 70.292L81.6878 69.237L80.8298 67.883V67.8V67.687L79.8568 66.25L78.8998 64.614L77.8428 62.883L76.7708 61.248L75.8138 59.435V59.319V59.237L74.6578 57.205L73.6158 55.193L72.4618 52.883L71.3068 50.472L70.2378 48.16L69.1928 45.768L68.1248 43.458V43.374L67.0668 41.248L66.1098 39.231L65.2508 37.12L65.1358 37.021V36.922L64.1778 34.893L63.3198 32.878L62.5458 30.863L62.4618 30.665V30.583L61.5888 28.75L60.8258 26.919L60.7158 26.82V26.72L60.0528 25.087L59.3758 23.452L58.7978 21.916V21.817V21.735L58.2218 20.284L57.7428 19.128L57.3628 17.876V17.789V17.678L56.8838 16.522L56.4878 15.564L56.1078 14.606L55.8098 13.733V13.649V13.552L55.5298 12.776L55.3318 12.299L55.2498 11.915L55.1358 11.438V11.341V11.24L55.0518 10.858L54.9518 10.662L54.7698 10.185V10.098L54.6568 9.9V9.803V9.702L54.5718 9.424L54.4728 9.129L54.0928 8.169V8.071L53.9798 7.593L53.8948 7.491V7.394V7.31L53.4158 6.718L53.1358 6.34L53.0228 6.238L52.9378 6.154L52.1648 5.677L51.7848 5.382L51.6848 5.28L49.7548 5L48.7968 5.084L48.6978 5.183H48.5978L48.5128 5.28H48.3178H48.2178H48.1198L47.8398 5.478L47.6408 5.56L47.4458 5.676L47.1628 5.956L46.9668 6.041L46.8828 6.152L46.6848 6.236L46.5878 6.434L46.4878 6.531L46.4028 6.715L46.1078 7.01L46.0058 7.31L45.9238 7.394V7.491L45.8108 7.593V7.675L45.7258 7.873L45.6268 8.449V8.55V8.647V8.942V9.029V9.128V9.225L45.8108 10.282V10.381V10.466V10.761V10.858V10.957L45.9238 11.056V11.24L46.1078 11.733L46.2048 12.014L46.4028 12.396V12.594V12.691V12.776L46.2898 13.071L45.7268 14.031L45.1338 15.187L44.4738 16.522V16.638V16.72L43.8958 18.157L43.1338 19.806L42.2608 21.537V21.622L41.3878 23.651L40.4308 25.762V25.861L39.4728 28.272L38.4158 30.763L37.2618 33.455L36.0068 36.159L34.8508 38.836L33.6978 41.542L32.6408 44.135L31.5838 46.725L30.5258 49.315L29.4688 51.726L28.5108 54.036L27.6378 56.247L26.7648 58.46L25.9188 60.673L25.0458 62.699L24.1728 64.714V64.813L23.4128 66.731L22.6368 68.56L21.8608 70.477L21.2008 72.113L20.4278 73.856L19.7498 75.494L19.0748 76.931L18.4128 78.281V78.365L18.3128 78.465L17.8338 79.72L17.2558 80.777L16.6778 81.835L16.1988 82.597L15.7198 83.368L15.6208 83.566L15.5208 83.752L15.1288 84.523L14.8458 85.004L14.4658 85.58L14.3668 85.679L14.2818 85.779L13.9868 86.258L13.6898 86.65L13.6068 86.737L13.4938 86.834L13.2108 87.313L13.1288 87.412V87.497L12.8308 87.99L12.7318 88.285L12.6498 88.47L12.5338 88.654L12.4518 88.765L12.3518 88.852V88.949L12.2518 89.147L12.0538 89.329L11.9718 89.527L11.8588 89.626L11.6748 89.921L11.5748 90.106V90.29L11.4928 90.485L11.3788 90.585V90.685V90.784L11.2948 91.161L11.1948 91.742V91.839L11.4928 93.077L11.6748 93.473L12.1548 94.15L12.5328 94.431L13.1278 94.825L13.6068 94.91L14.0878 95H14.2828H14.3678H14.4668H14.5668H14.8468H15.0428L15.9158 94.903H16.0008H16.3948H16.4818H16.6778L16.9608 94.818H17.3548H17.4398H17.7348L18.2138 94.705L18.7068 94.623L18.8908 94.523H19.1858L19.6648 94.424L20.2278 94.336H20.3418H20.5238L21.4958 94.143H21.5808H21.6798L22.6378 93.945L23.7938 93.747H23.8928L25.3298 93.467L26.8778 93.187L28.5128 92.892L30.4288 92.509H30.5278H30.6278L32.4588 92.03L34.4728 91.735H34.5728H34.7688L36.8818 91.352L39.0798 91.072H39.1908H39.2758L41.5878 90.579L43.8978 90.284L46.4058 89.999H46.4908L48.9968 89.621L51.4898 89.324L53.8028 89.041L56.2108 88.761H56.2958H56.4918L58.7048 88.366L60.8298 88.17H61.0148L63.0298 87.89L65.0578 87.605L66.8888 87.31L68.7048 87.015L70.3398 86.83L71.9888 86.646H72.0738H72.2688L73.9038 86.351L75.2568 86.056L76.4968 85.858H76.5968L77.7498 85.676L78.8068 85.489L79.6798 85.296H79.7648L80.6378 85.098H80.7228L81.3998 85.001L82.0698 84.9L82.5488 84.718L82.9438 84.619H83.0288L83.2268 84.519L83.6208 84.42L83.9858 84.338L84.3818 84.224H84.4798H84.5788H84.6638H84.8618H84.9588H85.0578H85.2558H85.3408H85.5368L86.0158 84.043H86.1158L86.4948 83.856L86.5948 83.747L86.9748 83.462L87.1728 83.363L87.2578 83.263L87.3678 83.181L87.4528 83.067L87.7508 82.787L88.2298 82.306L88.3268 82.026L88.4118 81.831L88.5248 81.548V81.437L88.7088 81.069V80.874V80.676L88.8058 79.803L88.7058 78.845ZM78.1258 78.168L77.0688 78.363L75.9148 78.646L74.7728 78.844L73.4208 79.139L71.8708 79.434L70.2378 79.619H70.1508L68.5158 79.916L66.6868 80.194H66.5898L64.7738 80.477L62.7448 80.774L60.8268 81.069L58.6018 81.254H58.5168H58.3188L56.1088 81.633L53.7988 81.931H53.6988L51.3048 82.226L48.7958 82.594H48.7118L46.2028 82.986L43.6948 83.366L41.3008 83.75H41.2008H41.1038L38.7908 84.227L36.5808 84.622H36.4808H36.3998L34.2858 85.017L32.1598 85.299H32.0608H31.8628L30.0468 85.778L28.2158 86.155L26.4828 86.45H26.3978H26.2868L24.7658 86.832L23.4138 87.13L22.2578 87.312H22.1588H22.0588L21.2998 87.508V87.408V87.31L21.3818 87.128L21.6788 86.448L22.1578 85.776L22.2568 85.578L22.3568 85.49L22.8358 84.62L23.4138 83.563L23.9888 82.307V82.225L24.0888 82.109L24.5678 80.874L25.1308 79.619L25.8088 78.085L26.4838 76.45L27.2598 74.717L27.9218 72.983L28.7098 71.07L29.4698 69.137V69.04L30.1478 67.125L31.0058 65.094L31.8638 62.983L32.7388 60.77L33.6118 58.559L34.4698 56.349L35.4278 54.036L36.4008 51.541L37.3578 48.95L38.4158 46.346L39.4728 43.654L40.5278 40.953L41.5868 38.355L42.7408 35.666L43.7978 32.977L44.8548 30.469L45.8128 28.074L46.7698 25.96V25.861L47.4478 23.849L48.2208 22.103L48.9948 20.381L49.0788 20.284L49.4738 19.805L49.8558 20.86L50.2358 22.103L50.3468 22.214V22.297L50.8278 23.651L51.3908 25.003L51.9838 26.524L52.6438 28.273L52.7438 28.358V28.455L53.4188 30.102L54.1808 31.921L54.2798 32.02V32.102L55.0538 33.935L55.8128 35.964L55.9288 36.048V36.159L56.8868 38.273V38.355L57.8418 40.387L58.7148 42.597L58.7998 42.781V42.88L59.8568 45.006L60.9168 47.12L61.9848 49.316L63.0278 51.74L64.0988 54.138L65.2538 56.531L66.4078 58.841V58.954V59.039L67.5638 61.152L67.6478 61.249V61.351L68.8008 63.377L69.8588 65.293L69.9578 65.378L70.0578 65.491L71.1998 67.304L72.2678 69.04L73.3258 70.673L73.4248 70.773V70.872L74.4798 72.307L75.4398 73.748L75.5388 73.856L75.6218 73.941L76.4128 75.199L77.2708 76.253L77.3698 76.35L77.4548 76.452L78.2278 77.308L78.8058 78.086L78.1258 78.168Z" fill="black"/>
<path d="M60.66 71.829L60.546 71.633L60.462 71.348L60.362 71.251V71.154L60.18 70.673L60.067 70.477V70.39L59.982 70.197L59.787 69.716L59.685 69.617V69.517L59.389 68.842L59.109 68.165L58.826 67.207L58.727 67.125V67.009L58.347 66.051L57.952 64.813V64.714L57.473 63.362L56.994 62.024L56.515 60.586L56.121 59.038L55.756 57.403V57.305L55.263 55.77L54.88 54.234V54.137V54.035L54.401 52.584L54.121 51.147V51.063V50.949L53.627 49.43L53.245 47.979L52.851 46.639L52.57 45.483L52.287 44.332V44.23V44.133L52.092 43.258L51.894 42.397L51.809 42.215V42.019L51.614 41.342L51.514 40.764V40.664V40.466L51.33 39.806V39.707V39.61L51.219 39.313V39.134V39.035V38.752L51.134 38.355L51.035 38.077V37.879L50.839 37.204V37.119L50.74 36.921L50.357 36.246V36.159V36.048L50.26 35.964L50.062 35.667L49.98 35.568L49.499 35.188L49.385 35.091L49.303 35.004H49.204H49.104H49.02L48.906 34.893H48.824L48.626 34.808L47.273 34.709H46.794H46.709L46.414 34.808L46.119 34.893L45.935 35.004L45.751 35.091L45.553 35.289L45.357 35.371L45.272 35.482L45.074 35.567L44.876 35.864L44.681 36.048V36.246L44.596 36.44L44.485 36.822L44.4 37.119V37.204V37.499V37.596V37.683L44.598 38.554V38.752L44.683 38.95L44.782 39.034V39.133V39.23L44.879 39.429L44.966 39.796V39.907V39.992V40.289V40.386L44.599 41.247V41.344L44.488 41.441L44.12 42.5L43.725 43.653V43.738V43.849L43.442 44.893L42.963 46.161V46.243V46.345L42.568 47.796L42.288 49.233L41.893 50.67L41.513 52.22L41.131 53.741L40.737 55.374L40.357 56.924L39.977 58.46L39.581 59.995L39.201 61.432L38.821 62.7L38.426 63.943L37.947 65.094L37.567 66.25L37.185 67.304L36.79 68.282L36.51 69.137L36.23 69.8L35.836 70.477V70.577L35.751 70.773L35.456 71.435L35.272 71.83L34.877 72.408V72.505L34.679 72.887L34.483 73.366L34.299 73.857L34.115 74.224L34.004 74.52L33.82 74.817L33.72 75.001L33.621 75.099V75.201L33.326 75.677L32.961 76.453V76.538V76.646V76.734L32.85 76.93V77.012L32.766 77.128L32.666 77.788V77.887V77.984V78.086L32.85 79.141L33.443 80.002L34.301 80.577L35.358 80.775H35.458L35.937 80.676L36.416 80.576H36.515L36.91 80.477L37.19 80.392L37.388 80.281H37.473L37.867 80.194L38.148 80.097L38.43 80L38.909 79.802L39.4 79.618L40.062 79.433L40.838 79.235L40.938 79.138H41.133L41.994 78.843L42.767 78.645L43.825 78.461L44.966 78.277H45.077L46.122 77.981L47.275 77.786L48.429 77.602L49.386 77.406L50.359 77.304H50.461H50.657L51.515 77.125L52.373 77.009L53.149 76.927H53.725H53.827H54.122L54.685 76.827H55.079H55.164H55.36L55.642 76.728H55.838L56.515 76.64L56.895 76.532H56.995H57.19H57.388H57.573L58.431 76.447L58.629 76.345H58.726H58.825L58.91 76.248H59.024L59.205 76.05H59.307L59.503 75.968L59.588 75.852L59.685 75.77L59.787 75.67L59.884 75.571L59.983 75.489L60.068 75.375L60.181 75.291L60.363 75.093L60.463 74.894L60.547 74.812V74.713V74.515L60.661 74.219V74.135L60.745 73.656L60.842 73.458V73.263V73.178V72.98L60.745 72.11L60.66 71.829ZM54.488 71.729L53.925 71.829H53.332H53.15L52.289 71.928L51.332 72.028H51.221H51.037L50.178 72.223L49.206 72.306H49.106H48.908L47.866 72.504L46.712 72.702L45.557 72.886H45.46L44.4 73.181L43.247 73.365L42.091 73.561H41.994H41.81L40.937 73.856H40.837H40.738L40.837 73.66V73.561L40.937 73.365L41.217 72.703L41.514 72.113V72.028L41.612 71.928L41.994 71.07V70.957V70.872L42.289 69.999L42.669 69.041L42.964 67.984L43.331 66.927L43.726 65.672V65.575V65.49L44.121 64.136L44.488 62.786L44.88 61.248L45.163 59.713L45.558 58.162L45.94 56.53L46.32 54.897L46.714 53.374L47.094 51.826L47.474 50.287L48.151 49.613L48.251 49.992L48.631 51.443L49.026 52.882L49.308 54.33V54.415V54.613L49.787 56.164L50.181 57.685V57.796V57.881L50.66 59.434L51.139 61.066L51.618 62.587V62.698L52.097 64.219L52.576 65.67V65.769L53.055 67.123L53.449 68.361V68.458V68.558L53.832 69.515L54.127 70.475L54.209 70.586V70.671L54.492 71.433L54.605 71.728H54.488V71.729Z" fill="black"/>
</svg>
