<svg width="90" height="90" viewBox="0 0 90 90" fill="none" xmlns="http://www.w3.org/2000/svg">
<path d="M65.25 25.1484H61.8516V21.75C61.8597 19.3384 61.3894 16.9492 60.4679 14.7207C59.5464 12.4921 58.192 10.4685 56.4831 8.7669C45.1498 -2.74429 25.0406 5.5636 25.1486 21.7503L25.1484 25.1484H21.75C16.8829 25.1484 12.2151 27.0819 8.77349 30.5235C5.3319 33.9651 3.39844 38.6329 3.39844 43.5C3.39844 48.3671 5.3319 53.0349 8.77349 56.4765C12.2151 59.9181 16.8829 61.8516 21.75 61.8516H25.1484V65.25C25.1484 70.1171 27.0819 74.7849 30.5235 78.2265C33.9651 81.6681 38.6329 83.6016 43.5 83.6016C48.3671 83.6016 53.0349 81.6681 56.4765 78.2265C59.9181 74.7849 61.8516 70.1171 61.8516 65.25V61.8516H65.25C70.1171 61.8516 74.7849 59.9181 78.2265 56.4765C81.6681 53.0349 83.6016 48.3671 83.6016 43.5C83.6016 38.6329 81.6681 33.9651 78.2265 30.5235C74.7849 27.0819 70.1171 25.1484 65.25 25.1484ZM29.2266 21.75C29.2221 19.8727 29.588 18.013 30.3033 16.2773C31.0186 14.5417 32.0692 12.9641 33.3951 11.6351C34.7209 10.3061 36.296 9.25167 38.0299 8.53223C39.7639 7.81279 41.6227 7.44247 43.5 7.44248C45.3773 7.44248 47.2361 7.81281 48.9701 8.53226C50.704 9.25171 52.279 10.3061 53.6049 11.6352C54.9307 12.9642 55.9814 14.5417 56.6967 16.2774C57.412 18.0131 57.7778 19.8728 57.7734 21.7501L57.7734 25.1484H53.6953V21.75C53.2177 8.25754 33.7813 8.25863 33.3047 21.7502V49.6172H29.2266V21.75ZM49.6172 21.75V25.1484H37.3828V21.75C37.3828 20.1276 38.0273 18.5717 39.1745 17.4245C40.3217 16.2773 41.8776 15.6328 43.5 15.6328C45.1224 15.6328 46.6783 16.2773 47.8255 17.4245C48.9727 18.5717 49.6172 20.1276 49.6172 21.75ZM37.3828 37.3828H49.6172V49.6172H37.3828V37.3828ZM21.75 57.7734C17.9644 57.7734 14.3339 56.2696 11.6572 53.5928C8.98037 50.9161 7.47656 47.2855 7.47656 43.5C7.47656 39.7144 8.98037 36.0839 11.6572 33.4071C14.3339 30.7304 17.9644 29.2266 21.75 29.2266H25.1484V33.3047H21.75C8.25797 33.7823 8.2582 53.2185 21.7502 53.6953H49.6172V57.7734H21.75ZM25.1484 37.3828V49.6172H21.75C20.1371 49.6027 18.5952 48.9519 17.4598 47.8062C16.3243 46.6606 15.6873 45.1129 15.6874 43.4999C15.6874 41.8869 16.3244 40.3393 17.4599 39.1936C18.5953 38.048 20.1373 37.3972 21.7502 37.3828H25.1484ZM49.6172 61.8516V65.25C49.6172 66.8724 48.9727 68.4283 47.8255 69.5755C46.6783 70.7227 45.1224 71.3672 43.5 71.3672C41.8776 71.3672 40.3217 70.7227 39.1745 69.5755C38.0273 68.4283 37.3828 66.8724 37.3828 65.25V61.8516H49.6172ZM57.7734 65.25C57.7734 69.0355 56.2696 72.6661 53.5928 75.3428C50.9161 78.0196 47.2855 79.5234 43.5 79.5234C39.7145 79.5234 36.0839 78.0196 33.4072 75.3428C30.7304 72.6661 29.2266 69.0355 29.2266 65.25V61.8516H33.3047V65.25C33.7823 78.7419 53.2185 78.7418 53.6953 65.2498V37.3828H57.7734V65.25ZM75.3497 53.5997C74.0258 54.9285 72.4514 55.9816 70.7178 56.698C68.9842 57.4144 67.1258 57.7799 65.25 57.7734H61.8516V53.6953H65.25C67.954 53.6953 70.5472 52.6212 72.4592 50.7092C74.3712 48.7972 75.4453 46.204 75.4453 43.5C75.4453 40.796 74.3712 38.2028 72.4592 36.2908C70.5472 34.3788 67.954 33.3047 65.25 33.3047H37.3828V29.2266H65.25C77.8366 29.1431 84.3032 44.7836 75.3497 53.5997ZM61.8516 49.6172V37.3828H65.25C66.8629 37.3973 68.4048 38.0481 69.5402 39.1938C70.6757 40.3394 71.3127 41.8871 71.3126 43.5001C71.3126 45.113 70.6756 46.6607 69.5401 47.8063C68.4047 48.952 66.8627 49.6028 65.2498 49.6172H61.8516Z" fill="black"/>
</svg>
