<svg width="91" height="91" viewBox="0 0 91 91" fill="none" xmlns="http://www.w3.org/2000/svg">
<path d="M73.9374 3.55469H17.0624C16.6727 3.56003 16.2918 3.67128 15.9605 3.87653C15.6292 4.08177 15.3599 4.37327 15.1816 4.71981C15.0033 5.06635 14.9226 5.45488 14.9481 5.84377C14.9737 6.23266 15.1046 6.60727 15.3268 6.92747L42.879 45.5L15.3267 84.0725C15.0988 84.3914 14.9632 84.7669 14.9348 85.1578C14.9064 85.5488 14.9862 85.9399 15.1656 86.2884C15.3449 86.6369 15.6168 86.9293 15.9514 87.1334C16.2861 87.3374 16.6704 87.4454 17.0624 87.4453H73.9374C74.327 87.4398 74.7078 87.3285 75.0391 87.1232C75.3703 86.918 75.6395 86.6265 75.8178 86.28C75.9961 85.9335 76.0768 85.545 76.0513 85.1561C76.0258 84.7673 75.895 84.3927 75.673 84.0724L48.1214 45.5L75.673 6.92747C75.8951 6.60723 76.0259 6.23264 76.0514 5.84379C76.0769 5.45493 75.9961 5.06647 75.8178 4.71997C75.6395 4.37347 75.3703 4.08199 75.0391 3.87672C74.7078 3.67146 74.327 3.56014 73.9374 3.55469ZM69.7926 83.1797H21.2065L32.3784 67.5391H58.6209L69.7926 83.1797ZM55.5741 63.2734H35.4253L45.4999 49.1692L55.5741 63.2734ZM45.4999 41.8308L35.4253 27.7266H55.5741L45.4999 41.8308ZM58.6209 23.4609H32.3784L21.2065 7.82031H69.7926L58.6209 23.4609Z" fill="black"/>
<path d="M16.4113 71.4179C16.8416 71.5555 17.3045 71.5531 17.7334 71.411C18.1623 71.2689 18.5351 70.9944 18.7982 70.6271L35.8607 46.7399C36.1191 46.3781 36.258 45.9446 36.258 45.4999C36.258 45.0553 36.1191 44.6218 35.8607 44.26L18.7982 20.3727C18.5355 20.0051 18.1628 19.7304 17.7338 19.5883C17.3049 19.4461 16.842 19.4439 16.4117 19.5818C15.9814 19.7197 15.606 19.9907 15.3397 20.3557C15.0733 20.7207 14.9298 21.1609 14.9297 21.6128V69.3872C14.9297 69.839 15.0732 70.2791 15.3395 70.644C15.6058 71.009 15.9811 71.28 16.4113 71.4179ZM19.1953 28.2681L31.5041 45.5L19.1953 62.7319V28.2681Z" fill="black"/>
<path d="M74.5889 19.582C74.1585 19.4442 73.6956 19.4466 73.2666 19.5887C72.8377 19.7308 72.4649 20.0053 72.202 20.3728L55.1395 44.26C54.8814 44.622 54.7427 45.0554 54.7427 45.5C54.7427 45.9445 54.8814 46.378 55.1395 46.74L72.202 70.6272C72.4647 70.9948 72.8374 71.2695 73.2663 71.4116C73.6952 71.5538 74.1582 71.556 74.5885 71.4181C75.0188 71.2802 75.3941 71.0092 75.6605 70.6442C75.9268 70.2792 76.0704 69.839 76.0705 69.3872V21.6127C76.0706 21.1609 75.9271 20.7207 75.6608 20.3558C75.3945 19.9908 75.0192 19.7198 74.5889 19.582ZM71.8048 62.7318L59.4967 45.4999L71.8048 28.268V62.7318Z" fill="black"/>
</svg>
