<svg width="90" height="90" viewBox="0 0 90 90" fill="none" xmlns="http://www.w3.org/2000/svg">
<path d="M51.8019 6.33499C49.9968 4.53312 47.5505 3.52112 45 3.52112C42.4495 3.52112 40.0032 4.53312 38.1981 6.33499L6.33567 38.1981C5.44169 39.0909 4.73247 40.1512 4.24858 41.3183C3.76469 42.4855 3.51562 43.7365 3.51562 45C3.51562 46.2635 3.76469 47.5145 4.24858 48.6817C4.73247 49.8488 5.44169 50.9091 6.33567 51.8019L38.1981 83.6636C40.0078 85.4567 42.4524 86.4627 45 86.4626C47.5476 86.4626 49.9922 85.4566 51.8019 83.6635L83.6643 51.8019C85.4659 49.9967 86.4777 47.5504 86.4777 45C86.4777 42.4496 85.4659 40.0034 83.6643 38.1981L51.8019 6.33499ZM48.8191 9.31782L75.0562 35.5554C71.6511 35.906 68.5618 39.7594 66.2419 42.017L41.1809 16.956C36.2811 11.7955 43.6458 4.41141 48.8191 9.31782ZM63.259 44.9998L45.0005 63.2588L26.741 45.0003L45 26.7407L63.259 44.9998ZM9.31846 48.8191C8.30705 47.8054 7.73904 46.432 7.73904 45C7.73904 43.568 8.30705 42.1946 9.31846 41.1809L35.556 14.9428C35.9049 18.3466 39.7605 21.4387 42.0173 23.7578L16.9567 48.8191C15.9432 49.8309 14.5697 50.3991 13.1376 50.3991C11.7055 50.3991 10.332 49.8309 9.31846 48.8191ZM41.1809 80.6809L14.9488 54.4494C16.8411 54.0899 18.5807 53.1671 19.9395 51.8019L23.7583 47.9831C27.7068 51.9304 45.2544 69.4787 48.8191 73.0426C53.7326 78.2292 46.382 85.4833 41.1809 80.6809ZM80.6815 48.8191L54.4489 75.0512C54.0592 71.6119 50.2513 68.5681 47.9832 66.2415C51.9299 62.2937 69.4803 44.7448 73.0433 41.1809C78.2037 36.2787 85.5882 43.6481 80.6815 48.8191Z" fill="black"/>
<path d="M35.9227 46.4914L43.5087 54.0775C43.7045 54.2734 43.937 54.4288 44.1929 54.5348C44.4488 54.6409 44.7231 54.6954 45.0001 54.6954C45.2771 54.6954 45.5514 54.6409 45.8073 54.5348C46.0632 54.4288 46.2957 54.2734 46.4915 54.0775L54.0776 46.4914C54.2735 46.2956 54.4289 46.0631 54.535 45.8072C54.641 45.5513 54.6956 45.277 54.6956 45C54.6956 44.723 54.641 44.4487 54.535 44.1928C54.4289 43.9369 54.2735 43.7044 54.0776 43.5086L46.4915 35.9225C46.2957 35.7266 46.0632 35.5712 45.8073 35.4652C45.5514 35.3591 45.2771 35.3046 45.0001 35.3046C44.7231 35.3046 44.4488 35.3591 44.1929 35.4652C43.937 35.5712 43.7045 35.7266 43.5087 35.9225L35.9227 43.5086C35.7268 43.7044 35.5713 43.9369 35.4653 44.1928C35.3593 44.4487 35.3047 44.723 35.3047 45C35.3047 45.277 35.3593 45.5513 35.4653 45.8072C35.5713 46.0631 35.7268 46.2956 35.9227 46.4914ZM45.0001 40.3967L49.6034 45L45.0001 49.6033L40.3969 45L45.0001 40.3967Z" fill="black"/>
</svg>
