<svg width="90" height="90" viewBox="0 0 90 90" fill="none" xmlns="http://www.w3.org/2000/svg">
<path d="M5.625 86.4844H25.3125C25.8719 86.4844 26.4084 86.2621 26.804 85.8665C27.1996 85.4709 27.4218 84.9344 27.4219 84.375V76.6406H62.5781V84.375C62.5782 84.9344 62.8004 85.4709 63.196 85.8665C63.5916 86.2621 64.1281 86.4843 64.6875 86.4844H84.375C84.9344 86.4844 85.4709 86.2621 85.8665 85.8665C86.2621 85.4709 86.4844 84.9344 86.4844 84.375V64.6875C86.4844 64.1281 86.2621 63.5916 85.8665 63.196C85.4709 62.8004 84.9344 62.5782 84.375 62.5781H76.6406V27.4219H84.375C84.9344 27.4218 85.4709 27.1996 85.8665 26.804C86.2621 26.4084 86.4844 25.8719 86.4844 25.3125V5.625C86.4844 5.06557 86.2621 4.52905 85.8665 4.13348C85.4709 3.7379 84.9344 3.51565 84.375 3.51562H64.6875C64.1281 3.51565 63.5916 3.7379 63.196 4.13348C62.8004 4.52906 62.5782 5.06557 62.5781 5.625V13.3594H27.4219V5.625C27.4218 5.06557 27.1996 4.52905 26.804 4.13348C26.4084 3.7379 25.8719 3.51565 25.3125 3.51562H5.625C5.06557 3.51565 4.52906 3.7379 4.13348 4.13348C3.7379 4.52906 3.51565 5.06557 3.51562 5.625V25.3125C3.51565 25.8719 3.7379 26.4084 4.13348 26.804C4.52906 27.1996 5.06557 27.4218 5.625 27.4219H13.3594V62.5781H5.625C5.06557 62.5782 4.52906 62.8004 4.13348 63.196C3.7379 63.5916 3.51565 64.1281 3.51562 64.6875V84.375C3.51565 84.9344 3.7379 85.4709 4.13348 85.8665C4.52906 86.2621 5.06557 86.4843 5.625 86.4844ZM23.2031 72.4219H17.5781V66.7969H23.2031V72.4219ZM82.2656 66.7969V82.2656H66.7969V76.6406H74.5312C75.0907 76.6406 75.6272 76.4184 76.0228 76.0228C76.4184 75.6272 76.6406 75.0907 76.6406 74.5312V66.7969H82.2656ZM66.7969 72.4219V66.7969H72.4219V72.4219H66.7969ZM66.7969 7.73438H82.2656V23.2031H76.6406V15.4688C76.6406 14.9093 76.4184 14.3728 76.0228 13.9772C75.6272 13.5816 75.0907 13.3594 74.5312 13.3594H66.7969V7.73438ZM66.7969 17.5781H72.4219V23.2031H66.7969V17.5781ZM27.4219 25.3125V17.5781H62.5781V25.3125C62.5782 25.8719 62.8004 26.4084 63.196 26.804C63.5916 27.1996 64.1281 27.4218 64.6875 27.4219H72.4219V62.5781H64.6875C64.1281 62.5782 63.5916 62.8004 63.196 63.196C62.8004 63.5916 62.5782 64.1281 62.5781 64.6875V72.4219H27.4219V64.6875C27.4218 64.1281 27.1996 63.5916 26.804 63.196C26.4084 62.8004 25.8719 62.5782 25.3125 62.5781H17.5781V27.4219H25.3125C25.8719 27.4218 26.4084 27.1996 26.804 26.804C27.1996 26.4084 27.4218 25.8719 27.4219 25.3125ZM17.5781 23.2031V17.5781H23.2031V23.2031H17.5781ZM7.73438 23.2031V7.73438H23.2031V13.3594H15.4688C14.9093 13.3594 14.3728 13.5817 13.9772 13.9772C13.5817 14.3728 13.3594 14.9093 13.3594 15.4688V23.2031H7.73438ZM7.73438 66.7969H13.3594V74.5312C13.3594 75.0907 13.5817 75.6272 13.9772 76.0228C14.3728 76.4184 14.9093 76.6406 15.4688 76.6406H23.2031V82.2656H7.73438V66.7969Z" fill="black"/>
<path d="M43.5086 67.5851C43.7044 67.7811 43.9369 67.9365 44.1928 68.0425C44.4487 68.1485 44.723 68.2031 45 68.2031C45.277 68.2031 45.5513 68.1485 45.8072 68.0425C46.0631 67.9365 46.2956 67.7811 46.4914 67.5851L67.5851 46.4914C67.7811 46.2956 67.9365 46.0631 68.0425 45.8072C68.1485 45.5513 68.2031 45.277 68.2031 45C68.2031 44.723 68.1485 44.4487 68.0425 44.1928C67.9365 43.9369 67.7811 43.7044 67.5851 43.5086L46.4914 22.4149C46.2956 22.2189 46.0631 22.0635 45.8072 21.9575C45.5513 21.8515 45.277 21.7969 45 21.7969C44.723 21.7969 44.4487 21.8515 44.1928 21.9575C43.9369 22.0635 43.7044 22.2189 43.5086 22.4149L22.4149 43.5086C22.2189 43.7044 22.0635 43.9369 21.9575 44.1928C21.8515 44.4487 21.7969 44.723 21.7969 45C21.7969 45.277 21.8515 45.5513 21.9575 45.8072C22.0635 46.0631 22.2189 46.2956 22.4149 46.4914L43.5086 67.5851ZM45 26.889L63.111 45L45 63.111L26.889 45L45 26.889Z" fill="black"/>
<path d="M52.7344 45C52.409 34.7787 37.5896 34.7811 37.2656 45.0002C37.591 55.2213 52.4104 55.2189 52.7344 45ZM41.4844 45C41.4949 44.0745 41.8699 43.1905 42.5281 42.5397C43.1862 41.8889 44.0745 41.524 45 41.524C45.9256 41.524 46.8138 41.889 47.472 42.5398C48.1302 43.1905 48.5052 44.0746 48.5156 45.0001C48.5051 45.9256 48.1301 46.8097 47.472 47.4604C46.8138 48.1112 45.9255 48.4762 45 48.4761C44.0744 48.4761 43.1862 48.1111 42.528 47.4604C41.8698 46.8096 41.4948 45.9255 41.4844 45Z" fill="black"/>
</svg>
