<svg width="90" height="90" viewBox="0 0 90 90" fill="none" xmlns="http://www.w3.org/2000/svg">
<path d="M73.125 58.3538C84.8133 58.4877 90.9915 43.8567 82.5709 35.553C80.3228 33.3118 77.3503 31.944 74.1857 31.6944C71.0211 31.4449 67.871 32.3299 65.2993 34.191L60.4125 29.3046C60.0149 28.919 59.4816 28.7052 58.9277 28.7094C58.3739 28.7136 57.8439 28.9356 57.4522 29.3272C57.0606 29.7189 56.8387 30.2489 56.8345 30.8028C56.8303 31.3566 57.0442 31.8899 57.4298 32.2875L62.317 37.1742C55.9094 45.7668 62.3856 58.5243 73.125 58.3538ZM79.5884 38.5359C87.8571 47.3488 75.4755 59.7336 66.6614 51.4639C58.3921 42.6484 70.7767 30.2679 79.5884 38.5359Z" fill="black"/>
<path d="M74.6168 46.4916C75.003 46.0941 75.2173 45.5605 75.2132 45.0063C75.2092 44.4521 74.9873 43.9217 74.5954 43.5298C74.2035 43.1379 73.6731 42.916 73.1188 42.912C72.5646 42.9081 72.0311 43.1223 71.6336 43.5086C71.2474 43.9061 71.0332 44.4396 71.0372 44.9938C71.0412 45.5481 71.2631 46.0784 71.655 46.4703C72.047 46.8622 72.5773 47.0841 73.1316 47.0881C73.6858 47.0921 74.2193 46.8778 74.6168 46.4916Z" fill="black"/>
<path d="M7.4287 35.5531C-0.988704 43.8585 5.18355 58.4879 16.8751 58.3538C19.6867 58.3521 22.4257 57.4614 24.7004 55.8089L29.5874 60.6953C29.985 61.081 30.5183 61.2948 31.0721 61.2905C31.626 61.2863 32.156 61.0644 32.5476 60.6727C32.9393 60.2811 33.1612 59.7511 33.1653 59.1972C33.1695 58.6433 32.9557 58.11 32.57 57.7125L27.6828 52.8258C36.9316 39.3842 19.3672 24.2503 7.4287 35.5531ZM10.4115 51.4641C2.14196 42.6485 14.5266 30.2679 23.3384 38.536C31.607 47.3489 19.2254 59.7336 10.4115 51.4641Z" fill="black"/>
<path d="M15.3836 43.5084C14.9974 43.906 14.7832 44.4395 14.7872 44.9937C14.7912 45.5479 15.0131 46.0783 15.405 46.4702C15.797 46.8621 16.3273 47.084 16.8816 47.088C17.4358 47.092 17.9693 46.8777 18.3668 46.4915C18.753 46.094 18.9673 45.5604 18.9632 45.0062C18.9592 44.452 18.7373 43.9216 18.3454 43.5297C17.9535 43.1378 17.4231 42.9159 16.8688 42.9119C16.3146 42.9079 15.7811 43.1222 15.3836 43.5084Z" fill="black"/>
<path d="M43.5086 71.6334C43.1224 72.031 42.9082 72.5645 42.9122 73.1187C42.9162 73.6729 43.1381 74.2033 43.53 74.5952C43.922 74.9871 44.4523 75.209 45.0066 75.213C45.5608 75.217 46.0943 75.0027 46.4918 74.6165C46.878 74.219 47.0923 73.6854 47.0882 73.1312C47.0842 72.577 46.8623 72.0466 46.4704 71.6547C46.0785 71.2628 45.5481 71.0409 44.9938 71.0369C44.4396 71.0329 43.9061 71.2472 43.5086 71.6334Z" fill="black"/>
<path d="M43.5081 15.3836C43.1219 15.7811 42.9077 16.3146 42.9117 16.8688C42.9157 17.4231 43.1376 17.9534 43.5296 18.3453C43.9215 18.7372 44.4519 18.9591 45.0061 18.9631C45.5603 18.9671 46.0938 18.7528 46.4913 18.3666C46.8775 17.9691 47.0918 17.4355 47.0878 16.8813C47.0837 16.3271 46.8618 15.7967 46.4699 15.4048C46.078 15.0129 45.5476 14.791 44.9934 14.787C44.4391 14.7831 43.9056 14.9973 43.5081 15.3836Z" fill="black"/>
<path d="M60.6955 57.4296C60.4997 57.2337 60.2672 57.0783 60.0113 56.9723C59.7554 56.8662 59.4811 56.8116 59.2042 56.8116C58.9272 56.8116 58.6529 56.8662 58.397 56.9723C58.1411 57.0783 57.9086 57.2337 57.7128 57.4296L52.8258 62.3161C50.2541 60.4549 47.104 59.5699 43.9393 59.8195C40.7747 60.069 37.8022 61.4369 35.554 63.6781C27.1371 71.9782 33.3086 86.6153 45.0005 86.4787C55.7435 86.6445 62.2146 73.8949 55.808 65.2991L60.6955 60.4125C60.8915 60.2167 61.0469 59.9842 61.1529 59.7282C61.259 59.4723 61.3136 59.1981 61.3136 58.921C61.3136 58.644 61.259 58.3698 61.1529 58.1139C61.0469 57.8579 60.8915 57.6254 60.6955 57.4296ZM51.4636 79.5891C42.6509 87.8592 30.2672 75.4715 38.537 66.6607C47.3513 58.3909 59.7326 70.779 51.4636 79.5891Z" fill="black"/>
<path d="M35.5538 7.42826C33.3135 9.67708 31.9463 12.6496 31.6968 15.8141C31.4473 18.9786 32.3318 22.1287 34.1921 24.7008L29.3048 29.5875C29.1089 29.7834 28.9536 30.0159 28.8476 30.2718C28.7416 30.5277 28.687 30.802 28.687 31.079C28.687 31.3559 28.7416 31.6302 28.8476 31.8861C28.9536 32.142 29.1089 32.3745 29.3048 32.5704C29.5006 32.7662 29.7331 32.9216 29.989 33.0276C30.2449 33.1336 30.5192 33.1881 30.7962 33.1881C31.0732 33.1881 31.3474 33.1336 31.6033 33.0276C31.8592 32.9216 32.0918 32.7662 32.2876 32.5704L37.1746 27.6839C39.7448 29.549 42.8958 30.4365 46.0616 30.1869C49.2273 29.9372 52.2003 28.5668 54.4464 26.3219C66.4702 13.3101 48.5721 -4.60289 35.5538 7.42826ZM51.4633 23.3392C42.6508 31.6092 30.2671 19.2217 38.5367 10.411C47.3512 2.141 59.7325 14.5291 51.4633 23.3392Z" fill="black"/>
<path d="M43.5086 34.368L34.368 43.5086C34.1721 43.7044 34.0166 43.9369 33.9106 44.1928C33.8046 44.4487 33.75 44.723 33.75 45C33.75 45.277 33.8046 45.5513 33.9106 45.8072C34.0166 46.0631 34.1721 46.2956 34.368 46.4914L43.5086 55.632C43.7044 55.8279 43.9369 55.9834 44.1928 56.0894C44.4487 56.1954 44.723 56.25 45 56.25C45.277 56.25 45.5513 56.1954 45.8072 56.0894C46.0631 55.9834 46.2956 55.8279 46.4914 55.632L55.632 46.4914C55.8279 46.2956 55.9834 46.0631 56.0894 45.8072C56.1954 45.5513 56.25 45.277 56.25 45C56.25 44.723 56.1954 44.4487 56.0894 44.1928C55.9834 43.9369 55.8279 43.7044 55.632 43.5086L46.4914 34.368C46.2956 34.1721 46.0631 34.0166 45.8072 33.9106C45.5513 33.8046 45.277 33.75 45 33.75C44.723 33.75 44.4487 33.8046 44.1928 33.9106C43.9369 34.0166 43.7044 34.1721 43.5086 34.368ZM45 51.1578L38.8422 45L45 38.8422L51.1578 45L45 51.1578Z" fill="black"/>
</svg>
