<svg width="90" height="90" viewBox="0 0 90 90" fill="none" xmlns="http://www.w3.org/2000/svg">
<path d="M49.606 3.77658C49.0499 3.71539 48.4922 3.87764 48.0556 4.22765C47.6191 4.57765 47.3395 5.08673 47.2783 5.6429C47.2171 6.19907 47.3794 6.75677 47.7294 7.1933C48.0794 7.62984 48.5884 7.90946 49.1446 7.97065C58.2532 8.98873 66.667 13.3283 72.7774 20.1596C78.8877 26.991 82.2658 35.8347 82.2658 45.0001C82.2658 54.1654 78.8877 63.0092 72.7774 69.8405C66.667 76.6718 58.2532 81.0114 49.1446 82.0295C48.6086 82.0884 48.1155 82.3504 47.7666 82.7616C47.4177 83.1728 47.2396 83.702 47.2688 84.2405C47.298 84.779 47.5322 85.2858 47.9235 85.6569C48.3148 86.028 48.8333 86.2352 49.3726 86.2359C49.4506 86.2358 49.5285 86.2317 49.606 86.2235C59.7474 85.0916 69.1156 80.2611 75.9193 72.6559C82.7229 65.0507 86.4843 55.2044 86.4843 45.0001C86.4843 34.7957 82.7229 24.9495 75.9193 17.3442C69.1156 9.73899 59.7474 4.90854 49.606 3.77662L49.606 3.77658Z" fill="black"/>
<path d="M3.51568 44.9999C3.49867 55.2091 7.25425 65.0646 14.0611 72.6734C20.8679 80.2822 30.246 85.1078 40.394 86.2234C40.4716 86.2316 40.5495 86.2357 40.6275 86.2357C41.1667 86.2351 41.6853 86.0279 42.0765 85.6568C42.4678 85.2857 42.7021 84.7789 42.7313 84.2404C42.7604 83.7019 42.5823 83.1727 42.2334 82.7615C41.8846 82.3503 41.3915 82.0883 40.8554 82.0294C31.7468 81.0113 23.333 76.6717 17.2227 69.8404C11.1124 63.009 7.73425 54.1653 7.73425 44.9999C7.73425 35.8346 11.1124 26.9908 17.2227 20.1595C23.333 13.3282 31.7468 8.9886 40.8554 7.97052C41.1312 7.94068 41.3983 7.85676 41.6416 7.72355C41.8849 7.59035 42.0995 7.41048 42.2732 7.19424C42.4469 6.978 42.5763 6.72963 42.6539 6.46334C42.7315 6.19706 42.7558 5.91809 42.7255 5.64239C42.6951 5.36669 42.6107 5.09968 42.4771 4.85664C42.3435 4.61359 42.1632 4.39928 41.9467 4.22598C41.7301 4.05267 41.4815 3.92376 41.2151 3.84663C40.9487 3.76951 40.6697 3.74567 40.394 3.77649C30.246 4.89203 20.8679 9.71765 14.0611 17.3265C7.25425 24.9353 3.49867 34.7908 3.51568 44.9999Z" fill="black"/>
<path d="M15.837 47.2893C15.2839 47.3738 14.7871 47.6744 14.4554 48.125C14.1238 48.5756 13.9845 49.1394 14.0682 49.6925C15.1931 57.0904 18.9321 63.8402 24.6071 68.7175C30.2821 73.5948 37.5173 76.2767 45.0002 76.2767C52.4831 76.2767 59.7182 73.5948 65.3932 68.7175C71.0683 63.8402 74.8073 57.0904 75.9322 49.6925C76.0159 49.1395 75.8767 48.5758 75.5449 48.1254C75.2132 47.6749 74.7162 47.3747 74.1632 47.2906C73.6102 47.2065 73.0464 47.3454 72.5958 47.6769C72.1452 48.0083 71.8446 48.5051 71.7601 49.0581C70.7873 55.4584 67.5527 61.2981 62.6431 65.5179C57.7335 69.7376 51.474 72.058 45.0002 72.058C38.5263 72.058 32.2669 69.7376 27.3573 65.5179C22.4477 61.2981 19.2131 55.4584 18.2402 49.0581C18.152 48.5068 17.8505 48.0124 17.4009 47.6814C16.9513 47.3505 16.3896 47.2096 15.837 47.2893Z" fill="black"/>
<path d="M75.9321 40.3074C74.8073 32.9096 71.0682 26.1598 65.3932 21.2825C59.7182 16.4052 52.4831 13.7233 45.0001 13.7233C37.5172 13.7233 30.2821 16.4052 24.6071 21.2825C18.9321 26.1598 15.193 32.9096 14.0681 40.3074C14.0263 40.5815 14.0388 40.861 14.1051 41.1302C14.1713 41.3994 14.29 41.6529 14.4542 41.8762C14.6184 42.0995 14.8251 42.2882 15.0623 42.4316C15.2995 42.5751 15.5627 42.6703 15.8367 42.712C16.1108 42.7537 16.3904 42.7409 16.6595 42.6745C16.9286 42.6081 17.182 42.4893 17.4052 42.3249C17.6284 42.1606 17.817 41.9538 17.9603 41.7165C18.1036 41.4792 18.1987 41.216 18.2402 40.9419C19.213 34.5416 22.4476 28.7019 27.3572 24.4821C32.2668 20.2623 38.5263 17.942 45.0001 17.942C51.474 17.942 57.7334 20.2623 62.6431 24.4821C67.5527 28.7019 70.7873 34.5416 71.7601 40.9419C71.8363 41.4401 72.0882 41.8946 72.4702 42.2233C72.8523 42.552 73.3394 42.7332 73.8434 42.734C73.9504 42.7337 74.0574 42.7259 74.1633 42.7107C74.7164 42.6261 75.2133 42.3256 75.5449 41.875C75.8765 41.4244 76.0158 40.8606 75.9321 40.3074Z" fill="black"/>
<path d="M40.1369 24.5009C35.523 25.5956 31.4133 28.2147 28.4726 31.9347C25.5319 35.6548 23.9321 40.2581 23.9321 45.0001C23.9321 49.742 25.5319 54.3454 28.4726 58.0654C31.4133 61.7854 35.523 64.4046 40.1369 65.4992C40.297 65.5377 40.4612 65.5571 40.6258 65.5568C41.1428 65.5568 41.6417 65.3669 42.0279 65.0233C42.414 64.6796 42.6605 64.2061 42.7205 63.6926C42.7805 63.1792 42.6498 62.6616 42.3533 62.2381C42.0567 61.8147 41.615 61.5149 41.112 61.3957C37.4216 60.5202 34.1346 58.4254 31.7825 55.45C29.4304 52.4746 28.1509 48.7928 28.1509 45C28.1509 41.2072 29.4304 37.5254 31.7825 34.55C34.1346 31.5746 37.4216 29.4798 41.112 28.6043C41.6561 28.475 42.1266 28.1348 42.42 27.6586C42.7133 27.1824 42.8055 26.6092 42.6762 26.0651C42.5469 25.5209 42.2067 25.0504 41.7305 24.7571C41.2543 24.4637 40.6811 24.3716 40.1369 24.5009V24.5009Z" fill="black"/>
<path d="M48.8879 61.3958C48.3849 61.5149 47.9432 61.8147 47.6466 62.2382C47.3501 62.6616 47.2194 63.1792 47.2794 63.6926C47.3394 64.2061 47.5859 64.6796 47.972 65.0233C48.3582 65.367 48.8571 65.5568 49.374 65.5569C49.5387 65.5571 49.7028 65.5378 49.8629 65.4992C54.4768 64.4046 58.5865 61.7854 61.5273 58.0654C64.468 54.3454 66.0677 49.7421 66.0677 45.0001C66.0677 40.2581 64.468 35.6548 61.5273 31.9348C58.5865 28.2148 54.4768 25.5956 49.8629 24.501C49.5935 24.437 49.3141 24.4266 49.0407 24.4706C48.7672 24.5145 48.5051 24.6119 48.2693 24.7572C48.0336 24.9024 47.8287 25.0927 47.6664 25.3171C47.5042 25.5415 47.3877 25.7957 47.3237 26.0652C47.2597 26.3346 47.2493 26.614 47.2933 26.8874C47.3373 27.1609 47.4346 27.423 47.5799 27.6587C47.7251 27.8945 47.9154 28.0994 48.1398 28.2617C48.3643 28.4239 48.6184 28.5404 48.8879 28.6044C52.5782 29.4799 55.8653 31.5748 58.2174 34.5501C60.5695 37.5255 61.849 41.2074 61.849 45.0001C61.849 48.7929 60.5695 52.4748 58.2174 55.4501C55.8653 58.4255 52.5782 60.5204 48.8879 61.3959V61.3958Z" fill="black"/>
<path d="M34.1401 45C34.1401 47.1479 34.7771 49.2476 35.9704 51.0335C37.1637 52.8194 38.8598 54.2114 40.8442 55.0333C42.8286 55.8553 45.0122 56.0704 47.1188 55.6513C49.2254 55.2323 51.1605 54.198 52.6793 52.6792C54.1981 51.1604 55.2324 49.2253 55.6514 47.1187C56.0705 45.0121 55.8554 42.8285 55.0335 40.8441C54.2115 38.8597 52.8195 37.1636 51.0336 35.9703C49.2477 34.7769 47.148 34.14 45.0001 34.14C42.1209 34.1435 39.3607 35.2888 37.3248 37.3247C35.2889 39.3606 34.1436 42.1208 34.1401 45ZM51.6414 45C51.6414 46.3135 51.2519 47.5975 50.5221 48.6897C49.7924 49.7818 48.7552 50.6331 47.5416 51.1357C46.3281 51.6384 44.9928 51.7699 43.7045 51.5136C42.4162 51.2574 41.2329 50.6249 40.3041 49.6961C39.3753 48.7673 38.7427 47.5839 38.4865 46.2956C38.2302 45.0074 38.3618 43.672 38.8644 42.4585C39.3671 41.245 40.2183 40.2078 41.3105 39.478C42.4026 38.7483 43.6866 38.3588 45.0001 38.3588C46.7609 38.3606 48.4491 39.0608 49.6942 40.3059C50.9393 41.551 51.6396 43.2392 51.6414 45Z" fill="black"/>
</svg>
