<svg width="90" height="90" viewBox="0 0 90 90" fill="none" xmlns="http://www.w3.org/2000/svg">
<path d="M65.655 5.43747C48.9992 5.29807 40.4261 26.0064 52.2867 37.7138C64.0818 49.5612 84.6328 41.0555 84.5626 24.3448C84.5396 19.3373 82.5402 14.5414 78.9993 11.0006C75.4584 7.45973 70.6625 5.46036 65.655 5.43747ZM76.1085 34.7972C73.3336 37.5645 69.5746 39.1186 65.6557 39.1186C61.7368 39.1186 57.9777 37.5645 55.2029 34.7972C45.8896 25.6087 52.7194 9.41863 65.6566 9.56926C78.5917 9.41996 85.4248 25.6115 76.1085 34.7972H76.1085Z" fill="black"/>
<path d="M59.4336 18.1213C51.459 26.5965 63.4078 38.5395 71.8786 30.5659C79.8482 22.1004 67.9198 10.1518 59.4336 18.1213ZM68.9619 27.6496C64.4582 31.7959 58.1035 25.5378 62.3502 21.0376C63.2303 20.1771 64.4143 19.6983 65.6452 19.7053C66.8762 19.7122 68.0547 20.2043 68.9251 21.0747C69.7955 21.9451 70.2875 23.1237 70.2944 24.3546C70.3013 25.5855 69.8225 26.7695 68.9619 27.6496Z" fill="black"/>
<path d="M22.3446 86.5623C27.3518 86.5388 32.1472 84.5392 35.6877 80.9984C39.2282 77.4576 41.2274 72.6621 41.2505 67.6549C41.3896 50.9992 20.6821 42.4248 8.97485 54.2866C-2.88492 65.9951 5.68699 86.7026 22.3446 86.5623ZM22.3445 52.8818C35.2804 52.7323 42.1125 68.9221 32.7962 78.1085C30.0218 80.8764 26.2628 82.4308 22.3438 82.4308C18.4248 82.4308 14.6658 80.8763 11.8914 78.1084C2.57737 68.9203 9.40748 52.7303 22.3445 52.8818Z" fill="black"/>
<path d="M64.5417 48.8038C59.1262 48.4686 54.0079 46.2128 50.1069 42.4416L47.5583 39.893C43.7872 35.9921 41.5315 30.8737 41.197 25.4583C40.1339 11.5471 22.4093 5.3621 12.9456 15.6684C10.1379 18.7293 8.58077 22.7322 8.58203 26.8858C8.58329 31.0393 10.1428 35.0413 12.9523 38.1005C15.7784 41.1153 19.6433 42.9452 23.7664 43.2205C29.0849 43.5529 34.1024 45.8028 37.8883 49.5531L40.4463 52.111C44.197 55.8972 46.4472 60.9153 46.7795 66.2343C47.0555 70.357 48.8853 74.2215 51.8995 77.0477C55.0316 79.9936 59.1968 81.5894 63.4955 81.4905C67.7942 81.3917 71.8816 79.6061 74.875 76.5194C77.8685 73.4326 79.5278 69.2924 79.4948 64.9927C79.4617 60.693 77.7389 56.5787 74.6983 53.5384C71.9744 50.8156 68.3784 49.1393 64.5417 48.8038ZM71.5053 74.0492C64.1999 81.015 51.4077 76.1102 50.8966 65.9575C50.4963 59.6424 47.8198 53.6868 43.3635 49.1945L40.8055 46.6365C36.3131 42.1802 30.3573 39.5038 24.0423 39.1036C20.9586 38.8966 18.0683 37.5275 15.9548 35.2726C5.54602 23.1732 21.7666 7.30778 33.5445 18.2181C35.5818 20.2543 36.836 22.9434 37.0867 25.8128C37.5001 32.1975 40.1793 38.2248 44.6418 42.8096C47.0575 45.7163 50.0323 48.1083 53.3898 49.8437C56.7473 51.5791 60.4191 52.6227 64.1874 52.9124C74.5529 53.6467 79.2246 67.0498 71.5053 74.0492Z" fill="black"/>
<path d="M20.0649 22.0651C13.8802 28.6388 23.1351 37.907 29.7249 31.7249C35.9238 25.19 26.599 15.8617 20.0649 22.0651ZM26.8077 28.8085C26.2977 29.3036 25.6133 29.5782 24.9026 29.5728C24.1918 29.5675 23.5116 29.2828 23.0091 28.7801C22.5065 28.2775 22.2219 27.5973 22.2168 26.8865C22.2116 26.1757 22.4863 25.4914 22.9815 24.9815C23.4915 24.4864 24.1759 24.2119 24.8866 24.2172C25.5974 24.2225 26.2776 24.5073 26.7801 25.0099C27.2827 25.5126 27.5673 26.1928 27.5724 26.9036C27.5776 27.6144 27.3029 28.2986 26.8077 28.8085Z" fill="black"/>
<path d="M58.2739 60.275C52.0988 66.8648 61.3517 76.1148 67.9352 69.9349C74.1376 63.3999 64.813 54.077 58.2739 60.275ZM65.0186 67.0184C64.5088 67.5137 63.8246 67.7885 63.1138 67.7834C62.4031 67.7783 61.7229 67.4938 61.2202 66.9912C60.7175 66.4887 60.4328 65.8086 60.4274 65.0978C60.4221 64.3871 60.6967 63.7028 61.1918 63.1928C61.7016 62.6975 62.3859 62.4227 63.0966 62.4278C63.8074 62.4329 64.4876 62.7175 64.9903 63.22C65.493 63.7225 65.7777 64.4026 65.783 65.1134C65.7883 65.8242 65.5138 66.5085 65.0186 67.0184Z" fill="black"/>
<path d="M22.3445 76.4541C33.9741 76.1104 33.9717 59.1995 22.3444 58.8584C10.7146 59.2014 10.7172 76.113 22.3445 76.4541ZM19.0392 64.3502C19.9195 63.4905 21.1032 63.0125 22.3337 63.0198C23.5641 63.0272 24.742 63.5193 25.612 64.3894C26.482 65.2595 26.9739 66.4375 26.981 67.6679C26.9882 68.8983 26.51 70.082 25.6502 70.9622C21.1438 75.1088 14.793 68.848 19.0392 64.3502Z" fill="black"/>
</svg>
