<svg width="40" height="34" viewBox="0 0 40 34" fill="none" xmlns="http://www.w3.org/2000/svg">
<path id="Vector" d="M39.4285 8.08559V30.5681C39.4285 31.4775 39.0591 32.351 38.3995 32.9944C37.7381 33.6379 36.8445 34 35.9104 34H4.08949C2.14575 34 0.571411 32.4625 0.571411 30.5681V8.08559C0.571411 6.19118 2.14575 4.65369 4.08949 4.65369H4.99012V3.23972C4.99012 1.45171 6.47651 8.7976e-06 8.31118 8.7976e-06C10.1441 8.7976e-06 11.6322 1.45171 11.6322 3.23972V4.64508H9.28746L9.2857 3.23972C9.2857 2.71465 8.84946 2.28907 8.31117 2.28907C7.77116 2.28907 7.33489 2.71462 7.33489 3.23972V4.64508H9.28565V7.25846C9.28917 7.51757 9.18187 7.76812 8.99014 7.94998C8.7984 8.13187 8.53982 8.22968 8.27243 8.21938C7.6251 8.21938 7.10089 8.73075 7.10089 9.36222C7.10089 9.99541 7.6251 10.5068 8.27243 10.5068C10.1053 10.5051 11.5917 9.05508 11.5935 7.26706V4.64507H16.6595V3.23971C16.6595 1.4517 18.1477 0 19.9806 0C21.8153 0 23.3016 1.4517 23.3016 3.23971V4.64507H20.9569V3.23971C20.9569 2.71464 20.5206 2.28906 19.9806 2.28906C19.4423 2.28906 19.0061 2.71462 19.0061 3.23971V4.64507H20.9569L20.9568 7.25845C20.9621 7.7801 20.5346 8.2091 19.9999 8.21938C19.3526 8.21938 18.8266 8.73075 18.8266 9.36222C18.8266 9.99541 19.3526 10.5068 19.9999 10.5068C21.8328 10.5051 23.3192 9.05508 23.321 7.26706V4.64507H28.387V3.23971C28.387 1.4517 29.8734 0 31.7081 0C33.5427 0 35.0291 1.4517 35.0291 3.23971V4.64507H32.665V3.23971C32.665 2.71464 32.2287 2.28906 31.6887 2.28906C31.1504 2.28906 30.7142 2.71462 30.7142 3.23971V4.64507H32.665L32.6649 7.25845C32.6702 7.77325 32.2551 8.19878 31.7274 8.21938C31.0783 8.21938 30.5541 8.73075 30.5541 9.36222C30.5541 9.99541 31.0783 10.5068 31.7274 10.5068C33.5445 10.4845 35.008 9.04137 35.0098 7.26706V4.64507H35.8928C36.8303 4.63992 37.731 5.00027 38.3959 5.64716C39.0591 6.29238 39.432 7.171 39.4285 8.08559Z" fill="white" fill-opacity="0.17"/>
</svg>
