<svg width="40" height="40" viewBox="0 0 40 40" fill="none" xmlns="http://www.w3.org/2000/svg">
<path d="M34.9385 1.83203L38.0049 0.609375V3.35742L38.9238 12.2139L37.3916 16.1836L38.6172 19.542L37.3916 20.458L37.085 28.0908L39.2305 32.9766L37.6982 34.1982L38.9238 36.9463L37.085 39.3896L34.6328 38.4736L29.1162 38.168L25.7451 39.6934L24.8252 38.4727L21.7607 39.3896L14.4053 38.4727L12.2598 39.3887L6.74219 38.4736C6.02707 38.6772 4.47519 39.0837 3.98438 39.084C3.49396 39.084 1.83891 39.3895 0.306641 40C0.307121 39.9976 0.319235 39.9384 0.613281 38.4736L1.83887 36.3359L0 35.7256L0.918945 34.8086L0 29.9229L2.45215 27.4805L0.917969 26.8701L1.22559 21.6787L2.14551 21.374L0.613281 18.625L1.22559 14.0459L0 14.3516L2.14551 8.24414L0.306641 3.96875L1.22559 0.609375L3.37012 1.83203L4.59766 0.304688H7.66211L10.1143 0.609375L11.6465 1.83105L16.5508 0.610352L19.9219 1.22168L21.7607 3.35742L23.9062 0.915039L26.9707 2.74805L27.584 0.915039L28.5039 1.22168L30.3428 2.74707L34.6328 0L34.9385 1.83203ZM22.6455 31H25.1191V24.7852H22.6455V31ZM26.0869 31H28.5596V24.7852H26.0869V31ZM29.5273 31H32V24.7852H29.5273V31ZM13.5605 11.3682C12.867 17.5585 9.94698 21.6725 7 25.0908L13.2002 30.7832C18.6835 24.5927 22.5009 19.0383 23.0225 11.3682H21.4521C21.3338 13.7851 20.2697 16.7843 18.8398 19.6895C17.3937 22.6244 15.5654 25.4602 13.8828 27.4629L13.1953 26.832C14.7919 24.9033 16.5657 22.1506 17.958 19.3242C19.3503 16.493 20.3606 13.573 20.4844 11.3682H18.8721C18.7537 13.7851 17.6897 16.7843 16.2598 19.6895C15.1201 22.0028 13.7438 24.2569 12.3838 26.0869L11.6895 25.4453C12.9743 23.6893 14.292 21.5291 15.3779 19.3242C16.7702 16.493 17.7805 13.573 17.9043 11.3682H16.292C16.1736 13.7851 15.1086 16.7842 13.6787 19.6895C12.824 21.4305 11.8353 23.1323 10.8193 24.6465L10.1152 24C11.0612 22.5598 11.996 20.9567 12.7969 19.3242C14.1891 16.493 15.2005 13.573 15.3242 11.3682H13.5605ZM23.8828 18.7178C23.8291 18.8361 23.7691 18.9739 23.71 19.1465C23.5218 19.7039 23.3341 20.4833 23.1729 21.2676C22.9579 22.318 22.8018 23.3292 22.7158 23.8965H25.0488C24.9628 23.3291 24.8068 22.318 24.5918 21.2676C24.4305 20.4833 24.2428 19.7038 24.0547 19.1465C23.9956 18.9741 23.9365 18.8361 23.8828 18.7178ZM27.3232 18.7178C27.2695 18.8361 27.2104 18.974 27.1514 19.1465C26.9632 19.7039 26.7746 20.4833 26.6133 21.2676C26.3983 22.318 26.2423 23.3292 26.1562 23.8965H28.4893C28.4032 23.3291 28.2472 22.318 28.0322 21.2676C27.871 20.4833 27.6833 19.7038 27.4951 19.1465C27.436 18.974 27.3769 18.8361 27.3232 18.7178ZM30.7637 18.7178C30.71 18.8361 30.6509 18.974 30.5918 19.1465C30.4036 19.7039 30.215 20.4833 30.0537 21.2676C29.8387 22.3181 29.6827 23.3292 29.5967 23.8965H31.9297C31.8437 23.3291 31.6886 22.318 31.4736 21.2676C31.3124 20.4833 31.1237 19.7039 30.9355 19.1465C30.8765 18.974 30.8174 18.8361 30.7637 18.7178ZM13.7109 9C13.7002 9.50598 13.6792 9.99866 13.6416 10.4795H23.0654C23.0815 9.99471 23.0869 9.50204 23.0762 9H13.7109Z" fill="currentColor"/>
</svg>
