<svg width="40" height="40" viewBox="0 0 40 40" fill="none" xmlns="http://www.w3.org/2000/svg">
<path d="M34.9385 1.83203L38.0049 0.609375V3.35742L38.9238 12.2139L37.3916 16.1836L38.6172 19.542L37.3916 20.458L37.085 28.0908L39.2305 32.9766L37.6982 34.1982L38.9238 36.9463L37.085 39.3896L34.6328 38.4736L29.1162 38.168L25.7451 39.6934L24.8252 38.4727L21.7607 39.3896L14.4053 38.4727L12.2598 39.3887L6.74219 38.4736C6.02707 38.6772 4.47519 39.0837 3.98438 39.084C3.49396 39.084 1.83891 39.3895 0.306641 40C0.307121 39.9976 0.319235 39.9384 0.613281 38.4736L1.83887 36.3359L0 35.7256L0.918945 34.8086L0 29.9229L2.45215 27.4805L0.917969 26.8701L1.22559 21.6787L2.14551 21.374L0.613281 18.625L1.22559 14.0459L0 14.3516L2.14551 8.24414L0.306641 3.96875L1.22559 0.609375L3.37012 1.83203L4.59766 0.304688H7.66211L10.1143 0.609375L11.6465 1.83105L16.5508 0.610352L19.9219 1.22168L21.7607 3.35742L23.9062 0.915039L26.9707 2.74805L27.584 0.915039L28.5039 1.22168L30.3428 2.74707L34.6328 0L34.9385 1.83203ZM13.916 26.9053L15.1357 31.459L25.2549 28.748L24.0352 24.1943L13.916 26.9053ZM12.2793 12.7021C11.1662 13.0004 10.3195 13.6523 9.73926 14.6572C9.15898 15.6623 9.01815 16.7218 9.31641 17.835L9.8584 19.8584C10.1567 20.9715 10.8084 21.8182 11.8135 22.3984C12.8184 22.9787 13.8772 23.1194 14.9902 22.8213L15.6689 25.3516L21.7402 23.7246L21.0625 21.1943L25.1104 20.1104L22.3984 9.99121L12.2793 12.7021ZM20.249 18.1592L14.1768 19.7861L13.7705 18.2676L19.8418 16.6406L20.249 18.1592ZM23.9531 11.7441L25.5791 17.8154L27.6035 17.2725L28.3438 15.9902L28.0732 14.9775L31.1084 14.1641L30.5664 12.1406L27.5303 12.9541L27.2598 11.9424L25.9766 11.2012L23.9531 11.7441ZM19.5713 15.6289L13.499 17.2559L13.0928 15.7383L19.1641 14.1113L19.5713 15.6289Z" fill="currentColor"/>
</svg>
