<svg width="118" height="118" viewBox="0 0 118 118" fill="none" xmlns="http://www.w3.org/2000/svg">
<g filter="url(#filter0_d_1_493)">
<path d="M78.9593 52.4798L61.5188 35.0393C60.8492 34.3736 59.9435 34 58.9993 34C58.0552 34 57.1494 34.3736 56.4798 35.0393L39.0393 52.4816C38.3736 53.1511 38 54.0569 38 55.0011C38 55.9452 38.3736 56.851 39.0393 57.5205L56.4816 74.961C57.8669 76.3463 60.1317 76.3463 61.5206 74.961L78.9629 57.5188C79.6273 56.8485 80 55.943 80 54.9993C80 54.0556 79.6273 53.15 78.9629 52.4798H78.9593ZM46.0369 56.6463C45.3246 56.3721 44.8136 55.6955 44.8136 54.8871C44.8136 54.0787 45.3264 53.4021 46.0386 53.1297V56.6445L46.0369 56.6463ZM47.3723 56.6463V53.1297C48.0845 53.4003 48.5973 54.0787 48.5973 54.8871C48.5973 55.6955 48.0863 56.3739 47.3741 56.6445L47.3723 56.6463ZM55.4418 61.566L57.5838 55.1382C56.9628 54.8655 56.4348 54.4179 56.0642 53.85C55.6936 53.282 55.4965 52.6184 55.497 51.9403C55.497 51.01 55.8665 50.1178 56.5243 49.46C57.1822 48.8022 58.0744 48.4326 59.0047 48.4326C59.935 48.4326 60.8271 48.8022 61.485 49.46C62.1428 50.1178 62.5123 51.01 62.5123 51.9403C62.5123 53.3701 61.6523 54.5933 60.4238 55.1399L62.5658 61.5642H55.4435L55.4418 61.566ZM70.6299 56.8653C69.9177 56.5982 69.4067 55.918 69.4067 55.1115C69.4067 54.3049 69.9177 53.6265 70.6299 53.354V56.8653ZM71.9653 56.8653V53.354C72.6775 53.6247 73.1939 54.3031 73.1939 55.1115C73.1939 55.9198 72.6811 56.5947 71.9653 56.8653Z" fill="white"/>
</g>
<defs>
<filter id="filter0_d_1_493" x="0" y="0" width="118" height="118" filterUnits="userSpaceOnUse" color-interpolation-filters="sRGB">
<feFlood flood-opacity="0" result="BackgroundImageFix"/>
<feColorMatrix in="SourceAlpha" type="matrix" values="0 0 0 0 0 0 0 0 0 0 0 0 0 0 0 0 0 0 127 0" result="hardAlpha"/>
<feOffset dy="4"/>
<feGaussianBlur stdDeviation="19"/>
<feComposite in2="hardAlpha" operator="out"/>
<feColorMatrix type="matrix" values="0 0 0 0 1 0 0 0 0 1 0 0 0 0 1 0 0 0 0.55 0"/>
<feBlend mode="normal" in2="BackgroundImageFix" result="effect1_dropShadow_1_493"/>
<feBlend mode="normal" in="SourceGraphic" in2="effect1_dropShadow_1_493" result="shape"/>
</filter>
</defs>
</svg>
