<svg width="56" height="56" viewBox="0 0 56 56" fill="none" xmlns="http://www.w3.org/2000/svg">
<g filter="url(#filter0_d_319_1858)">
<path d="M9.00001 19.1711L34.2627 19.1711L24.1309 9.03929C22.1785 7.08671 22.1785 3.92156 24.1309 1.96898C26.0835 0.0163601 29.2495 0.0163603 31.2022 1.96898L49.8682 20.635C51.8208 22.5876 51.8208 25.7537 49.8682 27.7063L31.2022 46.3733C29.2496 48.3258 26.0835 48.3257 24.1309 46.3733C22.1782 44.4207 22.1782 41.2546 24.1309 39.302L34.2617 29.1711L9.00001 29.1711C6.2387 29.1711 4.00019 26.9324 4.00001 24.1711C4.00001 21.4097 6.23859 19.1711 9.00001 19.1711Z" fill="#87DA21"/>
</g>
<defs>
<filter id="filter0_d_319_1858" x="0" y="0.504517" width="55.3326" height="55.3331" filterUnits="userSpaceOnUse" color-interpolation-filters="sRGB">
<feFlood flood-opacity="0" result="BackgroundImageFix"/>
<feColorMatrix in="SourceAlpha" type="matrix" values="0 0 0 0 0 0 0 0 0 0 0 0 0 0 0 0 0 0 127 0" result="hardAlpha"/>
<feOffset dy="4"/>
<feGaussianBlur stdDeviation="2"/>
<feComposite in2="hardAlpha" operator="out"/>
<feColorMatrix type="matrix" values="0 0 0 0 0.529412 0 0 0 0 0.854902 0 0 0 0 0.129412 0 0 0 0.25 0"/>
<feBlend mode="normal" in2="BackgroundImageFix" result="effect1_dropShadow_319_1858"/>
<feBlend mode="normal" in="SourceGraphic" in2="effect1_dropShadow_319_1858" result="shape"/>
</filter>
</defs>
</svg>
