<svg width="234" height="26" viewBox="0 0 234 26" fill="none" xmlns="http://www.w3.org/2000/svg">
<path d="M117.249 0H116.751L112.65 7.98246H121.35L117.249 0ZM123.954 7.98246H132L128.772 1.68772C128.514 1.18108 128.116 0.754716 127.623 0.456565C127.13 0.158414 126.561 0.000300205 125.981 0H119.853L123.954 7.98246ZM131.626 10.2632H118.169V26L131.626 10.2632ZM115.831 26V10.2632H102.374L115.831 26ZM110.046 7.98246L114.131 0H108.019C107.439 0.000300205 106.87 0.158414 106.377 0.456565C105.884 0.754716 105.486 1.18108 105.228 1.68772L102 7.98246H110.046Z" fill="url(#paint0_linear_335_10363)"/>
<path d="M168.249 0H167.751L163.65 7.98246H172.35L168.249 0ZM174.954 7.98246H183L179.772 1.68772C179.514 1.18108 179.116 0.754716 178.623 0.456565C178.13 0.158414 177.561 0.000300205 176.981 0H170.853L174.954 7.98246ZM182.626 10.2632H169.169V26L182.626 10.2632ZM166.831 26V10.2632H153.374L166.831 26ZM161.046 7.98246L165.131 0H159.019C158.439 0.000300205 157.87 0.158414 157.377 0.456565C156.884 0.754716 156.486 1.18108 156.228 1.68772L153 7.98246H161.046Z" fill="url(#paint1_linear_335_10363)"/>
<path d="M219.249 0H218.751L214.65 7.98246H223.35L219.249 0ZM225.954 7.98246H234L230.772 1.68772C230.514 1.18108 230.116 0.754716 229.623 0.456565C229.13 0.158414 228.561 0.000300205 227.981 0H221.853L225.954 7.98246ZM233.626 10.2632H220.169V26L233.626 10.2632ZM217.831 26V10.2632H204.374L217.831 26ZM212.046 7.98246L216.131 0H210.019C209.439 0.000300205 208.87 0.158414 208.377 0.456565C207.884 0.754716 207.486 1.18108 207.228 1.68772L204 7.98246H212.046Z" fill="url(#paint2_linear_335_10363)"/>
<path d="M66.2495 0H65.7505L61.6497 7.98246H70.3503L66.2495 0ZM72.9543 7.98246H81L77.7723 1.68772C77.5142 1.18108 77.1162 0.754716 76.6231 0.456565C76.13 0.158414 75.5615 0.000300205 74.9813 0H68.8534L72.9543 7.98246ZM80.6258 10.2632H67.1694V26L80.6258 10.2632ZM64.8306 26V10.2632H51.3742L64.8306 26ZM59.0457 7.98246L63.131 0H57.0187C56.4385 0.000300205 55.87 0.158414 55.3769 0.456565C54.8838 0.754716 54.4858 1.18108 54.2276 1.68772L51 7.98246H59.0457Z" fill="url(#paint3_linear_335_10363)"/>
<path d="M15.2495 0H14.7505L10.6497 7.98246H19.3503L15.2495 0ZM21.9543 7.98246H30L26.7723 1.68772C26.5142 1.18108 26.1162 0.754716 25.6231 0.456565C25.13 0.158414 24.5615 0.000300205 23.9813 0H17.8534L21.9543 7.98246ZM29.6258 10.2632H16.1694V26L29.6258 10.2632ZM13.8306 26V10.2632H0.37422L13.8306 26ZM8.04574 7.98246L12.131 0H6.01871C5.43854 0.000300205 4.86995 0.158414 4.37689 0.456565C3.88382 0.754716 3.48583 1.18108 3.22765 1.68772L0 7.98246H8.04574Z" fill="url(#paint4_linear_335_10363)"/>
<defs>
<linearGradient id="paint0_linear_335_10363" x1="117" y1="0" x2="117" y2="26" gradientUnits="userSpaceOnUse">
<stop stop-color="#0085FF"/>
<stop offset="1" stop-color="#00070D"/>
</linearGradient>
<linearGradient id="paint1_linear_335_10363" x1="168" y1="0" x2="168" y2="26" gradientUnits="userSpaceOnUse">
<stop stop-color="#0085FF"/>
<stop offset="1" stop-color="#00070D"/>
</linearGradient>
<linearGradient id="paint2_linear_335_10363" x1="219" y1="0" x2="219" y2="26" gradientUnits="userSpaceOnUse">
<stop stop-color="#0085FF"/>
<stop offset="1" stop-color="#00070D"/>
</linearGradient>
<linearGradient id="paint3_linear_335_10363" x1="66" y1="0" x2="66" y2="26" gradientUnits="userSpaceOnUse">
<stop stop-color="#0085FF"/>
<stop offset="1" stop-color="#00070D"/>
</linearGradient>
<linearGradient id="paint4_linear_335_10363" x1="15" y1="0" x2="15" y2="26" gradientUnits="userSpaceOnUse">
<stop stop-color="#0085FF"/>
<stop offset="1" stop-color="#00070D"/>
</linearGradient>
</defs>
</svg>
