<svg width="35" height="46" viewBox="0 0 35 46" fill="none" xmlns="http://www.w3.org/2000/svg">
<path d="M4.375 46C3.17187 46 2.14229 45.5714 1.28625 44.7142C0.430208 43.857 0.00145833 42.8253 0 41.619V19.7143C0 18.5095 0.42875 17.4785 1.28625 16.6213C2.14375 15.7641 3.17333 15.3348 4.375 15.3333H6.5625V10.9524C6.5625 7.92222 7.62927 5.33965 9.76281 3.20467C11.8964 1.06968 14.4754 0.00146181 17.5 1.49521e-06C20.5246 -0.00145882 23.1044 1.06676 25.2394 3.20467C27.3744 5.34257 28.4404 7.92514 28.4375 10.9524V15.3333H30.625C31.8281 15.3333 32.8584 15.7627 33.7159 16.6213C34.5734 17.48 35.0015 18.511 35 19.7143V41.619C35 42.8238 34.572 43.8555 33.7159 44.7142C32.8599 45.5729 31.8296 46.0015 30.625 46H4.375ZM17.5 35.0476C18.7031 35.0476 19.7334 34.619 20.5909 33.7618C21.4484 32.9046 21.8765 31.8729 21.875 30.6667C21.8735 29.4604 21.4455 28.4295 20.5909 27.5737C19.7364 26.718 18.706 26.2886 17.5 26.2857C16.294 26.2828 15.2644 26.7121 14.4112 27.5737C13.5581 28.4353 13.1294 29.4663 13.125 30.6667C13.1206 31.867 13.5494 32.8988 14.4112 33.7618C15.2731 34.6249 16.3027 35.0535 17.5 35.0476ZM10.9375 15.3333H24.0625V10.9524C24.0625 9.12698 23.4245 7.5754 22.1484 6.29762C20.8724 5.01984 19.3229 4.38095 17.5 4.38095C15.6771 4.38095 14.1276 5.01984 12.8516 6.29762C11.5755 7.5754 10.9375 9.12698 10.9375 10.9524V15.3333Z" fill="white" fill-opacity="0.2"/>
</svg>
