<svg width="54" height="55" viewBox="0 0 54 55" fill="none" xmlns="http://www.w3.org/2000/svg">
<path d="M27 30.4485C24.6131 30.4485 22.3239 31.3967 20.636 33.0845C18.9482 34.7724 18 37.0615 18 39.4485C18 41.8354 18.9482 44.1246 20.636 45.8124C22.3239 47.5003 24.6131 48.4485 27 48.4485C29.3869 48.4485 31.6761 47.5003 33.364 45.8124C35.0518 44.1246 36 41.8354 36 39.4485C36 37.0615 35.0518 34.7724 33.364 33.0845C31.6761 31.3967 29.3869 30.4485 27 30.4485ZM23.1429 39.4485C23.1429 38.4255 23.5492 37.4444 24.2726 36.7211C24.9959 35.9977 25.977 35.5913 27 35.5913C28.023 35.5913 29.0041 35.9977 29.7274 36.7211C30.4508 37.4444 30.8571 38.4255 30.8571 39.4485C30.8571 40.4715 30.4508 41.4525 29.7274 42.1759C29.0041 42.8993 28.023 43.3056 27 43.3056C25.977 43.3056 24.9959 42.8993 24.2726 42.1759C23.5492 41.4525 23.1429 40.4715 23.1429 39.4485Z" fill="white" fill-opacity="0.24"/>
<path d="M41.2097 11.4609L33.0351 0L2.97771 24.012L1.31143 23.994V24.0197H0V54.8769H54V24.0197H51.5263L46.6046 9.62229L41.2097 11.4609ZM46.0929 24.0197H20.3066L39.5126 17.4729L43.4263 16.2206L46.0929 24.0197ZM36.1286 13.194L16.3029 19.9517L32.004 7.40829L36.1286 13.194ZM5.14286 45.0257V33.8657C6.22773 33.4813 7.21313 32.8596 8.02722 32.0459C8.8413 31.2323 9.46354 30.2472 9.84857 29.1626H44.1514C44.5363 30.2476 45.1584 31.2331 45.9725 32.0472C46.7866 32.8613 47.7721 33.4834 48.8571 33.8683V45.0283C47.7721 45.4132 46.7866 46.0353 45.9725 46.8494C45.1584 47.6635 44.5363 48.6489 44.1514 49.734H9.85371C9.46847 48.648 8.84562 47.6618 8.03062 46.8472C7.21562 46.0327 6.22903 45.4104 5.14286 45.0257Z" fill="white" fill-opacity="0.24"/>
</svg>
