<svg width="86" height="66" viewBox="0 0 86 66" fill="none" xmlns="http://www.w3.org/2000/svg">
<g filter="url(#filter0_d_335_10506)">
<path d="M7.90235 62H78.1043C78.8151 61.9978 79.5118 61.8031 80.1194 61.4369C80.7271 61.0706 81.2226 60.5468 81.5528 59.9216C81.883 59.2965 82.0352 58.5937 81.9932 57.889C81.9511 57.1843 81.7163 56.5044 81.3141 55.9224L46.2131 5.56589C44.7584 3.47804 41.2561 3.47804 39.7975 5.56589L4.69646 55.9224C4.29016 56.5032 4.0519 57.1835 4.00756 57.8893C3.96322 58.5952 4.1145 59.2996 4.44495 59.9261C4.77541 60.5526 5.27241 61.0771 5.88195 61.4428C6.49149 61.8084 7.19027 62.0011 7.90235 62Z" fill="white"/>
<path d="M7.90235 60.5H7.9C7.45999 60.5007 7.02886 60.3816 6.65354 60.1564C6.27831 59.9313 5.97372 59.6093 5.77169 59.2263L4.44495 59.9261L5.77169 59.2263C5.56971 58.8434 5.47759 58.4136 5.50461 57.9834C5.53164 57.5532 5.67687 57.1377 5.92558 56.7822L5.92701 56.7801L41.0271 6.42496C41.0271 6.42489 41.0272 6.42483 41.0272 6.42476C41.4242 5.8567 42.1591 5.5 43.0068 5.5C43.8546 5.5 44.5876 5.85672 44.9824 6.42341L44.9826 6.42365L80.0801 56.7751C80.0806 56.7758 80.0811 56.7765 80.0816 56.7773C80.3273 57.1337 80.4702 57.5489 80.4958 57.9784C80.5215 58.4087 80.4286 58.8383 80.2264 59.2211C80.0242 59.604 79.7199 59.9263 79.3452 60.1521C78.9709 60.3777 78.5411 60.4982 78.1018 60.5H7.90235Z" stroke="#B4B4B4" stroke-width="3"/>
</g>
<defs>
<filter id="filter0_d_335_10506" x="0" y="0" width="86" height="66" filterUnits="userSpaceOnUse" color-interpolation-filters="sRGB">
<feFlood flood-opacity="0" result="BackgroundImageFix"/>
<feColorMatrix in="SourceAlpha" type="matrix" values="0 0 0 0 0 0 0 0 0 0 0 0 0 0 0 0 0 0 127 0" result="hardAlpha"/>
<feOffset/>
<feGaussianBlur stdDeviation="2"/>
<feComposite in2="hardAlpha" operator="out"/>
<feColorMatrix type="matrix" values="0 0 0 0 0 0 0 0 0 0 0 0 0 0 0 0 0 0 0.25 0"/>
<feBlend mode="normal" in2="BackgroundImageFix" result="effect1_dropShadow_335_10506"/>
<feBlend mode="normal" in="SourceGraphic" in2="effect1_dropShadow_335_10506" result="shape"/>
</filter>
</defs>
</svg>
