<svg width="86" height="66" viewBox="0 0 86 66" fill="none" xmlns="http://www.w3.org/2000/svg">
<g filter="url(#filter0_d_335_10507)">
<path d="M78.0977 4.00001L7.89567 4C7.1849 4.00221 6.48821 4.19691 5.88057 4.56313C5.27293 4.92935 4.77736 5.45323 4.4472 6.07837C4.11704 6.70352 3.9648 7.40627 4.00685 8.11096C4.04891 8.81565 4.28367 9.49561 4.68587 10.0776L39.7869 60.4341C41.2416 62.522 44.7439 62.522 46.2025 60.4341L81.3035 10.0776C81.7098 9.49683 81.9481 8.81653 81.9924 8.11066C82.0368 7.4048 81.8855 6.70036 81.5551 6.07389C81.2246 5.44742 80.7276 4.92287 80.1181 4.55724C79.5085 4.19162 78.8097 3.99889 78.0977 4.00001Z" fill="white"/>
<path d="M78.0977 5.50001L78.1 5.50001C78.54 5.49932 78.9711 5.61844 79.3465 5.84357C79.7217 6.06865 80.0263 6.39073 80.2283 6.77373L81.5551 6.07389L80.2283 6.77373C80.4303 7.15664 80.5224 7.58643 80.4954 8.01662C80.4684 8.44683 80.3231 8.8623 80.0744 9.21785L80.073 9.21989L44.9729 59.575C44.9729 59.5751 44.9728 59.5752 44.9728 59.5752C44.5758 60.1433 43.8409 60.5 42.9932 60.5C42.1454 60.5 41.4124 60.1433 41.0176 59.5766L41.0174 59.5763L5.9199 9.22488C5.9194 9.22416 5.91891 9.22345 5.91842 9.22273C5.67267 8.86628 5.52981 8.45106 5.50419 8.0216C5.47851 7.5913 5.5714 7.16171 5.77358 6.77889C5.97581 6.39597 6.2801 6.0737 6.65485 5.84784C7.02909 5.62229 7.45894 5.50176 7.89819 5.5L78.0977 5.50001Z" stroke="#B4B4B4" stroke-width="3"/>
</g>
<defs>
<filter id="filter0_d_335_10507" x="0" y="0" width="86" height="66" filterUnits="userSpaceOnUse" color-interpolation-filters="sRGB">
<feFlood flood-opacity="0" result="BackgroundImageFix"/>
<feColorMatrix in="SourceAlpha" type="matrix" values="0 0 0 0 0 0 0 0 0 0 0 0 0 0 0 0 0 0 127 0" result="hardAlpha"/>
<feOffset/>
<feGaussianBlur stdDeviation="2"/>
<feComposite in2="hardAlpha" operator="out"/>
<feColorMatrix type="matrix" values="0 0 0 0 0 0 0 0 0 0 0 0 0 0 0 0 0 0 0.25 0"/>
<feBlend mode="normal" in2="BackgroundImageFix" result="effect1_dropShadow_335_10507"/>
<feBlend mode="normal" in="SourceGraphic" in2="effect1_dropShadow_335_10507" result="shape"/>
</filter>
</defs>
</svg>
