<?xml version="1.0" encoding="UTF-8" ?>
<!DOCTYPE svg PUBLIC "-//W3C//DTD SVG 1.1//EN" "http://www.w3.org/Graphics/SVG/1.1/DTD/svg11.dtd">
<svg width="1980pt" height="229pt" viewBox="0 0 1980 229" version="1.1" xmlns="http://www.w3.org/2000/svg">
<g id="#0000007D">
<path fill="#00000066" opacity="1.00" d=" M 1667.02 10.83 C 1771.35 8.77 1875.67 6.40 1980.00 4.54 L 1980.00 229.00 L 1952.81 229.00 C 1941.26 227.63 1929.62 227.93 1918.02 227.49 C 1762.69 223.39 1607.32 220.78 1451.99 216.94 C 1397.99 215.40 1343.98 214.76 1289.97 213.66 C 1282.97 213.54 1275.97 214.32 1268.97 213.86 C 1243.05 211.66 1217.00 211.89 1191.01 211.27 C 1137.06 209.73 1083.09 209.08 1029.14 207.71 C 984.44 206.81 939.75 205.56 895.06 204.66 C 874.04 204.33 853.05 203.39 832.03 203.15 C 806.94 202.92 781.86 202.44 756.78 201.58 C 724.32 200.73 691.86 200.43 659.40 199.61 C 636.30 199.19 613.23 198.17 590.14 197.72 C 532.10 196.55 474.05 195.73 416.02 194.08 C 332.69 192.44 249.38 190.41 166.06 188.56 C 146.95 188.32 127.82 188.33 108.72 187.41 C 72.49 186.49 36.25 185.49 0.00 185.24 L 0.00 44.99 C 555.67 33.58 1111.35 22.22 1667.02 10.83 Z" />
</g>
</svg>
